<svg width="233" height="177" viewBox="0 0 233 177" fill="none" xmlns="http://www.w3.org/2000/svg">
<path d="M77.5568 117.449L79.0553 117.515L77.5568 117.449ZM128.367 86.0389L126.909 86.3893L128.367 86.0389ZM165.522 45.5259L164.025 45.6237L165.522 45.5259ZM225.385 47.1786C225.22 47.9905 224.429 48.5155 223.617 48.3512L210.385 45.6734C209.573 45.509 209.047 44.7176 209.211 43.9056C209.376 43.0937 210.167 42.5686 210.979 42.733L222.741 45.1133L225.118 33.3516C225.282 32.5397 226.073 32.0146 226.885 32.179C227.697 32.3433 228.222 33.1347 228.058 33.9467L225.385 47.1786ZM-11.7683 69.6116C-11.4322 70.3689 -11.7736 71.255 -12.5308 71.5909C-13.2879 71.9267 -14.1742 71.5851 -14.5103 70.8278L-11.7683 69.6116ZM-10.4544 79.7756C-10.8019 79.0235 -10.4741 78.1322 -9.72209 77.7849C-8.9701 77.4375 -8.07874 77.7657 -7.73118 78.5178L-10.4544 79.7756ZM-3.57382 87.3545C-3.21599 88.1018 -3.5316 88.9975 -4.27875 89.3551C-5.02591 89.7127 -5.92167 89.3968 -6.2795 88.6495L-3.57382 87.3545ZM-1.98344 97.4626C-2.35179 96.7205 -2.04886 95.8204 -1.30684 95.4523C-0.564816 95.0842 0.33532 95.3874 0.703669 96.1295L-1.98344 97.4626ZM5.11241 104.846C5.49216 105.582 5.20316 106.487 4.4669 106.866C3.73065 107.246 2.82595 106.957 2.4462 106.22L5.11241 104.846ZM7.02889 114.923C6.63631 114.194 6.90943 113.284 7.63892 112.892C8.36842 112.499 9.27804 112.773 9.67062 113.502L7.02889 114.923ZM14.3803 122.051C14.7878 122.772 14.5333 123.687 13.812 124.095C13.0907 124.502 12.1757 124.247 11.7683 123.526L14.3803 122.051ZM16.7063 132.029C16.281 131.318 16.5126 130.397 17.2236 129.972C17.9345 129.547 18.8556 129.779 19.2808 130.49L16.7063 132.029ZM24.4091 138.779C24.8566 139.477 24.6541 140.404 23.9569 140.852C23.2597 141.299 22.3318 141.096 21.8843 140.399L24.4091 138.779ZM27.3548 148.564C26.8785 147.886 27.0419 146.95 27.7197 146.474C28.3976 145.998 29.3331 146.162 29.8094 146.84L27.3548 148.564ZM35.6315 154.648C36.1481 155.296 36.042 156.24 35.3943 156.756C34.7467 157.273 33.803 157.166 33.2863 156.518L35.6315 154.648ZM39.7955 163.974C39.2181 163.38 39.2315 162.43 39.8255 161.853C40.4195 161.276 41.3691 161.289 41.9466 161.884L39.7955 163.974ZM49.1293 168.124C49.8115 168.595 49.9835 169.529 49.5134 170.211C49.0434 170.893 48.1094 171.064 47.4272 170.594L49.1293 168.124ZM57.1086 174.48C56.282 174.424 55.6576 173.708 55.7139 172.881C55.7701 172.055 56.4858 171.431 57.3123 171.487L57.1086 174.48ZM64.7363 168.24C65.298 167.631 66.2469 167.593 66.8559 168.155C67.4648 168.717 67.5031 169.666 66.9414 170.275L64.7363 168.24ZM72.1138 161.486C71.8071 162.256 70.9346 162.631 70.1651 162.324C69.3955 162.017 69.0202 161.144 69.3269 160.375L72.1138 161.486ZM72.1312 151.128C72.3186 150.321 73.1247 149.819 73.9316 150.007C74.7386 150.194 75.2408 151.001 75.0534 151.808L72.1312 151.128ZM76.8752 142.036C76.7537 142.856 75.9909 143.421 75.1714 143.3C74.352 143.178 73.7862 142.415 73.9077 141.595L76.8752 142.036ZM75.0569 132.056C75.1363 131.231 75.869 130.627 76.6937 130.707C77.5183 130.786 78.1225 131.519 78.0431 132.344L75.0569 132.056ZM78.7891 122.655C78.7397 123.482 78.0293 124.112 77.2024 124.062C76.3754 124.013 75.7451 123.302 75.7945 122.475L78.7891 122.655ZM76.2964 112.352C76.3382 111.525 77.0427 110.888 77.8701 110.931C78.6975 110.973 79.3343 111.677 79.2925 112.505L76.2964 112.352ZM79.8412 102.9C79.7882 103.727 79.075 104.354 78.2483 104.301C77.4215 104.247 76.7944 103.534 76.8474 102.707L79.8412 102.9ZM77.5516 92.9705C77.6185 92.1448 78.3421 91.5299 79.1678 91.5971C79.9935 91.6642 80.6087 92.3881 80.5417 93.2138L77.5516 92.9705ZM81.4285 83.5016C81.344 84.3257 80.6075 84.9251 79.7834 84.8404C78.9593 84.7558 78.3597 84.019 78.4441 83.1949L81.4285 83.5016ZM79.569 73.4795C79.6763 72.6581 80.4291 72.0793 81.2506 72.1868C82.072 72.2943 82.651 73.0473 82.5438 73.8688L79.569 73.4795ZM83.9623 64.3419C83.8237 65.1586 83.0492 65.7081 82.2324 65.5692C81.4157 65.4303 80.866 64.6556 81.0047 63.8389L83.9623 64.3419ZM82.9191 54.1652C83.1058 53.3581 83.9114 52.8554 84.7185 53.0423C85.5256 53.2293 86.0286 54.0351 85.8419 54.8421L82.9191 54.1652ZM88.4219 45.6603C88.1512 46.4432 87.2971 46.8582 86.5141 46.5872C85.7312 46.3163 85.3159 45.462 85.5867 44.6791L88.4219 45.6603ZM89.9324 35.5257C90.4032 34.8441 91.3374 34.6734 92.0191 35.1444C92.7007 35.6154 92.8717 36.5497 92.401 37.2312L89.9324 35.5257ZM98.9 33.3535C98.0817 33.2238 97.5233 32.4554 97.6527 31.6372C97.7821 30.819 98.5503 30.2608 99.3686 30.3904L98.9 33.3535ZM108.153 36.2922C108.695 36.9185 108.628 37.8658 108.001 38.408C107.375 38.9503 106.428 38.8821 105.886 38.2558L108.153 36.2922ZM111.286 46.0395C110.869 45.3238 111.11 44.4054 111.826 43.9881C112.541 43.5708 113.46 43.8127 113.877 44.5284L111.286 46.0395ZM118.422 53.2831C118.773 54.0337 118.449 54.9264 117.698 55.277C116.948 55.6275 116.055 55.3032 115.704 54.5526L118.422 53.2831ZM119.513 63.4303C119.209 62.6598 119.586 61.7885 120.357 61.4842C121.127 61.1799 121.999 61.5579 122.303 62.3284L119.513 63.4303ZM125.678 71.5463C125.943 72.3312 125.522 73.1824 124.737 73.4476C123.953 73.7128 123.101 73.2915 122.836 72.5066L125.678 71.5463ZM125.701 81.7618C125.479 80.9638 125.945 80.1365 126.743 79.9139C127.541 79.6913 128.368 80.1578 128.591 80.9557L125.701 81.7618ZM131.077 90.0969C131.335 90.8842 130.906 91.7314 130.119 91.9892C129.331 92.247 128.484 91.8178 128.226 91.0305L131.077 90.0969ZM131.965 99.9196C131.58 99.1856 131.864 98.2792 132.598 97.895C133.331 97.5108 134.238 97.7943 134.622 98.5283L131.965 99.9196ZM139.599 106.096C140.13 106.732 140.046 107.678 139.41 108.209C138.775 108.74 137.829 108.655 137.297 108.019L139.599 106.096ZM144.945 114.408C144.203 114.041 143.897 113.141 144.264 112.399C144.63 111.656 145.529 111.351 146.272 111.717L144.945 114.408ZM153.83 111.79C154.545 111.372 155.464 111.613 155.882 112.329C156.3 113.044 156.059 113.963 155.344 114.38L153.83 111.79ZM161.808 106.59C161.45 107.337 160.554 107.652 159.807 107.293C159.06 106.935 158.745 106.039 159.103 105.292L161.808 106.59ZM162.015 96.6638C162.207 95.8579 163.016 95.3602 163.822 95.5522C164.628 95.7441 165.126 96.553 164.934 97.3589L162.015 96.6638ZM166.595 87.9468C166.491 88.7687 165.741 89.3508 164.919 89.2469C164.097 89.143 163.515 88.3925 163.618 87.5706L166.595 87.9468ZM164.444 78.3797C164.492 77.5527 165.202 76.9216 166.029 76.97C166.856 77.0185 167.487 77.7282 167.439 78.5552L164.444 78.3797ZM167.754 69.0428C167.745 69.8712 167.067 70.5355 166.238 70.5266C165.41 70.5176 164.745 69.8388 164.754 69.0105L167.754 69.0428ZM164.679 59.7185C164.658 58.8904 165.313 58.2024 166.141 58.1819C166.969 58.1614 167.657 58.8161 167.678 59.6443L164.679 59.7185ZM167.304 50.2243C167.348 51.0516 166.713 51.7578 165.886 51.8016C165.059 51.8454 164.353 51.2104 164.309 50.3831L167.304 50.2243ZM163.757 40.7437C163.721 39.916 164.363 39.2162 165.191 39.1806C166.019 39.1449 166.719 39.787 166.754 40.6147L163.757 40.7437ZM166.603 31.3197C166.591 32.1481 165.909 32.8093 165.081 32.7967C164.252 32.784 163.591 32.1023 163.603 31.2739L166.603 31.3197ZM164.166 21.7237C164.259 20.9005 165.002 20.3086 165.825 20.4016C166.648 20.4945 167.24 21.2373 167.148 22.0605L164.166 21.7237ZM168.935 13.1484C168.679 13.9362 167.833 14.3672 167.045 14.111C166.257 13.8548 165.826 13.0085 166.082 12.2207L168.935 13.1484ZM171.518 3.6319C172.181 3.13591 173.122 3.27177 173.618 3.93532C174.114 4.59888 173.978 5.53887 173.315 6.03485L171.518 3.6319ZM180.976 5.19724C180.183 4.95553 179.737 4.11722 179.978 3.32484C180.22 2.53245 181.058 2.08605 181.85 2.32775L180.976 5.19724ZM190.59 6.93315C191.265 7.41401 191.422 8.35068 190.942 9.02528C190.461 9.69988 189.524 9.85695 188.85 9.37611L190.59 6.93315ZM195.94 15.2689C195.335 14.7027 195.304 13.7535 195.87 13.1488C196.436 12.544 197.385 12.5128 197.99 13.079L195.94 15.2689ZM204.696 19.8889C205.256 20.4993 205.216 21.4481 204.606 22.0083C203.995 22.5685 203.047 22.5278 202.486 21.9174L204.696 19.8889ZM208.633 28.9865C208.105 28.3482 208.193 27.4027 208.832 26.8745C209.47 26.3464 210.415 26.4356 210.944 27.0739L208.633 28.9865ZM216.849 34.511C217.352 35.1696 217.225 36.1109 216.567 36.6134C215.908 37.1159 214.967 36.9894 214.464 36.3308L216.849 34.511ZM220.018 43.8816C219.539 43.2054 219.699 42.2692 220.375 41.7907C221.052 41.3121 221.988 41.4724 222.466 42.1486L220.018 43.8816ZM-15.0741 65.7956C-13.6942 65.2081 -13.6942 65.208 -13.6942 65.208C-13.6942 65.208 -13.6942 65.2081 -13.6942 65.2081C-13.6942 65.2081 -13.6942 65.2081 -13.6941 65.2082C-13.6941 65.2084 -13.694 65.2086 -13.6938 65.209C-13.6935 65.2096 -13.6931 65.2107 -13.6924 65.2122C-13.6912 65.2151 -13.6893 65.2196 -13.6867 65.2256C-13.6815 65.2377 -13.6738 65.2559 -13.6633 65.2802C-13.6425 65.3289 -13.6113 65.4018 -13.5698 65.4983C-13.4868 65.6913 -13.3629 65.9784 -13.2 66.3535C-12.8741 67.1039 -12.392 68.2062 -11.7683 69.6116L-14.5103 70.8278C-15.1374 69.4147 -15.6227 68.3051 -15.9516 67.548C-16.116 67.1694 -16.2413 66.8789 -16.3257 66.6828C-16.3678 66.5847 -16.3998 66.5102 -16.4213 66.46C-16.432 66.4349 -16.4401 66.4159 -16.4456 66.403C-16.4484 66.3966 -16.4504 66.3917 -16.4518 66.3884C-16.4526 66.3868 -16.4531 66.3855 -16.4535 66.3846C-16.4537 66.3842 -16.4538 66.3838 -16.4539 66.3836C-16.454 66.3835 -16.454 66.3834 -16.454 66.3833C-16.454 66.3833 -16.4541 66.3832 -16.4541 66.3832C-16.4541 66.3832 -16.4541 66.3831 -15.0741 65.7956ZM-7.73118 78.5178C-6.50197 81.1778 -5.10812 84.1503 -3.57382 87.3545L-6.2795 88.6495C-7.82025 85.4318 -9.21994 82.4468 -10.4544 79.7756L-7.73118 78.5178ZM0.703669 96.1295C2.10191 98.9467 3.57554 101.866 5.11241 104.846L2.4462 106.22C0.901663 103.225 -0.578937 100.292 -1.98344 97.4626L0.703669 96.1295ZM9.67062 113.502C11.1995 116.344 12.7726 119.204 14.3803 122.051L11.7683 123.526C10.1496 120.659 8.56652 117.781 7.02889 114.923L9.67062 113.502ZM19.2808 130.49C20.9687 133.312 22.6815 136.087 24.4091 138.779L21.8843 140.399C20.1378 137.677 18.4084 134.875 16.7063 132.029L19.2808 130.49ZM29.8094 146.84C31.7517 149.605 33.6971 152.223 35.6315 154.648L33.2863 156.518C31.3079 154.038 29.326 151.37 27.3548 148.564L29.8094 146.84ZM41.9466 161.884C44.4184 164.427 46.823 166.535 49.1293 168.124L47.4272 170.594C44.9139 168.862 42.3596 166.612 39.7955 163.974L41.9466 161.884ZM57.3123 171.487C59.95 171.668 62.4271 170.743 64.7363 168.24L66.9414 170.275C64.0788 173.377 60.7415 174.729 57.1086 174.48L57.3123 171.487ZM69.3269 160.375C70.353 157.8 71.2936 154.734 72.1312 151.128L75.0534 151.808C74.1898 155.526 73.2077 158.741 72.1138 161.486L69.3269 160.375ZM73.9077 141.595C74.3427 138.661 74.7271 135.485 75.0569 132.056L78.0431 132.344C77.709 135.818 77.3186 139.045 76.8752 142.036L73.9077 141.595ZM75.7945 122.475C75.893 120.825 75.981 119.128 76.0583 117.382L79.0553 117.515C78.9774 119.276 78.8886 120.989 78.7891 122.655L75.7945 122.475ZM76.0583 117.382C76.1338 115.675 76.2132 113.999 76.2964 112.352L79.2925 112.505C79.2097 114.145 79.1306 115.815 79.0553 117.515L76.0583 117.382ZM76.8474 102.707C77.0648 99.3202 77.2998 96.0762 77.5516 92.9705L80.5417 93.2138C80.2914 96.3018 80.0576 99.529 79.8412 102.9L76.8474 102.707ZM78.4441 83.1949C78.796 79.7603 79.1715 76.5246 79.569 73.4795L82.5438 73.8688C82.1501 76.884 81.7778 80.0921 81.4285 83.5016L78.4441 83.1949ZM81.0047 63.8389C81.6066 60.2932 82.246 57.0753 82.9191 54.1652L85.8419 54.8421C85.184 57.6864 84.5559 60.8457 83.9623 64.3419L81.0047 63.8389ZM85.5867 44.6791C86.9248 40.8094 88.3738 37.7822 89.9324 35.5257L92.401 37.2312C91.0483 39.1896 89.7067 41.9451 88.4219 45.6603L85.5867 44.6791ZM99.3686 30.3904C102.513 30.8887 105.473 33.1972 108.153 36.2922L105.886 38.2558C103.341 35.3177 100.975 33.6822 98.9 33.3535L99.3686 30.3904ZM113.877 44.5284C115.456 47.2336 116.979 50.1948 118.422 53.2831L115.704 54.5526C114.291 51.5283 112.809 48.6504 111.286 46.0395L113.877 44.5284ZM122.303 62.3284C123.526 65.422 124.658 68.5312 125.678 71.5463L122.836 72.5066C121.831 69.5362 120.716 66.4743 119.513 63.4303L122.303 62.3284ZM128.591 80.9557C129.056 82.6221 129.47 84.2085 129.826 85.6886L126.909 86.3893C126.562 84.9481 126.158 83.397 125.701 81.7618L128.591 80.9557ZM129.826 85.6886C130.185 87.1817 130.604 88.6549 131.077 90.0969L128.226 91.0305C127.729 89.5132 127.287 87.9623 126.909 86.3893L129.826 85.6886ZM134.622 98.5283C136.123 101.394 137.812 103.958 139.599 106.096L137.297 108.019C135.355 105.695 133.551 102.947 131.965 99.9196L134.622 98.5283ZM146.272 111.717C148.989 113.058 151.533 113.132 153.83 111.79L155.344 114.38C151.989 116.34 148.35 116.088 144.945 114.408L146.272 111.717ZM159.103 105.292C160.194 103.019 161.182 100.169 162.015 96.6638L164.934 97.3589C164.063 101.019 163.012 104.081 161.808 106.59L159.103 105.292ZM163.618 87.5706C163.971 84.7746 164.249 81.7162 164.444 78.3797L167.439 78.5552C167.241 81.9508 166.957 85.0767 166.595 87.9468L163.618 87.5706ZM164.754 69.0105C164.785 66.084 164.761 62.989 164.679 59.7185L167.678 59.6443C167.761 62.9476 167.785 66.0783 167.754 69.0428L164.754 69.0105ZM164.309 50.3831C164.226 48.8306 164.131 47.2443 164.025 45.6237L167.018 45.428C167.126 47.0606 167.221 48.6592 167.304 50.2243L164.309 50.3831ZM164.025 45.6237C163.914 43.9395 163.825 42.3133 163.757 40.7437L166.754 40.6147C166.821 42.1609 166.909 43.7648 167.018 45.428L164.025 45.6237ZM163.603 31.2739C163.656 27.7271 163.848 24.5525 164.166 21.7237L167.148 22.0605C166.842 24.7762 166.655 27.852 166.603 31.3197L163.603 31.2739ZM166.082 12.2207C167.38 8.22423 169.191 5.37146 171.518 3.6319L173.315 6.03485C171.658 7.27395 170.122 9.49469 168.935 13.1484L166.082 12.2207ZM181.85 2.32775C184.694 3.19514 187.649 4.83735 190.59 6.93315L188.85 9.37611C186.052 7.38271 183.395 5.935 180.976 5.19724L181.85 2.32775ZM197.99 13.079C200.269 15.2121 202.522 17.5209 204.696 19.8889L202.486 21.9174C200.352 19.5928 198.153 17.3399 195.94 15.2689L197.99 13.079ZM210.944 27.0739C213.084 29.6602 215.076 32.188 216.849 34.511L214.464 36.3308C212.711 34.0338 210.745 31.5375 208.633 28.9865L210.944 27.0739ZM222.466 42.1486C223.32 43.3549 223.993 44.3282 224.453 45.0011C224.683 45.3375 224.86 45.5989 224.98 45.7768C225.04 45.8658 225.085 45.9339 225.116 45.9801C225.132 46.0031 225.143 46.0208 225.151 46.0328C225.155 46.0388 225.158 46.0434 225.16 46.0465C225.162 46.0481 225.162 46.0494 225.163 46.0502C225.163 46.0507 225.163 46.051 225.164 46.0513C225.164 46.0514 225.164 46.0515 225.164 46.0516C225.164 46.0517 225.164 46.0517 225.164 46.0517C225.164 46.0518 225.164 46.0518 223.914 46.881C222.665 47.7102 222.665 47.7102 222.665 47.7103C222.665 47.7103 222.665 47.7103 222.665 47.7103C222.665 47.7103 222.665 47.7102 222.665 47.7102C222.664 47.7101 222.664 47.7099 222.664 47.7096C222.664 47.7091 222.663 47.7082 222.662 47.7069C222.661 47.7044 222.658 47.7005 222.655 47.6951C222.647 47.6845 222.637 47.6682 222.622 47.6465C222.593 47.603 222.549 47.5377 222.491 47.4516C222.375 47.2793 222.202 47.0238 221.977 46.6936C221.525 46.0329 220.862 45.0733 220.018 43.8816L222.466 42.1486ZM77.5568 117.449L80.5538 117.582L77.5568 117.449ZM128.367 86.0389L125.45 86.7396L128.367 86.0389ZM165.522 45.5259L162.528 45.7215L165.522 45.5259ZM226.855 47.4761C226.527 49.1 224.944 50.1501 223.32 49.8214L196.855 44.4657C195.231 44.1371 194.181 42.5542 194.509 40.9302C194.837 39.3063 196.419 38.2563 198.043 38.5849L221.568 43.3455L226.321 19.8222C226.649 18.1983 228.232 17.1483 229.856 17.4769C231.48 17.8056 232.53 19.3885 232.202 21.0124L226.855 47.4761ZM-10.3973 69.0034C-9.72512 70.518 -10.4078 72.2904 -11.9222 72.9621C-13.4366 73.6338 -15.2091 72.9505 -15.8813 71.4359L-10.3973 69.0034ZM-11.816 80.4045C-12.5111 78.9002 -11.8554 77.1177 -10.3514 76.423C-8.84742 75.7284 -7.06471 76.3847 -6.36959 77.8889L-11.816 80.4045ZM-2.22097 86.707C-1.50532 88.2016 -2.13654 89.9929 -3.63085 90.7081C-5.12515 91.4233 -6.91669 90.7915 -7.63234 89.297L-2.22097 86.707ZM-3.32699 98.1292C-4.06369 96.6449 -3.45785 94.8448 -1.9738 94.1085C-0.489751 93.3723 1.31052 93.9787 2.04722 95.463L-3.32699 98.1292ZM6.44552 104.159C7.20502 105.631 6.62701 107.441 5.1545 108.2C3.68199 108.959 1.87259 108.38 1.11309 106.907L6.44552 104.159ZM5.70803 115.634C4.92286 114.175 5.4691 112.355 6.92809 111.571C8.38708 110.786 10.2063 111.333 10.9915 112.792L5.70803 115.634ZM15.6864 121.314C16.5012 122.756 15.9924 124.586 14.5498 125.401C13.1072 126.215 11.2771 125.706 10.4622 124.263L15.6864 121.314ZM15.419 132.799C14.5685 131.377 15.0317 129.535 16.4536 128.685C17.8754 127.835 19.7176 128.298 20.5681 129.72L15.419 132.799ZM25.6715 137.97C26.5664 139.364 26.1614 141.22 24.767 142.114C23.3726 143.009 21.5168 142.603 20.6219 141.209L25.6715 137.97ZM26.1274 149.426C25.1749 148.07 25.5017 146.199 26.8574 145.246C28.2131 144.294 30.0842 144.622 31.0367 145.978L26.1274 149.426ZM36.8041 153.713C37.8373 155.009 37.625 156.896 36.3298 157.929C35.0346 158.962 33.147 158.749 32.1138 157.453L36.8041 153.713ZM38.72 165.019C37.5651 163.831 37.5919 161.932 38.7799 160.777C39.9679 159.622 41.8672 159.65 43.0221 160.838L38.72 165.019ZM49.9804 166.889C51.3447 167.83 51.6887 169.698 50.7486 171.062C49.8085 172.426 47.9404 172.77 46.5761 171.829L49.9804 166.889ZM57.0067 175.977C55.3537 175.864 54.1048 174.432 54.2174 172.779C54.3299 171.126 55.7611 169.878 57.4141 169.991L57.0067 175.977ZM63.6337 167.223C64.7571 166.005 66.655 165.929 67.8729 167.053C69.0907 168.177 69.1673 170.075 68.044 171.292L63.6337 167.223ZM73.5072 162.042C72.8939 163.581 71.1489 164.331 69.6098 163.717C68.0707 163.103 67.3201 161.358 67.9335 159.819L73.5072 162.042ZM70.6701 150.788C71.0449 149.174 72.6571 148.17 74.271 148.546C75.8848 148.921 76.8893 150.534 76.5145 152.147L70.6701 150.788ZM78.359 142.257C78.116 143.896 76.5904 145.027 74.9515 144.783C73.3125 144.54 72.1809 143.014 72.4239 141.375L78.359 142.257ZM73.5639 131.912C73.7225 130.263 75.1881 129.055 76.8373 129.214C78.4865 129.373 79.6949 130.839 79.5362 132.488L73.5639 131.912ZM80.2864 122.745C80.1877 124.399 78.7669 125.659 77.113 125.56C75.4591 125.461 74.1984 124.039 74.2971 122.385L80.2864 122.745ZM74.7983 112.276C74.8819 110.622 76.291 109.348 77.9458 109.432C79.6005 109.517 80.8742 110.926 80.7906 112.581L74.7983 112.276ZM81.3382 102.997C81.232 104.65 79.8056 105.904 78.1522 105.797C76.4987 105.691 75.2444 104.264 75.3505 102.611L81.3382 102.997ZM76.0565 92.8488C76.1903 91.1974 77.6376 89.9676 79.289 90.102C80.9404 90.2364 82.1707 91.684 82.0368 93.3354L76.0565 92.8488ZM82.9206 83.655C82.7518 85.3032 81.2787 86.502 79.6305 86.3326C77.9823 86.1632 76.7831 84.6898 76.9519 83.0416L82.9206 83.655ZM78.0817 73.2848C78.2961 71.642 79.8018 70.4845 81.4447 70.6995C83.0876 70.9144 84.2456 72.4205 84.0311 74.0634L78.0817 73.2848ZM85.4412 64.5934C85.1639 66.2269 83.6149 67.3258 81.9814 67.0479C80.3479 66.7701 79.2485 65.2207 79.5258 63.5873L85.4412 64.5934ZM81.4577 53.8267C81.831 52.2126 83.4423 51.2071 85.0565 51.581C86.6707 51.9549 87.6767 53.5665 87.3033 55.1806L81.4577 53.8267ZM89.8396 46.151C89.2982 47.7167 87.5898 48.5467 86.024 48.0047C84.4581 47.4628 83.6276 45.7542 84.169 44.1885L89.8396 46.151ZM88.6981 34.6729C89.6396 33.3098 91.5081 32.9684 92.8714 33.9104C94.2348 34.8523 94.5767 36.7209 93.6352 38.084L88.6981 34.6729ZM98.6657 34.835C97.0292 34.5757 95.9123 33.0389 96.1711 31.4024C96.4299 29.766 97.9663 28.6496 99.6028 28.9089L98.6657 34.835ZM109.287 35.3104C110.372 36.563 110.236 38.4576 108.984 39.5421C107.731 40.6266 105.837 40.4903 104.752 39.2376L109.287 35.3104ZM109.991 46.7951C109.156 45.3637 109.639 43.5269 111.07 42.6923C112.501 41.8577 114.338 42.3415 115.173 43.7728L109.991 46.7951ZM119.781 52.6484C120.482 54.1496 119.834 55.9349 118.333 56.636C116.832 57.3372 115.047 56.6886 114.345 55.1874L119.781 52.6484ZM118.118 63.9813C117.509 62.4403 118.265 60.6977 119.805 60.0891C121.346 59.4805 123.089 60.2364 123.698 61.7774L118.118 63.9813ZM127.099 71.0662C127.629 72.6359 126.787 74.3383 125.218 74.8687C123.648 75.399 121.946 74.5565 121.415 72.9868L127.099 71.0662ZM124.257 82.1648C123.811 80.5688 124.743 78.9142 126.339 78.469C127.935 78.0239 129.59 78.9568 130.036 80.5527L124.257 82.1648ZM132.502 89.6301C133.018 91.2047 132.16 92.8992 130.586 93.4148C129.011 93.9304 127.317 93.0719 126.801 91.4973L132.502 89.6301ZM130.636 100.615C129.867 99.1474 130.434 97.3345 131.901 96.5661C133.369 95.7976 135.182 96.3647 135.951 97.8326L130.636 100.615ZM140.75 105.134C141.813 106.406 141.643 108.298 140.372 109.36C139.101 110.422 137.209 110.253 136.147 108.981L140.75 105.134ZM144.282 115.753C142.796 115.019 142.186 113.22 142.918 111.735C143.651 110.249 145.45 109.639 146.936 110.372L144.282 115.753ZM153.073 110.494C154.504 109.659 156.341 110.141 157.177 111.572C158.013 113.003 157.531 114.84 156.101 115.676L153.073 110.494ZM163.161 107.239C162.444 108.733 160.652 109.363 159.158 108.645C157.664 107.928 157.034 106.136 157.751 104.643L163.161 107.239ZM160.556 96.3163C160.939 94.7045 162.557 93.7091 164.169 94.093C165.781 94.4769 166.776 96.0947 166.393 97.7065L160.556 96.3163ZM168.083 88.1349C167.876 89.7787 166.375 90.9428 164.731 90.735C163.088 90.5273 161.923 89.0263 162.13 87.3825L168.083 88.1349ZM162.946 78.292C163.043 76.638 164.462 75.3757 166.116 75.4726C167.77 75.5695 169.033 76.9889 168.936 78.6429L162.946 78.292ZM169.254 69.059C169.236 70.7158 167.879 72.0444 166.222 72.0265C164.566 72.0086 163.237 70.651 163.254 68.9943L169.254 69.059ZM163.18 59.7557C163.138 58.0993 164.447 56.7233 166.103 56.6823C167.76 56.6413 169.136 57.9508 169.178 59.6072L163.18 59.7557ZM168.802 50.1449C168.89 51.7995 167.621 53.2118 165.966 53.2995C164.312 53.3872 162.899 52.117 162.811 50.4625L168.802 50.1449ZM162.259 40.8082C162.187 39.1529 163.471 37.7532 165.126 37.6819C166.781 37.6107 168.181 38.8948 168.253 40.5502L162.259 40.8082ZM168.103 31.3427C168.078 32.9993 166.715 34.3218 165.058 34.2965C163.402 34.2712 162.079 32.9077 162.104 31.251L168.103 31.3427ZM162.676 21.5554C162.861 19.909 164.346 18.7251 165.993 18.911C167.639 19.097 168.824 20.5824 168.638 22.2288L162.676 21.5554ZM170.362 13.6122C169.85 15.1879 168.158 16.0499 166.582 15.5375C165.006 15.0252 164.143 13.3325 164.655 11.7569L170.362 13.6122ZM170.62 2.43042C171.946 1.43846 173.827 1.71016 174.819 3.03727C175.811 4.36439 175.54 6.24437 174.213 7.23633L170.62 2.43042ZM180.539 6.63197C178.954 6.14854 178.06 4.47193 178.543 2.88716C179.026 1.30239 180.703 0.409585 182.287 0.89302L180.539 6.63197ZM191.46 5.71168C192.81 6.67338 193.125 8.54673 192.163 9.89593C191.202 11.2451 189.329 11.5593 187.979 10.5976L191.46 5.71168ZM194.915 16.3639C193.705 15.2315 193.642 13.333 194.774 12.1235C195.907 10.9141 197.805 10.8516 199.015 11.9841L194.915 16.3639ZM205.801 18.8746C206.921 20.0953 206.84 21.9931 205.62 23.1134C204.4 24.2338 202.502 24.1524 201.381 22.9317L205.801 18.8746ZM207.478 29.9428C206.421 28.6663 206.599 26.7752 207.875 25.7189C209.151 24.6626 211.042 24.8411 212.099 26.1176L207.478 29.9428ZM218.041 33.601C219.046 34.9182 218.794 36.8008 217.477 37.8059C216.16 38.811 214.278 38.5579 213.272 37.2407L218.041 33.601ZM218.794 44.7481C217.837 43.3956 218.156 41.5233 219.509 40.5663C220.861 39.6091 222.733 39.9297 223.691 41.2821L218.794 44.7481ZM-15.0741 65.7956C-12.3142 64.6205 -12.3143 64.6205 -12.3143 64.6205C-12.3143 64.6205 -12.3143 64.6205 -12.3143 64.6205C-12.3143 64.6205 -12.3143 64.6205 -12.3142 64.6205C-12.3142 64.6206 -12.3141 64.6208 -12.314 64.6211C-12.3137 64.6217 -12.3133 64.6227 -12.3127 64.6241C-12.3116 64.6268 -12.3097 64.6311 -12.3072 64.6369C-12.3023 64.6486 -12.2946 64.6665 -12.2844 64.6904C-12.2639 64.7382 -12.233 64.8104 -12.1918 64.9061C-12.1095 65.0974 -11.9864 65.3829 -11.8242 65.7563C-11.4998 66.5032 -11.0193 67.602 -10.3973 69.0034L-15.8813 71.4359C-16.5101 70.019 -16.997 68.9057 -17.3273 68.1452C-17.4925 67.7649 -17.6185 67.4728 -17.7036 67.275C-17.7461 67.1761 -17.7784 67.1008 -17.8002 67.0498C-17.8111 67.0243 -17.8194 67.0049 -17.8251 66.9917C-17.8279 66.9851 -17.8301 66.98 -17.8316 66.9765C-17.8323 66.9748 -17.8329 66.9734 -17.8333 66.9724C-17.8335 66.972 -17.8337 66.9716 -17.8338 66.9713C-17.8339 66.9711 -17.8339 66.971 -17.8339 66.9709C-17.834 66.9709 -17.834 66.9708 -17.834 66.9708C-17.834 66.9707 -17.834 66.9707 -15.0741 65.7956ZM-6.36959 77.8889C-5.14299 80.5432 -3.75206 83.5096 -2.22097 86.707L-7.63234 89.297C-9.17632 86.0726 -10.5789 83.0813 -11.816 80.4045L-6.36959 77.8889ZM2.04722 95.463C3.44233 98.2739 4.91248 101.186 6.44552 104.159L1.11309 106.907C-0.435276 103.905 -1.91936 100.965 -3.32699 98.1292L2.04722 95.463ZM10.9915 112.792C12.516 115.625 14.0841 118.477 15.6864 121.314L10.4622 124.263C8.83803 121.387 7.25004 118.5 5.70803 115.634L10.9915 112.792ZM20.5681 129.72C22.2489 132.531 23.9534 135.292 25.6715 137.97L20.6219 141.209C18.866 138.472 17.1283 135.657 15.419 132.799L20.5681 129.72ZM31.0367 145.978C32.9646 148.722 34.8917 151.315 36.8041 153.713L32.1138 157.453C30.1133 154.945 28.1132 152.253 26.1274 149.426L31.0367 145.978ZM43.0221 160.838C45.4478 163.334 47.7776 165.371 49.9804 166.889L46.5761 171.829C43.9593 170.025 41.3302 167.705 38.72 165.019L43.0221 160.838ZM57.4141 169.991C59.5542 170.137 61.6013 169.425 63.6337 167.223L68.044 171.292C64.9046 174.695 61.1373 176.259 57.0067 175.977L57.4141 169.991ZM67.9335 159.819C68.9257 157.329 69.8455 154.338 70.6701 150.788L76.5145 152.147C75.6378 155.922 74.635 159.212 73.5072 162.042L67.9335 159.819ZM72.4239 141.375C72.8547 138.469 73.2361 135.319 73.5639 131.912L79.5362 132.488C79.1999 135.985 78.8066 139.238 78.359 142.257L72.4239 141.375ZM74.2971 122.385C74.3952 120.743 74.4828 119.053 74.5598 117.315L80.5538 117.582C80.4756 119.35 80.3864 121.071 80.2864 122.745L74.2971 122.385ZM74.5598 117.315C74.6355 115.605 74.715 113.926 74.7983 112.276L80.7906 112.581C80.708 114.218 80.629 115.885 80.5538 117.582L74.5598 117.315ZM75.3505 102.611C75.5684 99.2158 75.804 95.9634 76.0565 92.8488L82.0368 93.3354C81.7872 96.4145 81.554 99.6334 81.3382 102.997L75.3505 102.611ZM76.9519 83.0416C77.3051 79.5945 77.6822 76.3449 78.0817 73.2848L84.0311 74.0634C83.6395 77.0637 83.2687 80.258 82.9206 83.655L76.9519 83.0416ZM79.5258 63.5873C80.132 60.017 80.777 56.7697 81.4577 53.8267L87.3033 55.1806C86.653 57.992 86.0305 61.1219 85.4412 64.5934L79.5258 63.5873ZM84.169 44.1885C85.5338 40.2416 87.0365 37.0785 88.6981 34.6729L93.6352 38.084C92.3855 39.8932 91.0976 42.5129 89.8396 46.151L84.169 44.1885ZM99.6028 28.9089C103.283 29.492 106.538 32.137 109.287 35.3104L104.752 39.2376C102.275 36.3779 100.205 35.079 98.6657 34.835L99.6028 28.9089ZM115.173 43.7728C116.779 46.5252 118.322 49.528 119.781 52.6484L114.345 55.1874C112.947 52.1951 111.486 49.3587 109.991 46.7951L115.173 43.7728ZM123.698 61.7774C124.931 64.8958 126.071 68.0287 127.099 71.0662L121.415 72.9868C120.418 70.0387 119.312 67.0005 118.118 63.9813L123.698 61.7774ZM130.036 80.5527C130.505 82.2347 130.923 83.8388 131.284 85.3382L125.45 86.7396C125.108 85.3179 124.709 83.7844 124.257 82.1648L130.036 80.5527ZM131.284 85.3382C131.634 86.7914 132.042 88.2258 132.502 89.6301L126.801 91.4973C126.291 89.9423 125.838 88.3526 125.45 86.7396L131.284 85.3382ZM135.951 97.8326C137.409 100.617 139.041 103.09 140.75 105.134L136.147 108.981C134.126 106.564 132.265 103.724 130.636 100.615L135.951 97.8326ZM146.936 110.372C149.308 111.543 151.306 111.527 153.073 110.494L156.101 115.676C152.216 117.945 148.031 117.603 144.282 115.753L146.936 110.372ZM157.751 104.643C158.785 102.488 159.741 99.7441 160.556 96.3163L166.393 97.7065C165.504 101.444 164.422 104.611 163.161 107.239L157.751 104.643ZM162.13 87.3825C162.478 84.6235 162.754 81.5988 162.946 78.292L168.936 78.6429C168.737 82.0681 168.45 85.2277 168.083 88.1349L162.13 87.3825ZM163.254 68.9943C163.285 66.0869 163.261 63.0096 163.18 59.7557L169.178 59.6072C169.261 62.927 169.285 66.0755 169.254 69.059L163.254 68.9943ZM162.811 50.4625C162.728 48.9163 162.634 47.3361 162.528 45.7215L168.515 45.3302C168.623 46.9687 168.718 48.5735 168.802 50.1449L162.811 50.4625ZM162.528 45.7215C162.417 44.0268 162.327 42.3895 162.259 40.8082L168.253 40.5502C168.32 42.0846 168.407 43.6775 168.515 45.3302L162.528 45.7215ZM162.104 31.251C162.157 27.6646 162.351 24.4407 162.676 21.5554L168.638 22.2288C168.339 24.888 168.154 27.9145 168.103 31.3427L162.104 31.251ZM164.655 11.7569C166.009 7.58901 167.958 4.42023 170.62 2.43042L174.213 7.23633C172.891 8.22518 171.493 10.1299 170.362 13.6122L164.655 11.7569ZM182.287 0.89302C185.344 1.8252 188.448 3.56467 191.46 5.71168L187.979 10.5976C185.254 8.65539 182.745 7.30494 180.539 6.63197L182.287 0.89302ZM199.015 11.9841C201.327 14.1482 203.607 16.4849 205.801 18.8746L201.381 22.9317C199.267 20.6287 197.094 18.4038 194.915 16.3639L199.015 11.9841ZM212.099 26.1176C214.254 28.7215 216.258 31.265 218.041 33.601L213.272 37.2407C211.529 34.9568 209.575 32.4762 207.478 29.9428L212.099 26.1176ZM223.691 41.2821C224.55 42.4958 225.227 43.4758 225.691 44.1548C225.923 44.4943 226.102 44.7587 226.224 44.9394C226.285 45.0298 226.331 45.0993 226.363 45.1468C226.379 45.1706 226.391 45.1889 226.4 45.2016C226.404 45.2079 226.407 45.2128 226.409 45.2164C226.411 45.2181 226.412 45.2195 226.412 45.2206C226.413 45.2211 226.413 45.2215 226.413 45.2219C226.413 45.222 226.413 45.2222 226.413 45.2223C226.413 45.2224 226.414 45.2224 226.414 45.2225C226.414 45.2226 226.414 45.2226 223.914 46.881C221.415 48.5394 221.415 48.5395 221.415 48.5395C221.415 48.5395 221.415 48.5396 221.415 48.5396C221.415 48.5396 221.415 48.5396 221.415 48.5396C221.415 48.5396 221.415 48.5395 221.415 48.5393C221.415 48.5389 221.414 48.5382 221.413 48.5371C221.412 48.5349 221.409 48.5313 221.406 48.5263C221.399 48.5163 221.389 48.5007 221.375 48.4797C221.347 48.4376 221.304 48.3736 221.247 48.2889C221.133 48.1195 220.962 47.867 220.738 47.5398C220.291 46.8853 219.633 45.9324 218.794 44.7481L223.691 41.2821Z" fill="#BBBBBB"/>
</svg>
