<svg width="231" height="177" viewBox="0 0 231 177" fill="none" xmlns="http://www.w3.org/2000/svg">
<path d="M144.114 117.917L145.613 117.853L144.114 117.917ZM97.66 86.3986L96.1943 86.0797L97.66 86.3986ZM8.89105 47.3947C9.08923 48.1991 9.90196 48.6905 10.7063 48.4923L23.8143 45.2628C24.6187 45.0646 25.1101 44.2519 24.9119 43.4475C24.7138 42.6431 23.901 42.1517 23.0967 42.3499L11.4451 45.2206L8.57437 33.569C8.37619 32.7647 7.56345 32.2733 6.75908 32.4714C5.95471 32.6696 5.4633 33.4823 5.66147 34.2867L8.89105 47.3947ZM225.44 70.278C225.131 71.0463 225.502 71.9203 226.27 72.2301C227.039 72.54 227.913 72.1684 228.223 71.4001L225.44 70.278ZM224.568 80.2721C224.889 79.5083 224.529 78.6291 223.766 78.3083C223.002 77.9875 222.123 78.3466 221.802 79.1104L224.568 80.2721ZM218.061 87.8601C217.73 88.6197 218.078 89.5035 218.838 89.834C219.598 90.1646 220.481 89.8167 220.812 89.0571L218.061 87.8601ZM216.934 97.8107C217.275 97.0555 216.939 96.1673 216.184 95.8267C215.428 95.4861 214.54 95.8221 214.2 96.5773L216.934 97.8107ZM210.222 105.233C209.87 105.983 210.193 106.876 210.943 107.227C211.694 107.579 212.587 107.256 212.938 106.505L210.222 105.233ZM208.798 115.159C209.162 114.414 208.854 113.516 208.109 113.152C207.365 112.789 206.467 113.097 206.103 113.841L208.798 115.159ZM201.84 122.36C201.462 123.097 201.753 124.001 202.49 124.379C203.227 124.757 204.131 124.466 204.509 123.729L201.84 122.36ZM200.034 132.213C200.43 131.485 200.16 130.575 199.432 130.179C198.704 129.784 197.793 130.054 197.398 130.782L200.034 132.213ZM192.739 139.075C192.322 139.791 192.564 140.709 193.28 141.126C193.996 141.543 194.914 141.301 195.331 140.585L192.739 139.075ZM190.347 148.78C190.792 148.081 190.587 147.154 189.889 146.708C189.19 146.263 188.263 146.468 187.818 147.167L190.347 148.78ZM182.496 155.03C182.01 155.701 182.161 156.638 182.832 157.124C183.503 157.61 184.441 157.46 184.926 156.789L182.496 155.03ZM178.921 164.362C179.47 163.741 179.411 162.793 178.79 162.244C178.169 161.696 177.221 161.754 176.673 162.375L178.921 164.362ZM169.968 168.753C169.305 169.25 169.169 170.19 169.666 170.853C170.162 171.516 171.102 171.652 171.765 171.155L169.968 168.753ZM162.209 175.016C163.037 175.012 163.705 174.337 163.701 173.509C163.697 172.681 163.023 172.012 162.194 172.016L162.209 175.016ZM155.456 168.001C154.964 167.335 154.025 167.193 153.359 167.685C152.692 168.177 152.55 169.116 153.042 169.783L155.456 168.001ZM148.693 160.945C148.962 161.729 149.815 162.146 150.599 161.877C151.382 161.608 151.799 160.755 151.53 159.971L148.693 160.945ZM149.105 150.824C148.938 150.013 148.145 149.49 147.333 149.657C146.522 149.824 145.999 150.617 146.166 151.429L149.105 150.824ZM144.58 141.922C144.69 142.744 145.445 143.32 146.266 143.21C147.087 143.1 147.664 142.345 147.554 141.524L144.58 141.922ZM146.526 132.163C146.453 131.338 145.725 130.728 144.9 130.801C144.074 130.874 143.465 131.602 143.537 132.427L146.526 132.163ZM142.863 122.997C142.909 123.825 143.618 124.457 144.445 124.411C145.272 124.364 145.905 123.656 145.858 122.829L142.863 122.997ZM145.388 112.894C145.348 112.067 144.645 111.428 143.818 111.468C142.99 111.508 142.352 112.211 142.392 113.039L145.388 112.894ZM141.88 103.577C141.93 104.404 142.64 105.034 143.467 104.984C144.294 104.934 144.924 104.223 144.874 103.396L141.88 103.577ZM144.222 93.7742C144.16 92.9481 143.44 92.329 142.614 92.3915C141.788 92.4539 141.168 93.1742 141.231 94.0002L144.222 93.7742ZM140.419 84.4167C140.497 85.2415 141.229 85.8468 142.054 85.7687C142.879 85.6907 143.484 84.9588 143.406 84.1341L140.419 84.4167ZM142.385 74.5475C142.287 73.7249 141.541 73.1378 140.718 73.2361C139.895 73.3344 139.308 74.0809 139.407 74.9035L142.385 74.5475ZM138.127 65.4742C138.253 66.293 139.019 66.8545 139.838 66.7284C140.657 66.6023 141.218 65.8364 141.092 65.0176L138.127 65.4742ZM139.403 55.5352C139.235 54.7239 138.441 54.2022 137.63 54.3699C136.819 54.5376 136.297 55.3312 136.465 56.1425L139.403 55.5352ZM134.164 46.9106C134.405 47.7032 135.243 48.1504 136.035 47.9094C136.828 47.6685 137.275 46.8306 137.034 46.038L134.164 46.9106ZM133.323 36.9208C132.913 36.2014 131.997 35.951 131.277 36.3617C130.558 36.7724 130.307 37.6886 130.718 38.4081L133.323 36.9208ZM124.848 33.7308C125.673 33.6655 126.29 32.9431 126.225 32.1172C126.159 31.2914 125.437 30.6748 124.611 30.7401L124.848 33.7308ZM115.916 36.6915C115.401 37.3404 115.509 38.2839 116.158 38.799C116.807 39.314 117.75 39.2056 118.265 38.5568L115.916 36.6915ZM113.276 46.4449C113.664 45.7129 113.385 44.805 112.653 44.417C111.921 44.029 111.013 44.3079 110.625 45.0398L113.276 46.4449ZM106.482 53.8307C106.159 54.5934 106.515 55.4738 107.278 55.7972C108.04 56.1206 108.921 55.7644 109.244 55.0017L106.482 53.8307ZM105.79 63.8798C106.069 63.0999 105.663 62.2412 104.884 61.9618C104.104 61.6824 103.245 62.0881 102.966 62.868L105.79 63.8798ZM99.9198 72.0491C99.6772 72.8412 100.123 73.68 100.915 73.9227C101.707 74.1653 102.546 73.7199 102.788 72.9278L99.9198 72.0491ZM100.21 82.1258C100.413 81.3226 99.926 80.507 99.1228 80.304C98.3197 80.101 97.504 80.5876 97.3011 81.3908L100.21 82.1258ZM95.0737 90.4453C94.8382 91.2395 95.2913 92.0743 96.0855 92.3097C96.8798 92.5451 97.7145 92.0921 97.95 91.2978L95.0737 90.4453ZM94.5847 100.134C94.9399 99.3856 94.6211 98.491 93.8726 98.1358C93.1242 97.7806 92.2296 98.0994 91.8744 98.8478L94.5847 100.134ZM87.3125 106.48C86.8104 107.139 86.9376 108.08 87.5965 108.583C88.2554 109.085 89.1966 108.957 89.6987 108.299L87.3125 106.48ZM82.3754 114.868C83.1145 114.494 83.4105 113.591 83.0364 112.852C82.6624 112.113 81.7599 111.817 81.0207 112.191L82.3754 114.868ZM73.9827 111.689C73.3329 111.175 72.3896 111.285 71.8758 111.935C71.3619 112.585 71.4722 113.528 72.122 114.042L73.9827 111.689ZM66.6208 105.85C66.9304 106.618 67.8043 106.99 68.5727 106.681C69.3411 106.371 69.7131 105.497 69.4035 104.729L66.6208 105.85ZM66.9186 96.1301C66.7509 95.3188 65.9572 94.7971 65.146 94.9649C64.3347 95.1326 63.813 95.9262 63.9807 96.7375L66.9186 96.1301ZM62.549 87.477C62.6407 88.3003 63.3825 88.8935 64.2058 88.8018C65.0292 88.7101 65.6223 87.9683 65.5306 87.145L62.549 87.477ZM64.8063 78.0613C64.7632 77.234 64.0576 76.5982 63.2303 76.6413C62.403 76.6844 61.7673 77.39 61.8104 78.2173L64.8063 78.0613ZM61.5309 68.9107C61.5393 69.7391 62.2176 70.4039 63.046 70.3955C63.8744 70.3871 64.5392 69.7088 64.5308 68.8804L61.5309 68.9107ZM64.5888 59.7433C64.6067 58.915 63.9497 58.2292 63.1214 58.2114C62.2932 58.1936 61.6074 58.8505 61.5895 59.6788L64.5888 59.7433ZM61.9091 50.4306C61.8704 51.2582 62.5099 51.9603 63.3375 51.999C64.165 52.0377 64.8672 51.3982 64.9059 50.5707L61.9091 50.4306ZM65.4114 40.2622C65.4395 39.4343 64.7911 38.7403 63.9632 38.7122C63.1352 38.6841 62.4412 39.3325 62.4131 40.1605L65.4114 40.2622ZM62.452 29.3988C62.4789 30.2268 63.172 30.8762 64 30.8493C64.828 30.8223 65.4774 30.1293 65.4504 29.3013L62.452 29.3988ZM64.473 18.2341C64.3412 17.4162 63.5714 16.8599 62.7535 16.9917C61.9356 17.1234 61.3794 17.8933 61.5112 18.7112L64.473 18.2341ZM58.4186 8.81009C58.8401 9.52325 59.7599 9.75965 60.4731 9.33811C61.1863 8.91658 61.4227 7.99672 61.0011 7.28357L58.4186 8.81009ZM50.3365 2.12238C49.5236 2.28196 48.994 3.07031 49.1536 3.88323C49.3131 4.69614 50.1015 5.22577 50.9144 5.0662L50.3365 2.12238ZM41.9862 9.89801C42.6336 9.38113 42.7394 8.43729 42.2225 7.7899C41.7056 7.1425 40.7618 7.0367 40.1144 7.55359L41.9862 9.89801ZM32.0021 15.2404C31.439 15.848 31.475 16.797 32.0826 17.3602C32.6902 17.9233 33.6393 17.8872 34.2024 17.2796L32.0021 15.2404ZM27.1732 25.5333C27.6877 24.884 27.5784 23.9405 26.9291 23.426C26.2798 22.9116 25.3364 23.0209 24.8219 23.6702L27.1732 25.5333ZM18.2116 32.491C17.7311 33.1658 17.8886 34.1024 18.5634 34.583C19.2382 35.0635 20.1748 34.906 20.6554 34.2312L18.2116 32.491ZM14.508 43.265C14.9595 42.5704 14.7626 41.6413 14.068 41.1898C13.3735 40.7382 12.4444 40.9352 11.9929 41.6297L14.508 43.265ZM228.569 66.4671C227.17 65.9255 227.17 65.9255 227.17 65.9255C227.17 65.9255 227.17 65.9255 227.17 65.9255C227.17 65.9255 227.17 65.9256 227.17 65.9257C227.17 65.9258 227.17 65.9261 227.17 65.9264C227.17 65.9271 227.169 65.9281 227.169 65.9296C227.168 65.9325 227.166 65.9369 227.164 65.9429C227.159 65.9548 227.152 65.9729 227.143 65.9969C227.124 66.045 227.096 66.1171 227.059 66.2124C226.984 66.4031 226.873 66.6868 226.726 67.0576C226.434 67.7991 226.001 68.8887 225.44 70.278L228.223 71.4001C228.786 70.0035 229.222 68.907 229.517 68.159C229.665 67.785 229.777 67.4982 229.853 67.3044C229.891 67.2075 229.919 67.134 229.939 67.0844C229.948 67.0596 229.956 67.0409 229.96 67.0282C229.963 67.0219 229.965 67.0171 229.966 67.0138C229.967 67.0122 229.967 67.0109 229.967 67.0101C229.968 67.0096 229.968 67.0093 229.968 67.0091C229.968 67.0089 229.968 67.0088 229.968 67.0088C229.968 67.0087 229.968 67.0087 229.968 67.0087C229.968 67.0086 229.968 67.0086 228.569 66.4671ZM221.802 79.1104C220.696 81.7437 219.442 84.6868 218.061 87.8601L220.812 89.0571C222.198 85.871 223.457 82.9161 224.568 80.2721L221.802 79.1104ZM214.2 96.5773C212.938 99.3738 211.609 102.272 210.222 105.233L212.938 106.505C214.332 103.531 215.668 100.619 216.934 97.8107L214.2 96.5773ZM206.103 113.841C204.72 116.672 203.296 119.522 201.84 122.36L204.509 123.729C205.975 120.872 207.407 118.005 208.798 115.159L206.103 113.841ZM197.398 130.782C195.865 133.604 194.309 136.38 192.739 139.075L195.331 140.585C196.918 137.861 198.489 135.059 200.034 132.213L197.398 130.782ZM187.818 147.167C186.043 149.95 184.265 152.586 182.496 155.03L184.926 156.789C186.735 154.289 188.546 151.604 190.347 148.78L187.818 147.167ZM176.673 162.375C174.361 164.992 172.115 167.147 169.968 168.753L171.765 171.155C174.126 169.389 176.521 167.078 178.921 164.362L176.673 162.375ZM162.194 172.016C159.881 172.028 157.613 170.925 155.456 168.001L153.042 169.783C155.621 173.277 158.715 175.033 162.209 175.016L162.194 172.016ZM151.53 159.971C150.644 157.39 149.831 154.354 149.105 150.824L146.166 151.429C146.912 155.055 147.757 158.218 148.693 160.945L151.53 159.971ZM147.554 141.524C147.166 138.636 146.823 135.519 146.526 132.163L143.537 132.427C143.838 135.823 144.186 138.985 144.58 141.922L147.554 141.524ZM145.858 122.829C145.767 121.216 145.685 119.557 145.613 117.853L142.616 117.98C142.689 119.698 142.771 121.37 142.863 122.997L145.858 122.829ZM145.613 117.853C145.541 116.171 145.466 114.518 145.388 112.894L142.392 113.039C142.469 114.656 142.544 116.304 142.616 117.98L145.613 117.853ZM144.874 103.396C144.672 100.051 144.454 96.8455 144.222 93.7742L141.231 94.0002C141.462 97.0556 141.678 100.246 141.88 103.577L144.874 103.396ZM143.406 84.1341C143.086 80.7496 142.745 77.5567 142.385 74.5475L139.407 74.9035C139.763 77.8861 140.101 81.0545 140.419 84.4167L143.406 84.1341ZM141.092 65.0176C140.559 61.5562 139.995 58.4013 139.403 55.5352L136.465 56.1425C137.045 58.9517 137.601 62.0558 138.127 65.4742L141.092 65.0176ZM137.034 46.038C135.884 42.2539 134.646 39.2374 133.323 36.9208L130.718 38.4081C131.894 40.4675 133.053 43.2581 134.164 46.9106L137.034 46.038ZM124.611 30.7401C121.421 30.9923 118.491 33.4478 115.916 36.6915L118.265 38.5568C120.75 35.4266 122.987 33.8779 124.848 33.7308L124.611 30.7401ZM110.625 45.0398C109.185 47.7564 107.797 50.7301 106.482 53.8307L109.244 55.0017C110.533 51.9623 111.884 49.0692 113.276 46.4449L110.625 45.0398ZM102.966 62.868C101.861 65.9503 100.839 69.047 99.9198 72.0491L102.788 72.9278C103.695 69.9675 104.702 66.9153 105.79 63.8798L102.966 62.868ZM97.3011 81.3908C96.8839 83.0414 96.5134 84.613 96.1943 86.0797L99.1257 86.7175C99.437 85.2865 99.7998 83.7475 100.21 82.1258L97.3011 81.3908ZM96.1943 86.0797C95.8726 87.5584 95.497 89.0172 95.0737 90.4453L97.95 91.2978C98.394 89.7999 98.7881 88.2694 99.1257 86.7175L96.1943 86.0797ZM91.8744 98.8478C90.5007 101.743 88.9514 104.329 87.3125 106.48L89.6987 108.299C91.4829 105.957 93.1363 103.186 94.5847 100.134L91.8744 98.8478ZM81.0207 112.191C79.7224 112.848 78.4982 113.129 77.363 113.061C76.2406 112.993 75.1089 112.579 73.9827 111.689L72.122 114.042C73.6877 115.28 75.3967 115.948 77.183 116.055C78.9566 116.162 80.7093 115.711 82.3754 114.868L81.0207 112.191ZM69.4035 104.729C68.4711 102.415 67.6298 99.57 66.9186 96.1301L63.9807 96.7375C64.7191 100.309 65.6066 103.333 66.6208 105.85L69.4035 104.729ZM65.5306 87.145C65.2218 84.372 64.9776 81.3488 64.8063 78.0613L61.8104 78.2173C61.9843 81.5569 62.233 84.6391 62.549 87.477L65.5306 87.145ZM64.5308 68.8804C64.5017 65.9985 64.5198 62.9549 64.5888 59.7433L61.5895 59.6788C61.5198 62.9197 61.5015 65.995 61.5309 68.9107L64.5308 68.8804ZM64.9059 50.5707C64.9772 49.0445 65.0587 47.4857 65.1507 45.8938L62.1557 45.7207C62.0631 47.3233 61.981 48.8931 61.9091 50.4306L64.9059 50.5707ZM65.1507 45.8938C65.2637 43.9391 65.3503 42.0627 65.4114 40.2622L62.4131 40.1605C62.3529 41.9356 62.2674 43.7882 62.1557 45.7207L65.1507 45.8938ZM65.4504 29.3013C65.3124 25.0546 64.9802 21.3826 64.473 18.2341L61.5112 18.7112C61.9936 21.7062 62.3171 25.2475 62.452 29.3988L65.4504 29.3013ZM61.0011 7.28357C59.7111 5.10105 58.1276 3.56688 56.2603 2.70624C54.3889 1.84375 52.3731 1.72259 50.3365 2.12238L50.9144 5.0662C52.4628 4.76226 53.8164 4.88317 55.0046 5.43079C56.1967 5.98025 57.363 7.02423 58.4186 8.81009L61.0011 7.28357ZM40.1144 7.55359C37.4045 9.71716 34.665 12.3672 32.0021 15.2404L34.2024 17.2796C36.8006 14.4763 39.4293 11.9395 41.9862 9.89801L40.1144 7.55359ZM24.8219 23.6702C22.4428 26.6727 20.2079 29.6877 18.2116 32.491L20.6554 34.2312C22.6283 31.4606 24.8323 28.4878 27.1732 25.5333L24.8219 23.6702ZM11.9929 41.6297C11.07 43.0491 10.3394 44.2039 9.83881 45.005C9.58849 45.4056 9.3956 45.7179 9.2649 45.9307C9.19954 46.0371 9.14972 46.1187 9.11601 46.174C9.09918 46.2016 9.08635 46.2227 9.07765 46.2371C9.07328 46.2443 9.06996 46.2498 9.06766 46.2535C9.06652 46.2554 9.06562 46.2569 9.06499 46.2579C9.06468 46.2585 9.06443 46.2589 9.06425 46.2592C9.06415 46.2593 9.06408 46.2595 9.06402 46.2596C9.06399 46.2596 9.06396 46.2597 9.06394 46.2597C9.06391 46.2597 9.06388 46.2598 10.3475 47.0359C11.6311 47.812 11.6311 47.812 11.6311 47.8121C11.6311 47.8121 11.6311 47.8121 11.6311 47.8121C11.6311 47.8121 11.6311 47.812 11.6311 47.812C11.6312 47.8118 11.6313 47.8116 11.6316 47.8113C11.632 47.8106 11.6326 47.8095 11.6336 47.8079C11.6354 47.8049 11.6383 47.8001 11.6422 47.7936C11.65 47.7807 11.662 47.7611 11.6779 47.735C11.7098 47.6827 11.7578 47.6041 11.8212 47.5009C11.9481 47.2943 12.1369 46.9885 12.383 46.5948C12.8751 45.8072 13.596 44.6677 14.508 43.265L11.9929 41.6297ZM144.114 117.917L147.111 117.789L144.114 117.917ZM97.66 86.3986L94.7286 85.7608L94.7286 85.7608L97.66 86.3986ZM7.4346 47.7536C7.83097 49.3623 9.45642 50.3451 11.0652 49.9488L37.2812 43.4897C38.8899 43.0933 39.8728 41.4678 39.4764 39.8591C39.08 38.2503 37.4546 37.2675 35.8458 37.6639L12.5427 43.4053L6.80125 20.1022C6.40488 18.4934 4.77942 17.5106 3.17066 17.907C1.56192 18.3034 0.579096 19.9288 0.975462 21.5376L7.4346 47.7536ZM224.049 69.7169C223.43 71.2535 224.173 73.0015 225.709 73.6213C227.246 74.241 228.994 73.4977 229.614 71.9611L224.049 69.7169ZM225.951 80.8529C226.592 79.3253 225.874 77.5668 224.346 76.9253C222.819 76.2837 221.06 77.002 220.419 78.5296L225.951 80.8529ZM216.686 87.2616C216.024 88.7808 216.72 90.5484 218.239 91.2095C219.759 91.8705 221.526 91.1749 222.187 89.6556L216.686 87.2616ZM218.302 98.4274C218.983 96.9171 218.311 95.1405 216.8 94.4593C215.29 93.7781 213.513 94.4503 212.832 95.9606L218.302 98.4274ZM208.863 104.596C208.16 106.096 208.807 107.883 210.307 108.586C211.807 109.289 213.593 108.642 214.296 107.142L208.863 104.596ZM210.146 115.817C210.874 114.329 210.257 112.532 208.768 111.805C207.28 111.077 205.483 111.694 204.756 113.183L210.146 115.817ZM200.505 121.675C199.749 123.149 200.331 124.957 201.805 125.714C203.279 126.47 205.088 125.888 205.844 124.414L200.505 121.675ZM201.353 132.929C202.143 131.473 201.604 129.652 200.148 128.861C198.692 128.07 196.871 128.61 196.08 130.066L201.353 132.929ZM191.443 138.32C190.609 139.752 191.093 141.589 192.525 142.423C193.957 143.257 195.793 142.772 196.627 141.34L191.443 138.32ZM191.612 149.586C192.503 148.189 192.092 146.334 190.695 145.444C189.298 144.553 187.444 144.963 186.553 146.36L191.612 149.586ZM181.281 154.15C180.31 155.492 180.61 157.368 181.952 158.339C183.294 159.311 185.17 159.01 186.141 157.668L181.281 154.15ZM180.045 165.355C181.142 164.113 181.025 162.217 179.783 161.12C178.542 160.023 176.646 160.14 175.549 161.382L180.045 165.355ZM169.07 167.552C167.743 168.545 167.472 170.425 168.465 171.752C169.457 173.078 171.337 173.349 172.664 172.357L169.07 167.552ZM162.216 176.516C163.873 176.508 165.209 175.159 165.201 173.502C165.193 171.845 163.844 170.508 162.187 170.516L162.216 176.516ZM156.663 167.111C155.679 165.778 153.801 165.494 152.468 166.478C151.135 167.462 150.851 169.34 151.835 170.673L156.663 167.111ZM147.274 161.432C147.812 162.999 149.518 163.834 151.086 163.296C152.653 162.758 153.487 161.051 152.949 159.484L147.274 161.432ZM150.574 150.522C150.24 148.899 148.654 147.854 147.031 148.188C145.408 148.522 144.363 150.108 144.697 151.731L150.574 150.522ZM143.093 142.122C143.314 143.764 144.823 144.917 146.466 144.696C148.108 144.476 149.26 142.967 149.04 141.324L143.093 142.122ZM148.02 132.031C147.874 130.38 146.418 129.161 144.767 129.307C143.117 129.453 141.897 130.909 142.043 132.559L148.02 132.031ZM141.365 123.082C141.458 124.736 142.875 126.002 144.529 125.908C146.183 125.815 147.449 124.399 147.356 122.745L141.365 123.082ZM146.886 112.822C146.807 111.167 145.4 109.89 143.745 109.97C142.091 110.05 140.814 111.456 140.893 113.111L146.886 112.822ZM140.382 103.668C140.482 105.321 141.904 106.581 143.558 106.481C145.212 106.381 146.471 104.959 146.371 103.306L140.382 103.668ZM145.718 93.6612C145.593 92.009 144.153 90.7709 142.501 90.8957C140.848 91.0206 139.61 92.4611 139.735 94.1132L145.718 93.6612ZM138.926 84.558C139.082 86.2075 140.546 87.4181 142.195 87.2621C143.845 87.106 145.055 85.6423 144.899 83.9928L138.926 84.558ZM143.875 74.3695C143.678 72.7244 142.185 71.5501 140.54 71.7467C138.895 71.9433 137.721 73.4363 137.917 75.0815L143.875 74.3695ZM136.645 65.7025C136.897 67.3401 138.429 68.4631 140.066 68.211C141.704 67.9588 142.827 66.4269 142.575 64.7893L136.645 65.7025ZM140.872 55.2315C140.536 53.609 138.949 52.5655 137.326 52.9009C135.704 53.2363 134.66 54.8236 134.996 56.4461L140.872 55.2315ZM132.729 47.3469C133.21 48.9321 134.886 49.8265 136.471 49.3446C138.057 48.8627 138.951 47.1869 138.469 45.6017L132.729 47.3469ZM134.626 36.1772C133.805 34.7383 131.972 34.2377 130.534 35.059C129.095 35.8804 128.594 37.7128 129.415 39.1517L134.626 36.1772ZM124.966 35.2261C126.618 35.0955 127.851 33.6507 127.72 31.999C127.589 30.3473 126.145 29.1142 124.493 29.2448L124.966 35.2261ZM114.741 35.7589C113.711 37.0566 113.928 38.9437 115.225 39.9738C116.523 41.0039 118.41 40.7871 119.44 39.4894L114.741 35.7589ZM114.601 47.1474C115.377 45.6835 114.819 43.8677 113.355 43.0917C111.891 42.3157 110.076 42.8734 109.3 44.3373L114.601 47.1474ZM105.101 53.2452C104.454 54.7706 105.167 56.5315 106.692 57.1782C108.218 57.8249 109.978 57.1126 110.625 55.5872L105.101 53.2452ZM107.202 64.3857C107.761 62.8259 106.949 61.1085 105.389 60.5497C103.83 59.9908 102.112 60.8023 101.553 62.362L107.202 64.3857ZM98.4856 71.6098C98.0003 73.194 98.8912 74.8716 100.475 75.3569C102.06 75.8422 103.737 74.9513 104.222 73.3671L98.4856 71.6098ZM101.664 82.4933C102.07 80.8869 101.097 79.2556 99.4903 78.8497C97.884 78.4438 96.2527 79.4169 95.8468 81.0233L101.664 82.4933ZM93.6355 90.019C93.1647 91.6075 94.0707 93.277 95.6592 93.7479C97.2478 94.2187 98.9173 93.3127 99.3881 91.7241L93.6355 90.019ZM95.9398 100.777C96.6502 99.2803 96.0126 97.491 94.5157 96.7806C93.0189 96.0703 91.2296 96.7079 90.5192 98.2047L95.9398 100.777ZM86.1194 105.571C85.1152 106.889 85.3695 108.771 86.6874 109.776C88.0053 110.78 89.8877 110.526 90.8919 109.208L86.1194 105.571ZM83.0526 116.206C84.531 115.458 85.1229 113.653 84.3748 112.175C83.6267 110.696 81.8218 110.104 80.3435 110.853L83.0526 116.206ZM74.9131 110.512C73.6135 109.485 71.7268 109.705 70.6992 111.005C69.6715 112.304 69.892 114.191 71.1916 115.219L74.9131 110.512ZM65.2295 106.41C65.8487 107.947 67.5964 108.691 69.1332 108.072C70.6701 107.453 71.414 105.705 70.7948 104.168L65.2295 106.41ZM68.3875 95.8264C68.0521 94.2039 66.4648 93.1605 64.8423 93.4959C63.2197 93.8314 62.1763 95.4186 62.5118 97.0412L68.3875 95.8264ZM61.0582 87.643C61.2416 89.2897 62.7252 90.4759 64.3718 90.2926C66.0185 90.1092 67.2047 88.6257 67.0214 86.979L61.0582 87.643ZM66.3043 77.9833C66.2181 76.3286 64.8069 75.0572 63.1523 75.1434C61.4977 75.2295 60.2262 76.6407 60.3124 78.2954L66.3043 77.9833ZM60.031 68.9259C60.0478 70.5827 61.4044 71.9122 63.0612 71.8954C64.7179 71.8787 66.0475 70.522 66.0307 68.8653L60.031 68.9259ZM66.0885 59.7755C66.1241 58.119 64.8102 56.7473 63.1537 56.7117C61.4972 56.6761 60.1255 57.9901 60.0899 59.6465L66.0885 59.7755ZM60.4108 50.3606C60.3334 52.0156 61.6124 53.42 63.2674 53.4974C64.9225 53.5747 66.3269 52.2958 66.4042 50.6407L60.4108 50.3606ZM66.9105 40.3131C66.9667 38.6572 65.6699 37.2693 64.014 37.2131C62.3581 37.1569 60.9702 38.4537 60.914 40.1096L66.9105 40.3131ZM60.9528 29.4475C61.0066 31.1035 62.3927 32.4023 64.0487 32.3485C65.7047 32.2946 67.0035 30.9086 66.9496 29.2526L60.9528 29.4475ZM65.9539 17.9955C65.6904 16.3597 64.1507 15.2473 62.515 15.5108C60.8792 15.7743 59.7668 17.3139 60.0302 18.9497L65.9539 17.9955ZM57.1273 9.57334C57.9703 10.9997 59.81 11.4725 61.2364 10.6294C62.6627 9.78634 63.1355 7.94664 62.2924 6.52031L57.1273 9.57334ZM50.0476 0.65048C48.4218 0.969613 47.3625 2.54633 47.6816 4.17216C48.0008 5.79798 49.5775 6.85727 51.2033 6.53812L50.0476 0.65048ZM42.9221 11.0702C44.2169 10.0365 44.4285 8.1488 43.3947 6.85399C42.361 5.5592 40.4733 5.34761 39.1785 6.38138L42.9221 11.0702ZM30.902 14.2207C29.7757 15.436 29.8478 17.3341 31.063 18.4603C32.2782 19.5866 34.1763 19.5145 35.3026 18.2993L30.902 14.2207ZM28.3489 26.4648C29.3779 25.1662 29.1593 23.2793 27.8607 22.2504C26.562 21.2214 24.6752 21.44 23.6462 22.7386L28.3489 26.4648ZM16.9898 31.6209C16.0287 32.9706 16.3437 34.8438 17.6933 35.8048C19.0429 36.7659 20.9161 36.4509 21.8772 35.1013L16.9898 31.6209ZM15.7655 44.0826C16.6687 42.6935 16.2748 40.8353 14.8857 39.9322C13.4966 39.0291 11.6384 39.423 10.7353 40.8121L15.7655 44.0826ZM228.569 66.4671C225.772 65.3839 225.772 65.3839 225.772 65.3839C225.772 65.3839 225.772 65.3839 225.772 65.3839C225.772 65.3839 225.772 65.3839 225.772 65.384C225.771 65.3841 225.771 65.3843 225.771 65.3846C225.771 65.3851 225.771 65.3861 225.77 65.3875C225.769 65.3902 225.767 65.3945 225.765 65.4003C225.761 65.4118 225.754 65.4295 225.745 65.4531C225.726 65.5005 225.698 65.5718 225.662 65.6664C225.588 65.8556 225.477 66.1377 225.331 66.5069C225.04 67.2452 224.608 68.3313 224.049 69.7169L229.614 71.9611C230.179 70.5609 230.616 69.461 230.912 68.7098C231.06 68.3341 231.174 68.0457 231.25 67.8504C231.288 67.7528 231.317 67.6784 231.337 67.6282C231.346 67.603 231.354 67.5839 231.359 67.5709C231.361 67.5643 231.363 67.5593 231.365 67.5559C231.365 67.5542 231.366 67.5528 231.366 67.5519C231.366 67.5514 231.367 67.551 231.367 67.5507C231.367 67.5506 231.367 67.5505 231.367 67.5504C231.367 67.5503 231.367 67.5503 231.367 67.5503C231.367 67.5502 231.367 67.5502 228.569 66.4671ZM220.419 78.5296C219.315 81.1575 218.064 84.0947 216.686 87.2616L222.187 89.6556C223.576 86.4631 224.838 83.5023 225.951 80.8529L220.419 78.5296ZM212.832 95.9606C211.574 98.7511 210.247 101.643 208.863 104.596L214.296 107.142C215.694 104.16 217.032 101.242 218.302 98.4274L212.832 95.9606ZM204.756 113.183C203.376 116.005 201.956 118.846 200.505 121.675L205.844 124.414C207.314 121.547 208.751 118.671 210.146 115.817L204.756 113.183ZM196.08 130.066C194.553 132.877 193.005 135.639 191.443 138.32L196.627 141.34C198.223 138.602 199.801 135.786 201.353 132.929L196.08 130.066ZM186.553 146.36C184.791 149.123 183.03 151.734 181.281 154.15L186.141 157.668C187.97 155.141 189.798 152.43 191.612 149.586L186.553 146.36ZM175.549 161.382C173.28 163.95 171.11 166.026 169.07 167.552L172.664 172.357C175.132 170.51 177.602 168.12 180.045 165.355L175.549 161.382ZM162.187 170.516C160.464 170.525 158.61 169.748 156.663 167.111L151.835 170.673C154.625 174.454 158.132 176.536 162.216 176.516L162.187 170.516ZM152.949 159.484C152.088 156.976 151.29 154.004 150.574 150.522L144.697 151.731C145.453 155.406 146.313 158.632 147.274 161.432L152.949 159.484ZM149.04 141.324C148.656 138.461 148.315 135.367 148.02 132.031L142.043 132.559C142.345 135.975 142.696 139.16 143.093 142.122L149.04 141.324ZM147.356 122.745C147.265 121.138 147.184 119.487 147.111 117.789L141.117 118.044C141.19 119.768 141.273 121.447 141.365 123.082L147.356 122.745ZM147.111 117.789C147.04 116.104 146.965 114.449 146.886 112.822L140.893 113.111C140.971 114.726 141.046 116.37 141.117 118.044L147.111 117.789ZM146.371 103.306C146.169 99.9538 145.951 96.7404 145.718 93.6612L139.735 94.1132C139.965 97.1606 140.181 100.344 140.382 103.668L146.371 103.306ZM144.899 83.9928C144.578 80.5971 144.236 77.3919 143.875 74.3695L137.917 75.0815C138.272 78.0509 138.609 81.207 138.926 84.558L144.899 83.9928ZM142.575 64.7893C142.039 61.3063 141.47 58.1261 140.872 55.2315L134.996 56.4461C135.571 59.227 136.122 62.3056 136.645 65.7025L142.575 64.7893ZM138.469 45.6017C137.299 41.7518 136.022 38.6224 134.626 36.1772L129.415 39.1517C130.518 41.0825 131.638 43.7602 132.729 47.3469L138.469 45.6017ZM124.493 29.2448C120.638 29.5496 117.361 32.4584 114.741 35.7589L119.44 39.4894C121.88 36.416 123.77 35.3207 124.966 35.2261L124.493 29.2448ZM109.3 44.3373C107.835 47.0999 106.429 50.114 105.101 53.2452L110.625 55.5872C111.901 52.5784 113.234 49.7256 114.601 47.1474L109.3 44.3373ZM101.553 62.362C100.441 65.4677 99.4117 68.5867 98.4856 71.6098L104.222 73.3671C105.123 70.4278 106.123 67.3979 107.202 64.3857L101.553 62.362ZM95.8468 81.0233C95.426 82.6883 95.0516 84.2762 94.7286 85.7608L100.591 87.0363C100.899 85.6233 101.258 84.1006 101.664 82.4933L95.8468 81.0233ZM94.7286 85.7608C94.4149 87.2029 94.0485 88.6259 93.6355 90.019L99.3881 91.7241C99.8425 90.1913 100.246 88.625 100.591 87.0363L94.7286 85.7608ZM90.5192 98.2047C89.1828 101.021 87.6856 103.516 86.1194 105.571L90.8919 109.208C92.7487 106.771 94.4541 103.908 95.9398 100.777L90.5192 98.2047ZM80.3435 110.853C79.229 111.417 78.269 111.613 77.453 111.564C76.6625 111.516 75.8195 111.229 74.9131 110.512L71.1916 115.219C72.9771 116.63 74.9747 117.425 77.093 117.553C79.1858 117.679 81.2027 117.142 83.0526 116.206L80.3435 110.853ZM70.7948 104.168C69.9034 101.956 69.0851 99.2005 68.3875 95.8264L62.5118 97.0412C63.2638 100.679 64.1743 103.791 65.2295 106.41L70.7948 104.168ZM67.0214 86.979C66.7162 84.2384 66.4742 81.2448 66.3043 77.9833L60.3124 78.2954C60.4877 81.661 60.7386 84.7727 61.0582 87.643L67.0214 86.979ZM66.0307 68.8653C66.0018 66.0002 66.0198 62.9725 66.0885 59.7755L60.0899 59.6465C60.0199 62.9021 60.0014 65.9933 60.031 68.9259L66.0307 68.8653ZM66.4042 50.6407C66.4753 49.1201 66.5565 47.5669 66.6482 45.9804L60.6582 45.6342C60.5653 47.2421 60.4829 48.8174 60.4108 50.3606L66.4042 50.6407ZM66.6482 45.9804C66.7619 44.0146 66.849 42.1262 66.9105 40.3131L60.914 40.1096C60.8542 41.8721 60.7693 43.7128 60.6582 45.6342L66.6482 45.9804ZM66.9496 29.2526C66.81 24.9581 66.4734 21.2208 65.9539 17.9955L60.0302 18.9497C60.5003 21.868 60.8194 25.344 60.9528 29.4475L66.9496 29.2526ZM62.2924 6.52031C60.8852 4.13946 59.0931 2.3602 56.8881 1.34396C54.6752 0.324036 52.3283 0.202773 50.0476 0.65048L51.2033 6.53812C52.5076 6.28209 53.5301 6.40288 54.3767 6.79307C55.2313 7.18693 56.1889 7.98582 57.1273 9.57334L62.2924 6.52031ZM39.1785 6.38138C36.3921 8.60601 33.5972 11.3126 30.902 14.2207L35.3026 18.2993C37.8684 15.5308 40.4417 13.0506 42.9221 11.0702L39.1785 6.38138ZM23.6462 22.7386C21.2481 25.7652 18.9977 28.8013 16.9898 31.6209L21.8772 35.1013C23.8385 32.347 26.027 29.3953 28.3489 26.4648L23.6462 22.7386ZM10.7353 40.8121C9.80704 42.2398 9.0716 43.4022 8.56674 44.2101C8.31426 44.6142 8.11937 44.9297 7.98675 45.1457C7.92043 45.2536 7.86967 45.3367 7.83507 45.3935C7.81776 45.4219 7.8045 45.4437 7.79535 45.4588C7.79078 45.4663 7.78722 45.4722 7.7847 45.4763C7.78345 45.4784 7.78246 45.4801 7.78172 45.4813C7.78135 45.4819 7.78104 45.4824 7.78081 45.4828C7.78069 45.483 7.78059 45.4831 7.7805 45.4833C7.78046 45.4834 7.7804 45.4835 7.78038 45.4835C7.78034 45.4836 7.78029 45.4836 10.3475 47.0359C12.9147 48.5881 12.9147 48.5882 12.9146 48.5883C12.9146 48.5883 12.9146 48.5883 12.9146 48.5883C12.9146 48.5884 12.9146 48.5884 12.9146 48.5883C12.9146 48.5883 12.9147 48.5882 12.9148 48.5879C12.9151 48.5874 12.9157 48.5865 12.9165 48.5851C12.9182 48.5824 12.9208 48.578 12.9245 48.5719C12.9319 48.5598 12.9434 48.5409 12.9589 48.5155C12.9898 48.4646 13.0369 48.3876 13.0994 48.2859C13.2243 48.0824 13.4111 47.78 13.655 47.3896C14.1429 46.6088 14.859 45.477 15.7655 44.0826L10.7353 40.8121Z" fill="#BBBBBB"/>
</svg>
