<svg width="483" height="196" viewBox="0 0 483 196" fill="none" xmlns="http://www.w3.org/2000/svg">
<path d="M269.276 51.278L270.823 51.3453L270.823 51.3453L269.276 51.278ZM359.073 55.8001L357.604 56.1907L359.073 55.8001ZM471.816 3.37172C471.547 2.60005 470.671 2.15161 469.861 2.37011L456.653 5.93061C455.843 6.14909 455.404 6.95177 455.673 7.72344C455.943 8.4951 456.818 8.94353 457.628 8.72505L469.368 5.56016L473.269 16.7379C473.538 17.5096 474.413 17.958 475.224 17.7395C476.034 17.521 476.473 16.7184 476.204 15.9467L471.816 3.37172ZM6.44762 190.596C6.67542 189.833 6.19283 189.014 5.36973 188.765C4.54664 188.517 3.69472 188.934 3.46692 189.696L6.44762 190.596ZM6.23981 180.714C5.99881 181.473 6.46763 182.299 7.28696 182.559C8.10629 182.82 8.96586 182.416 9.20686 181.658L6.23981 180.714ZM12.1247 172.706C12.3768 171.951 11.9196 171.119 11.1036 170.848C10.2877 170.577 9.42181 170.97 9.16973 171.725L12.1247 172.706ZM12.2013 162.853C11.9388 163.604 12.3847 164.441 13.1974 164.721C14.01 165.002 14.8817 164.62 15.1443 163.869L12.2013 162.853ZM18.2796 155.095C18.5528 154.347 18.1182 153.506 17.309 153.215C16.4998 152.925 15.6224 153.296 15.3493 154.044L18.2796 155.095ZM18.6301 145.26C18.3461 146.004 18.7688 146.85 19.5742 147.151C20.3796 147.451 21.2628 147.092 21.5468 146.348L18.6301 145.26ZM24.9471 137.645C25.2426 136.906 24.8325 136.054 24.0313 135.743C23.23 135.432 22.3408 135.78 22.0453 136.519L24.9471 137.645ZM25.6015 127.829C25.2937 128.564 25.69 129.42 26.4867 129.743C27.2833 130.065 28.1786 129.731 28.4864 128.996L25.6015 127.829ZM32.172 120.417C32.4931 119.688 32.1118 118.826 31.3204 118.491C30.529 118.157 29.6272 118.477 29.3061 119.205L32.172 120.417ZM33.17 110.661C32.8344 111.383 33.199 112.251 33.9844 112.599C34.7697 112.947 35.6784 112.643 36.014 111.92L33.17 110.661ZM40.0383 103.497C40.3901 102.781 40.0443 101.908 39.2661 101.545C38.4878 101.182 37.5718 101.468 37.2201 102.183L40.0383 103.497ZM41.4763 93.7908C41.1064 94.4974 41.4306 95.3778 42.2004 95.7572C42.9702 96.1365 43.8941 95.8713 44.264 95.1647L41.4763 93.7908ZM48.7144 86.9477C49.1049 86.2516 48.8057 85.3644 48.0462 84.9661C47.2866 84.5678 46.3544 84.8092 45.9638 85.5053L48.7144 86.9477ZM50.7152 77.3538C50.3009 78.0369 50.5705 78.9313 51.3173 79.3514C52.0641 79.7715 53.0053 79.5582 53.4197 78.8751L50.7152 77.3538ZM58.4196 70.9835C58.8618 70.3167 58.628 69.4149 57.8974 68.9693C57.1668 68.5237 56.216 68.7031 55.7738 69.3699L58.4196 70.9835ZM61.1983 61.5987C60.7227 62.2442 60.9123 63.1534 61.6217 63.6293C62.3311 64.1053 63.2917 63.9678 63.7672 63.3223L61.1983 61.5987ZM69.5335 55.9628C70.0496 55.3461 69.9162 54.4305 69.2357 53.9178C68.5552 53.405 67.5852 53.4893 67.0692 54.106L69.5335 55.9628ZM73.4965 46.9964C72.9302 47.5724 72.9895 48.4917 73.6289 49.0498C74.2682 49.6079 75.2456 49.5934 75.8118 49.0174L73.4965 46.9964ZM82.7173 42.6745C83.3464 42.1591 83.3881 41.2432 82.8105 40.6287C82.2329 40.0143 81.2546 39.934 80.6256 40.4494L82.7173 42.6745ZM88.6328 34.7829C87.9265 35.2036 87.7433 36.0982 88.2235 36.781C88.7036 37.4638 89.6654 37.6761 90.3717 37.2554L88.6328 34.7829ZM98.8483 33.2788C99.6389 33.0091 100.018 32.1782 99.6951 31.4229C99.3722 30.6676 98.4695 30.2739 97.6789 30.5436L98.8483 33.2788ZM107.789 28.5491C106.939 28.5938 106.32 29.2792 106.405 30.08C106.491 30.8807 107.249 31.4936 108.099 31.4489L107.789 28.5491ZM117.549 32.3885C118.383 32.5994 119.21 32.1432 119.398 31.3694C119.585 30.5956 119.061 29.7974 118.228 29.5865L117.549 32.3885ZM128.018 33.517C127.268 33.1027 126.329 33.3235 125.921 34.0102C125.513 34.6969 125.791 35.5894 126.541 36.0037L128.018 33.517ZM134.511 41.4811C135.167 42.0215 136.142 41.9791 136.689 41.3865C137.235 40.7938 137.146 39.8754 136.49 39.335L134.511 41.4811ZM143.876 46.3224C143.3 45.7063 142.322 45.6231 141.691 46.1365C141.061 46.65 141.016 47.5657 141.591 48.1818L143.876 46.3224ZM147.85 55.5777C148.362 56.2404 149.331 56.4115 150.014 55.9599C150.698 55.5082 150.837 54.6048 150.325 53.9421L147.85 55.5777ZM156.016 61.8862C155.554 61.1932 154.597 60.9586 153.879 61.3623C153.161 61.7659 152.954 62.6549 153.416 63.348L156.016 61.8862ZM158.853 71.8556C159.303 72.5559 160.256 72.8066 160.982 72.4157C161.708 72.0247 161.933 71.1401 161.483 70.4399L158.853 71.8556ZM166.751 78.4204C166.282 77.7309 165.323 77.5041 164.609 77.9137C163.895 78.3234 163.697 79.2144 164.165 79.9039L166.751 78.4204ZM169.823 87.953C170.315 88.6286 171.28 88.826 171.978 88.3938C172.676 87.9617 172.843 87.0637 172.351 86.3881L169.823 87.953ZM178.24 94.1594C177.721 93.5019 176.75 93.3412 176.072 93.8004C175.395 94.2596 175.267 95.1648 175.787 95.8224L178.24 94.1594ZM182.099 103.425C182.653 104.058 183.629 104.172 184.279 103.68C184.929 103.188 185.007 102.275 184.453 101.642L182.099 103.425ZM191.077 108.755C190.481 108.157 189.502 108.104 188.89 108.638C188.279 109.172 188.268 110.09 188.864 110.689L191.077 108.755ZM196.197 117.451C196.848 117.998 197.823 117.964 198.376 117.377C198.929 116.79 198.85 115.871 198.199 115.325L196.197 117.451ZM206.021 121.124C205.301 120.663 204.345 120.822 203.886 121.478C203.427 122.135 203.639 123.04 204.359 123.501L206.021 121.124ZM213.5 128.23C214.3 128.542 215.19 128.196 215.487 127.458C215.784 126.719 215.376 125.867 214.575 125.555L213.5 128.23ZM223.798 127.719C222.945 127.66 222.233 128.261 222.209 129.061C222.185 129.861 222.857 130.557 223.711 130.615L223.798 127.719ZM234.066 129.361C234.861 129.102 235.253 128.276 234.941 127.517C234.629 126.758 233.732 126.353 232.937 126.612L234.066 129.361ZM240.941 122.331C240.292 122.825 240.217 123.737 240.772 124.369C241.328 125.001 242.304 125.113 242.953 124.619L240.941 122.331ZM249.922 117.81C250.432 117.189 250.292 116.274 249.607 115.766C248.923 115.259 247.954 115.35 247.443 115.971L249.922 117.81ZM252.644 108.463C252.238 109.151 252.519 110.043 253.27 110.455C254.022 110.867 254.96 110.644 255.365 109.956L252.644 108.463ZM259.691 101.54C260.017 100.813 259.642 99.9489 258.853 99.6096C258.063 99.2703 257.159 99.5843 256.833 100.311L259.691 101.54ZM260.221 91.7749C259.958 92.5261 260.403 93.3628 261.216 93.6438C262.028 93.9248 262.9 93.5437 263.163 92.7926L260.221 91.7749ZM265.944 83.8281C266.154 83.0602 265.653 82.2501 264.825 82.0186C263.997 81.7872 263.156 82.222 262.946 82.9899L265.944 83.8281ZM265.087 74.0221C264.927 74.8023 265.477 75.5854 266.315 75.7711C267.154 75.9569 267.964 75.475 268.125 74.6948L265.087 74.0221ZM269.724 65.4318C269.833 64.6419 269.236 63.8891 268.389 63.7504C267.542 63.6117 266.766 64.1397 266.657 64.9296L269.724 65.4318ZM267.584 55.7643C267.537 56.5623 268.19 57.2741 269.043 57.3541C269.895 57.4341 270.625 56.8521 270.672 56.0541L267.584 55.7643ZM271.16 46.5438C271.266 45.7534 270.666 45.0025 269.819 44.8666C268.971 44.7307 268.198 45.2613 268.091 46.0517L271.16 46.5438ZM270.579 36.1053C270.308 36.8538 270.745 37.6941 271.555 37.9822C272.365 38.2703 273.241 37.8971 273.512 37.1486L270.579 36.1053ZM277.638 28.327C278.038 27.6359 277.751 26.7458 276.996 26.3388C276.242 25.9318 275.306 26.1621 274.906 26.8532L277.638 28.327ZM280.791 18.4416C280.274 19.0581 280.407 19.9737 281.087 20.4867C281.768 20.9997 282.738 20.9158 283.254 20.2993L280.791 18.4416ZM290.252 13.3745C290.884 12.862 290.93 11.9465 290.356 11.3295C289.781 10.7126 288.803 10.6279 288.171 11.1403L290.252 13.3745ZM297.131 5.44806C296.382 5.8017 296.108 6.67191 296.518 7.39172C296.929 8.11154 297.869 8.4084 298.617 8.05475L297.131 5.44806ZM308.165 5.19728C309.005 5.08922 309.562 4.3574 309.41 3.56271C309.257 2.76802 308.452 2.21142 307.611 2.31948L308.165 5.19728ZM318.83 2.92359C317.994 2.72239 317.174 3.18864 316.997 3.96501C316.82 4.74135 317.353 5.53381 318.189 5.73501L318.83 2.92359ZM327.536 9.74931C328.26 10.2041 329.214 10.0372 329.667 9.37657C330.119 8.71596 329.898 7.81178 329.174 7.35704L327.536 9.74931ZM337.684 14.2906C337.091 13.6888 336.112 13.6305 335.497 14.1606C334.882 14.6906 334.864 15.6082 335.457 16.2101L337.684 14.2906ZM342.014 24.109C342.498 24.7896 343.461 24.9974 344.165 24.5732C344.868 24.1489 345.047 23.2533 344.563 22.5727L342.014 24.109ZM350.174 31.5465C349.774 30.8222 348.837 30.5142 348.083 30.8586C347.329 31.203 347.043 32.0693 347.444 32.7936L350.174 31.5465ZM351.995 41.9291C352.332 42.6793 353.242 43.0576 354.027 42.774C354.811 42.4904 355.173 41.6524 354.836 40.9022L351.995 41.9291ZM358.763 50.4636C358.475 49.6971 357.59 49.2672 356.786 49.5034C355.982 49.7395 355.563 50.5523 355.851 51.3187L358.763 50.4636ZM359.492 61.266C359.797 62.027 360.691 62.4387 361.489 62.1855C362.286 61.9323 362.685 61.1102 362.379 60.3492L359.492 61.266ZM366.739 69.5069C366.329 68.7867 365.389 68.489 364.64 68.8419C363.891 69.1948 363.615 70.0647 364.025 70.7849L366.739 69.5069ZM370.461 79.7191C371.037 80.3346 372.015 80.4169 372.645 79.9028C373.276 79.3888 373.32 78.473 372.743 77.8574L370.461 79.7191ZM380.84 83.7867C380.053 83.4425 379.146 83.7507 378.814 84.4751C378.483 85.1994 378.852 86.0657 379.639 86.4099L380.84 83.7867ZM391.04 88.2679C391.887 88.2009 392.485 87.4987 392.375 86.6995C392.266 85.9003 391.491 85.3067 390.644 85.3738L391.04 88.2679ZM400.378 82.7774C399.617 83.1088 399.314 83.9695 399.702 84.6998C400.089 85.4301 401.02 85.7535 401.781 85.4221L400.378 82.7774ZM411.129 80.1578C411.805 79.6962 411.929 78.7904 411.407 78.1345C410.884 77.4786 409.913 77.3211 409.238 77.7826L411.129 80.1578ZM417.282 71.5198C416.67 72.0522 416.655 72.97 417.25 73.5698C417.845 74.1696 418.824 74.2242 419.437 73.6919L417.282 71.5198ZM426.989 66.5584C427.555 65.9824 427.496 65.0631 426.857 64.505C426.217 63.947 425.24 63.9615 424.674 64.5375L426.989 66.5584ZM431.576 57.0785C431.046 57.6841 431.159 58.6013 431.828 59.127C432.497 59.6527 433.47 59.5879 434 58.9822L431.576 57.0785ZM440.59 51.0958C441.091 50.4684 440.938 49.5548 440.246 49.0552C439.555 48.5555 438.588 48.659 438.087 49.2863L440.59 51.0958ZM444.28 41.2366C443.802 41.8806 443.989 42.7902 444.697 43.268C445.405 43.7459 446.366 43.6112 446.843 42.9672L444.28 41.2366ZM452.798 34.6683C453.255 34.0107 453.04 33.1054 452.319 32.6464C451.597 32.1873 450.642 32.3482 450.185 33.0058L452.798 34.6683ZM455.846 24.6133C455.408 25.2825 455.647 26.1833 456.38 26.6254C457.113 27.0676 458.062 26.8836 458.501 26.2144L455.846 24.6133ZM463.975 17.6205C464.395 16.941 464.134 16.0448 463.391 15.6189C462.647 15.1929 461.704 15.3985 461.283 16.078L463.975 17.6205ZM466.519 7.36215C466.118 8.05248 466.404 8.94305 467.157 9.35125C467.911 9.75948 468.848 9.53077 469.249 8.84044L466.519 7.36215ZM3.69293 194.48C5.18998 194.906 5.18997 194.906 5.18997 194.906C5.18997 194.906 5.18997 194.906 5.18997 194.906C5.18998 194.906 5.18999 194.906 5.19001 194.906C5.19005 194.906 5.19011 194.906 5.1902 194.906C5.19038 194.905 5.19066 194.904 5.19105 194.902C5.19183 194.9 5.19303 194.895 5.19465 194.89C5.19788 194.878 5.2028 194.861 5.20938 194.837C5.22254 194.79 5.24238 194.72 5.26884 194.627C5.32175 194.44 5.40113 194.162 5.50654 193.797C5.71736 193.066 6.03226 191.986 6.44762 190.596L3.46692 189.696C3.04903 191.095 2.73176 192.183 2.51872 192.921C2.4122 193.291 2.33174 193.573 2.27778 193.763C2.25081 193.858 2.23046 193.93 2.21679 193.979C2.20995 194.003 2.20479 194.022 2.2013 194.034C2.19956 194.04 2.19824 194.045 2.19734 194.048C2.19688 194.05 2.19654 194.051 2.1963 194.052C2.19618 194.052 2.19608 194.053 2.19602 194.053C2.19598 194.053 2.19596 194.053 2.19593 194.053C2.19592 194.053 2.19591 194.053 2.19591 194.053C2.1959 194.053 2.19589 194.053 3.69293 194.48ZM9.20686 181.658C10.0535 178.993 11.028 175.99 12.1247 172.706L9.16973 171.725C8.06866 175.022 7.09013 178.038 6.23981 180.714L9.20686 181.658ZM15.1443 163.869C16.1234 161.067 17.1694 158.134 18.2796 155.095L15.3493 154.044C14.2345 157.095 13.1844 160.04 12.2013 162.853L15.1443 163.869ZM21.5468 146.348C22.6323 143.506 23.7663 140.599 24.9471 137.645L22.0453 136.519C20.8592 139.486 19.7203 142.406 18.6301 145.26L21.5468 146.348ZM28.4864 128.996C29.6759 126.158 30.9048 123.294 32.172 120.417L29.3061 119.205C28.0321 122.098 26.7968 124.977 25.6015 127.829L28.4864 128.996ZM36.014 111.92C37.321 109.106 38.6629 106.294 40.0383 103.497L37.2201 102.183C35.8353 104.999 34.4849 107.829 33.17 110.661L36.014 111.92ZM44.264 95.1647C45.7153 92.392 47.1992 89.6485 48.7144 86.9477L45.9638 85.5053C44.4352 88.2304 42.9389 90.9968 41.4763 93.7908L44.264 95.1647ZM53.4197 78.8751C55.0551 76.1784 56.7223 73.5429 58.4196 70.9835L55.7738 69.3699C54.0547 71.962 52.368 74.6285 50.7152 77.3538L53.4197 78.8751ZM63.7672 63.3223C65.6579 60.7559 67.5806 58.2966 69.5335 55.9628L67.0692 54.106C65.0765 56.4875 63.1189 58.9916 61.1983 61.5987L63.7672 63.3223ZM75.8118 49.0174C78.0819 46.7081 80.3848 44.5856 82.7173 42.6745L80.6256 40.4494C78.2051 42.4326 75.828 44.6247 73.4965 46.9964L75.8118 49.0174ZM90.3717 37.2554C93.1708 35.5878 95.9978 34.251 98.8483 33.2788L97.6789 30.5436C94.6015 31.5932 91.5847 33.0242 88.6328 34.7829L90.3717 37.2554ZM108.099 31.4489C111.209 31.2853 114.358 31.5808 117.549 32.3885L118.228 29.5865C114.71 28.6958 111.226 28.3683 107.789 28.5491L108.099 31.4489ZM126.541 36.0037C129.163 37.4513 131.82 39.2658 134.511 41.4811L136.49 39.335C133.662 37.0059 130.837 35.0733 128.018 33.517L126.541 36.0037ZM141.591 48.1818C143.664 50.3997 145.75 52.8606 147.85 55.5777L150.325 53.9421C148.172 51.1555 146.022 48.619 143.876 46.3224L141.591 48.1818ZM153.416 63.348C154.331 64.7181 155.247 66.1377 156.165 67.6076L158.815 66.2234C157.881 64.7284 156.948 63.283 156.016 61.8862L153.416 63.348ZM156.165 67.6076C157.067 69.0526 157.963 70.4684 158.853 71.8556L161.483 70.4399C160.6 69.0634 159.711 67.658 158.815 66.2234L156.165 67.6076ZM164.165 79.9039C166.08 82.7214 167.966 85.403 169.823 87.953L172.351 86.3881C170.515 83.8665 168.648 81.2121 166.751 78.4204L164.165 79.9039ZM175.787 95.8224C177.931 98.5346 180.035 101.066 182.099 103.425L184.453 101.642C182.426 99.3256 180.355 96.834 178.24 94.1594L175.787 95.8224ZM188.864 110.689C191.369 113.201 193.813 115.45 196.197 117.451L198.199 115.325C195.896 113.391 193.522 111.207 191.077 108.755L188.864 110.689ZM204.359 123.501C207.512 125.518 210.558 127.083 213.5 128.23L214.575 125.555C211.865 124.498 209.014 123.039 206.021 121.124L204.359 123.501ZM223.711 130.615C227.391 130.868 230.845 130.41 234.066 129.361L232.937 126.612C230.093 127.539 227.053 127.942 223.798 127.719L223.711 130.615ZM242.953 124.619C245.474 122.7 247.793 120.397 249.922 117.81L247.443 115.971C245.426 118.422 243.259 120.567 240.941 122.331L242.953 124.619ZM255.365 109.956C256.938 107.29 258.378 104.464 259.691 101.54L256.833 100.311C255.555 103.158 254.159 105.894 252.644 108.463L255.365 109.956ZM263.163 92.7926C264.201 89.8289 265.127 86.8228 265.944 83.8281L262.946 82.9899C262.144 85.929 261.237 88.875 260.221 91.7749L263.163 92.7926ZM268.125 74.6948C268.78 71.5082 269.311 68.3974 269.724 65.4318L266.657 64.9296C266.252 67.8378 265.73 70.8918 265.087 74.0221L268.125 74.6948ZM270.672 56.0541C270.77 54.386 270.82 52.8098 270.823 51.3453L267.73 51.2107C267.728 52.6174 267.68 54.1415 267.584 55.7643L270.672 56.0541ZM270.823 51.3453C270.825 49.776 270.94 48.1709 271.16 46.5438L268.091 46.0517C267.856 47.7883 267.733 49.513 267.73 51.2107L270.823 51.3453ZM273.512 37.1486C274.597 34.1493 275.987 31.1798 277.638 28.327L274.906 26.8532C273.178 29.8388 271.72 32.9519 270.579 36.1053L273.512 37.1486ZM283.254 20.2993C285.389 17.7502 287.738 15.4137 290.252 13.3745L288.171 11.1403C285.506 13.3023 283.03 15.7671 280.791 18.4416L283.254 20.2993ZM298.617 8.05475C301.692 6.60268 304.894 5.61795 308.165 5.19728L307.611 2.31948C303.973 2.7874 300.458 3.87667 297.131 5.44806L298.617 8.05475ZM318.189 5.73501C321.27 6.47704 324.4 7.78085 327.536 9.74931L329.174 7.35704C325.751 5.20827 322.286 3.75579 318.83 2.92359L318.189 5.73501ZM335.457 16.2101C337.665 18.4527 339.857 21.0736 342.014 24.109L344.563 22.5727C342.32 19.4176 340.022 16.6659 337.684 14.2906L335.457 16.2101ZM347.444 32.7936C348.992 35.5913 350.512 38.6318 351.995 41.9291L354.836 40.9022C353.322 37.5367 351.766 34.4222 350.174 31.5465L347.444 32.7936ZM355.851 51.3187C356.443 52.8954 357.027 54.5191 357.604 56.1907L360.542 55.4096C359.958 53.7141 359.364 52.0657 358.763 50.4636L355.851 51.3187ZM357.604 56.1907C358.215 57.9649 358.845 59.6559 359.492 61.266L362.379 60.3492C361.752 58.7869 361.139 57.1413 360.542 55.4096L357.604 56.1907ZM364.025 70.7849C366.042 74.3299 368.191 77.2943 370.461 79.7191L372.743 77.8574C370.671 75.6432 368.66 72.8837 366.739 69.5069L364.025 70.7849ZM379.639 86.4099C383.326 88.0221 387.157 88.5751 391.04 88.2679L390.644 85.3738C387.251 85.6422 383.977 85.1586 380.84 83.7867L379.639 86.4099ZM401.781 85.4221C404.907 84.0613 408.033 82.2727 411.129 80.1578L409.238 77.7826C406.259 79.8174 403.296 81.507 400.378 82.7774L401.781 85.4221ZM419.437 73.6919C421.988 71.475 424.511 69.0793 426.989 66.5584L424.674 64.5375C422.239 67.0142 419.77 69.3583 417.282 71.5198L419.437 73.6919ZM434 58.9822C436.254 56.4082 438.456 53.7645 440.59 51.0958L438.087 49.2863C435.975 51.9268 433.8 54.5387 431.576 57.0785L434 58.9822ZM446.843 42.9672C448.923 40.1634 450.913 37.3801 452.798 34.6683L450.185 33.0058C448.315 35.6971 446.341 38.4575 444.28 41.2366L446.843 42.9672ZM458.501 26.2144C460.524 23.1262 462.359 20.2296 463.975 17.6205L461.283 16.078C459.679 18.6695 457.856 21.5464 455.846 24.6133L458.501 26.2144ZM469.249 8.84044C470.05 7.46335 470.669 6.37436 471.089 5.62859C471.298 5.25568 471.458 4.96856 471.566 4.77409C471.62 4.67687 471.661 4.6028 471.688 4.55277C471.702 4.52774 471.713 4.50873 471.72 4.49584C471.723 4.48938 471.726 4.48445 471.728 4.48107C471.729 4.47938 471.729 4.47808 471.73 4.47716C471.73 4.47671 471.73 4.47635 471.731 4.47608C471.731 4.47595 471.731 4.47583 471.731 4.47576C471.731 4.47572 471.731 4.47568 471.731 4.47565C471.731 4.47561 471.731 4.47558 470.348 3.76733C468.966 3.05908 468.966 3.05908 468.966 3.05905C468.966 3.05908 468.966 3.0591 468.966 3.05917C468.966 3.05929 468.966 3.05951 468.966 3.05982C468.965 3.06045 468.965 3.06147 468.964 3.06288C468.962 3.0657 468.96 3.07004 468.957 3.07591C468.95 3.08767 468.941 3.10552 468.927 3.12938C468.901 3.17707 468.862 3.24878 468.809 3.34359C468.704 3.53324 468.547 3.81538 468.34 4.18317C467.926 4.91873 467.313 5.99672 466.519 7.36215L469.249 8.84044ZM269.276 51.278L272.369 51.4126L269.276 51.278ZM359.073 55.8001L356.134 56.5812L359.073 55.8001ZM473.283 2.97611C472.745 1.43278 470.994 0.53591 469.373 0.972888L442.958 8.09387C441.337 8.53086 440.46 10.1362 440.998 11.6795C441.537 13.2229 443.287 14.1197 444.908 13.6828L468.388 7.35299L476.189 29.7085C476.727 31.2518 478.478 32.1487 480.099 31.7117C481.72 31.2747 482.597 29.6694 482.059 28.1261L473.283 2.97611ZM7.93797 191.045C8.39357 189.52 7.42839 187.881 5.7822 187.385C4.136 186.888 2.43216 187.722 1.97657 189.247L7.93797 191.045ZM4.75629 180.242C4.27428 181.759 5.21193 183.412 6.85058 183.933C8.48923 184.454 10.2084 183.647 10.6904 182.13L4.75629 180.242ZM13.6022 173.196C14.1063 171.686 13.1921 170.023 11.5601 169.481C9.92811 168.94 8.19642 169.725 7.69225 171.234L13.6022 173.196ZM10.7299 162.345C10.2047 163.848 11.0966 165.521 12.7219 166.082C14.3472 166.643 16.0906 165.879 16.6157 164.377L10.7299 162.345ZM19.7448 155.62C20.291 154.125 19.4219 152.442 17.8035 151.862C16.1851 151.281 14.4304 152.023 13.8841 153.518L19.7448 155.62ZM17.1717 144.717C16.6037 146.204 17.4491 147.896 19.0599 148.497C20.6708 149.098 22.4371 148.379 23.0052 146.892L17.1717 144.717ZM26.3979 138.208C26.9889 136.729 26.1689 135.027 24.5663 134.405C22.9637 133.783 21.1855 134.477 20.5945 135.956L26.3979 138.208ZM24.159 127.246C23.5435 128.715 24.3361 130.428 25.9294 131.072C27.5227 131.717 29.3133 131.049 29.9289 129.58L24.159 127.246ZM33.605 121.022C34.2471 119.565 33.4845 117.841 31.9018 117.172C30.319 116.503 28.5153 117.142 27.8732 118.6L33.605 121.022ZM31.7481 110.031C31.0769 111.476 31.806 113.212 33.3767 113.907C34.9474 114.603 36.7648 113.995 37.436 112.55L31.7481 110.031ZM41.4475 104.154C42.1509 102.723 41.4594 100.975 39.903 100.25C38.3465 99.5243 36.5144 100.096 35.8109 101.526L41.4475 104.154ZM40.0825 93.1039C39.3427 94.5171 39.9911 96.2778 41.5307 97.0366C43.0703 97.7953 44.918 97.2648 45.6578 95.8516L40.0825 93.1039ZM50.0896 87.6689C50.8706 86.2767 50.2723 84.5023 48.7532 83.7057C47.2342 82.9091 45.3696 83.392 44.5886 84.7842L50.0896 87.6689ZM49.363 76.5931C48.5344 77.9594 49.0735 79.7482 50.5671 80.5884C52.0607 81.4286 53.9432 81.0021 54.7719 79.6357L49.363 76.5931ZM59.7425 71.7904C60.627 70.4567 60.1594 68.6532 58.6981 67.762C57.2369 66.8708 55.3353 67.2294 54.4508 68.563L59.7425 71.7904ZM59.9138 60.737C58.9627 62.028 59.3419 63.8462 60.7607 64.7981C62.1795 65.75 64.1007 65.4751 65.0517 64.1841L59.9138 60.737ZM70.7657 56.8912C71.7978 55.6578 71.5311 53.8266 70.1701 52.8012C68.8091 51.7757 66.8691 51.9442 65.837 53.1776L70.7657 56.8912ZM72.3388 45.9859C71.2064 47.1378 71.3249 48.9765 72.6036 50.0927C73.8824 51.2088 75.837 51.1798 76.9694 50.0279L72.3388 45.9859ZM83.7632 43.7871C85.0214 42.7562 85.1048 40.9244 83.9495 39.6955C82.7943 38.4666 80.8378 38.306 79.5797 39.3368L83.7632 43.7871ZM87.7633 33.5466C86.3508 34.3882 85.9843 36.1773 86.9447 37.5429C87.905 38.9084 89.8287 39.3331 91.2412 38.4916L87.7633 33.5466ZM99.433 34.6463C101.014 34.107 101.773 32.4452 101.127 30.9346C100.481 29.424 98.6755 28.6366 97.0942 29.176L99.433 34.6463ZM107.633 27.0992C105.934 27.1886 104.695 28.5594 104.867 30.1609C105.038 31.7624 106.555 32.9882 108.254 32.8988L107.633 27.0992ZM117.21 33.7895C118.876 34.2114 120.531 33.2988 120.906 31.7513C121.281 30.2038 120.234 28.6073 118.568 28.1854L117.21 33.7895ZM128.757 32.2736C127.257 31.445 125.379 31.8866 124.563 33.26C123.747 34.6335 124.302 36.4185 125.802 37.2471L128.757 32.2736ZM133.521 42.5542C134.834 43.6349 136.784 43.5501 137.877 42.3649C138.97 41.1796 138.792 39.3427 137.48 38.262L133.521 42.5542ZM145.018 45.3927C143.867 44.1605 141.911 43.9941 140.649 45.021C139.387 46.0479 139.298 47.8793 140.449 49.1114L145.018 45.3927ZM146.612 56.3954C147.636 57.7209 149.575 58.0631 150.942 57.1598C152.309 56.2566 152.587 54.4498 151.562 53.1243L146.612 56.3954ZM157.316 61.1553C156.391 59.7693 154.477 59.3002 153.041 60.1075C151.605 60.9148 151.191 62.6928 152.116 64.0788L157.316 61.1553ZM157.538 72.5635C158.437 73.964 160.343 74.4655 161.795 73.6836C163.248 72.9017 163.697 71.1325 162.799 69.732L157.538 72.5635ZM168.043 77.6787C167.106 76.2997 165.189 75.846 163.761 76.6653C162.333 77.4846 161.935 79.2667 162.873 80.6456L168.043 77.6787ZM168.559 88.7354C169.543 90.0866 171.472 90.4814 172.869 89.6172C174.265 88.7529 174.599 86.9569 173.615 85.6056L168.559 88.7354ZM179.467 93.328C178.428 92.0129 176.486 91.6914 175.131 92.6098C173.776 93.5282 173.52 95.3388 174.56 96.6538L179.467 93.328ZM180.922 104.317C182.03 105.583 183.982 105.811 185.282 104.826C186.582 103.842 186.738 102.017 185.63 100.751L180.922 104.317ZM192.184 107.788C190.99 106.591 189.032 106.487 187.81 107.555C186.588 108.623 186.565 110.459 187.758 111.656L192.184 107.788ZM195.195 118.515C196.497 119.607 198.449 119.54 199.555 118.366C200.661 117.191 200.502 115.354 199.201 114.261L195.195 118.515ZM206.852 119.935C205.411 119.014 203.499 119.331 202.582 120.644C201.664 121.957 202.088 123.768 203.528 124.69L206.852 119.935ZM212.962 129.567C214.564 130.192 216.343 129.5 216.937 128.023C217.531 126.546 216.714 124.842 215.112 124.217L212.962 129.567ZM223.842 126.271C222.135 126.153 220.712 127.355 220.663 128.955C220.615 130.555 221.96 131.946 223.667 132.064L223.842 126.271ZM234.631 130.735C236.221 130.217 237.004 128.566 236.381 127.048C235.757 125.53 233.962 124.72 232.372 125.238L234.631 130.735ZM239.935 121.187C238.638 122.174 238.487 123.999 239.598 125.263C240.709 126.527 242.661 126.751 243.958 125.764L239.935 121.187ZM251.161 118.73C252.182 117.488 251.901 115.659 250.532 114.643C249.163 113.627 247.225 113.81 246.203 115.051L251.161 118.73ZM251.283 107.716C250.472 109.092 251.032 110.876 252.535 111.701C254.038 112.525 255.915 112.078 256.726 110.702L251.283 107.716ZM261.12 102.154C261.772 100.701 261.022 98.9723 259.443 98.2938C257.865 97.6152 256.056 98.2433 255.404 99.6967L261.12 102.154ZM258.75 91.2661C258.223 92.7684 259.114 94.4419 260.739 95.0039C262.364 95.5659 264.108 94.8037 264.634 93.3014L258.75 91.2661ZM267.444 84.2472C267.863 82.7114 266.86 81.0912 265.204 80.6283C263.548 80.1654 261.866 81.0351 261.447 82.5708L267.444 84.2472ZM263.568 73.6858C263.247 75.2462 264.347 76.8123 266.025 77.1838C267.703 77.5553 269.323 76.5915 269.643 75.0311L263.568 73.6858ZM271.257 65.683C271.477 64.1031 270.282 62.5976 268.588 62.3202C266.894 62.0428 265.343 63.0986 265.123 64.6784L271.257 65.683ZM266.04 55.6194C265.946 57.2154 267.252 58.639 268.958 58.799C270.663 58.9591 272.122 57.795 272.216 56.199L266.04 55.6194ZM272.694 46.7899C272.907 45.2091 271.707 43.7072 270.012 43.4355C268.318 43.1637 266.771 44.2248 266.557 45.8056L272.694 46.7899ZM269.112 35.5837C268.571 37.0806 269.445 38.7612 271.065 39.3374C272.685 39.9136 274.437 39.1672 274.979 37.6703L269.112 35.5837ZM279.005 29.0639C279.805 27.6818 279.23 25.9015 277.721 25.0875C276.211 24.2736 274.34 24.7341 273.54 26.1162L279.005 29.0639ZM279.559 17.5128C278.526 18.7457 278.792 20.5769 280.153 21.6029C281.513 22.6289 283.453 22.4611 284.486 21.2281L279.559 17.5128ZM291.292 14.4915C292.556 13.4667 292.649 11.6356 291.5 10.4017C290.351 9.16783 288.395 8.99839 287.131 10.0233L291.292 14.4915ZM296.387 4.1447C294.89 4.85199 294.341 6.59241 295.162 8.03205C295.983 9.47169 297.863 10.0654 299.361 9.35811L296.387 4.1447ZM308.442 6.63619C310.122 6.42005 311.237 4.95639 310.931 3.36703C310.625 1.77766 309.015 0.66444 307.335 0.880584L308.442 6.63619ZM319.15 1.51789C317.479 1.11549 315.838 2.048 315.484 3.6007C315.13 5.15341 316.198 6.73832 317.869 7.14072L319.15 1.51789ZM326.717 10.9454C328.166 11.8549 330.074 11.5212 330.978 10.2C331.883 8.87876 331.442 7.07039 329.993 6.16089L326.717 10.9454ZM338.797 13.3309C337.612 12.1272 335.654 12.0107 334.424 13.0708C333.194 14.1308 333.158 15.966 334.343 17.1698L338.797 13.3309ZM340.74 24.8772C341.707 26.2384 343.633 26.654 345.041 25.8055C346.448 24.957 346.805 23.1657 345.837 21.8045L340.74 24.8772ZM351.54 30.9229C350.738 29.4744 348.865 28.8584 347.357 29.5472C345.849 30.2359 345.276 31.9686 346.078 33.4172L351.54 30.9229ZM350.574 42.4426C351.249 43.9429 353.068 44.6995 354.638 44.1323C356.207 43.5652 356.931 41.8891 356.257 40.3887L350.574 42.4426ZM360.219 50.036C359.643 48.5031 357.873 47.6433 356.265 48.1156C354.657 48.5879 353.82 50.2134 354.395 51.7463L360.219 50.036ZM358.048 61.7244C358.659 63.2464 360.447 64.0697 362.042 63.5634C363.637 63.0571 364.435 61.4128 363.823 59.8908L358.048 61.7244ZM368.095 68.8679C367.276 67.4275 365.396 66.8321 363.898 67.5379C362.399 68.2437 361.849 69.9835 362.668 71.4239L368.095 68.8679ZM369.319 80.6499C370.472 81.881 372.428 82.0456 373.689 81.0174C374.95 79.9893 375.037 78.1578 373.885 76.9266L369.319 80.6499ZM381.44 82.475C379.866 81.7867 378.052 82.4031 377.389 83.8519C376.726 85.3006 377.464 87.0331 379.039 87.7215L381.44 82.475ZM391.238 89.715C392.932 89.5809 394.128 88.1765 393.909 86.5781C393.69 84.9797 392.14 83.7926 390.446 83.9267L391.238 89.715ZM399.677 81.455C398.155 82.1177 397.549 83.8391 398.323 85.2998C399.098 86.7605 400.96 87.4073 402.483 86.7445L399.677 81.455ZM412.075 81.3453C413.426 80.4223 413.675 78.6105 412.63 77.2988C411.586 75.987 409.643 75.672 408.292 76.5951L412.075 81.3453ZM416.205 70.4338C414.98 71.4985 414.951 73.3342 416.141 74.5338C417.331 75.7334 419.289 75.8427 420.514 74.7779L416.205 70.4338ZM428.147 67.5688C429.279 66.4168 429.16 64.5782 427.882 63.4621C426.603 62.346 424.648 62.3751 423.516 63.5271L428.147 67.5688ZM430.364 56.1266C429.303 57.3379 429.529 59.1722 430.868 60.2237C432.206 61.2751 434.152 61.1454 435.212 59.9341L430.364 56.1266ZM441.841 52.0005C442.844 50.7459 442.537 48.9186 441.155 47.9193C439.772 46.92 437.838 47.1269 436.835 48.3816L441.841 52.0005ZM442.998 40.3712C442.042 41.6594 442.416 43.4784 443.832 44.4342C445.248 45.39 447.17 45.1206 448.125 43.8325L442.998 40.3712ZM454.104 35.4995C455.018 34.1843 454.589 32.3738 453.146 31.4556C451.703 30.5375 449.793 30.8594 448.879 32.1746L454.104 35.4995ZM454.519 23.8128C453.643 25.1511 454.12 26.9527 455.586 27.837C457.052 28.7212 458.951 28.3532 459.828 27.015L454.519 23.8128ZM465.32 18.3918C466.162 17.0327 465.639 15.2404 464.152 14.3885C462.666 13.5366 460.779 13.9477 459.937 15.3068L465.32 18.3918ZM465.154 6.62301C464.351 8.00369 464.923 9.78479 466.431 10.6012C467.938 11.4177 469.811 10.9602 470.614 9.57959L465.154 6.62301ZM3.69293 194.48C6.68702 195.333 6.68701 195.333 6.687 195.333C6.687 195.333 6.68699 195.333 6.68699 195.333C6.68699 195.333 6.68699 195.333 6.687 195.333C6.68703 195.333 6.68707 195.333 6.68715 195.332C6.6873 195.332 6.68755 195.331 6.68791 195.33C6.68863 195.327 6.68977 195.323 6.69132 195.317C6.69443 195.306 6.69922 195.289 6.70567 195.266C6.71858 195.22 6.73816 195.151 6.76436 195.059C6.81675 194.874 6.8956 194.598 7.00045 194.234C7.21016 193.507 7.52388 192.432 7.93797 191.045L1.97657 189.247C1.55741 190.65 1.23896 191.742 1.02481 192.484C0.917735 192.855 0.836735 193.139 0.782258 193.331C0.755022 193.427 0.734412 193.5 0.720494 193.55C0.713533 193.574 0.708245 193.593 0.704636 193.606C0.702829 193.613 0.701443 193.618 0.700478 193.621C0.699998 193.623 0.699618 193.624 0.699347 193.625C0.699214 193.626 0.699101 193.626 0.699018 193.626C0.698979 193.626 0.698944 193.627 0.698913 193.627C0.698898 193.627 0.698881 193.627 0.698875 193.627C0.698862 193.627 0.698846 193.627 3.69293 194.48ZM10.6904 182.13C11.5352 179.471 12.5077 176.473 13.6022 173.196L7.69225 171.234C6.58899 174.538 5.60845 177.561 4.75629 180.242L10.6904 182.13ZM16.6157 164.377C17.593 161.581 18.6368 158.653 19.7448 155.62L13.8841 153.518C12.7671 156.576 11.7149 159.527 10.7299 162.345L16.6157 164.377ZM23.0052 146.892C24.0884 144.056 25.2199 141.155 26.3979 138.208L20.5945 135.956C19.4057 138.93 18.2642 141.856 17.1717 144.717L23.0052 146.892ZM29.9289 129.58C31.1154 126.749 32.3412 123.892 33.605 121.022L27.8732 118.6C26.5958 121.5 25.3572 124.387 24.159 127.246L29.9289 129.58ZM37.436 112.55C38.7391 109.744 40.0767 106.941 41.4475 104.154L35.8109 101.526C34.4215 104.352 33.0668 107.191 31.7481 110.031L37.436 112.55ZM45.6578 95.8516C47.1036 93.0896 48.5813 90.3576 50.0896 87.6689L44.5886 84.7842C43.0531 87.5213 41.5506 90.2991 40.0825 93.1039L45.6578 95.8516ZM54.7719 79.6357C56.3987 76.9533 58.0561 74.3333 59.7425 71.7904L54.4508 68.563C52.7208 71.1716 51.0244 73.8535 49.363 76.5931L54.7719 79.6357ZM65.0517 64.1841C66.9273 61.6381 68.8327 59.2012 70.7657 56.8912L65.837 53.1776C63.8244 55.5829 61.8494 58.1094 59.9138 60.737L65.0517 64.1841ZM76.9694 50.0279C79.2089 47.7498 81.4747 45.6621 83.7632 43.7871L79.5797 39.3368C77.1152 41.356 74.701 43.583 72.3388 45.9859L76.9694 50.0279ZM91.2412 38.4916C93.9638 36.8695 96.6959 35.5799 99.433 34.6463L97.0942 29.176C93.9033 30.2643 90.7917 31.7424 87.7633 33.5466L91.2412 38.4916ZM108.254 32.8988C111.2 32.7438 114.183 33.0233 117.21 33.7895L118.568 28.1854C114.885 27.2533 111.234 26.9098 107.633 27.0992L108.254 32.8988ZM125.802 37.2471C128.325 38.6402 130.9 40.3957 133.521 42.5542L137.48 38.262C134.582 35.876 131.674 33.8844 128.757 32.2736L125.802 37.2471ZM140.449 49.1114C142.484 51.29 144.54 53.7132 146.612 56.3954L151.562 53.1243C149.382 50.3029 147.201 47.7287 145.018 45.3927L140.449 49.1114ZM152.116 64.0788C153.022 65.4356 153.93 66.8423 154.84 68.2998L160.14 65.5313C159.198 64.0238 158.257 62.5654 157.316 61.1553L152.116 64.0788ZM154.84 68.2998C155.745 69.7498 156.645 71.1709 157.538 72.5635L162.799 69.732C161.919 68.3609 161.033 66.9608 160.14 65.5313L154.84 68.2998ZM162.873 80.6456C164.797 83.4761 166.692 86.1712 168.559 88.7354L173.615 85.6056C171.79 83.0982 169.932 80.4575 168.043 77.6787L162.873 80.6456ZM174.56 96.6538C176.719 99.3848 178.84 101.937 180.922 104.317L185.63 100.751C183.621 98.4552 181.567 95.9838 179.467 93.328L174.56 96.6538ZM187.758 111.656C190.292 114.198 192.771 116.48 195.195 118.515L199.201 114.261C196.937 112.362 194.599 110.21 192.184 107.788L187.758 111.656ZM203.528 124.69C206.76 126.757 209.904 128.375 212.962 129.567L215.112 124.217C212.518 123.205 209.766 121.799 206.852 119.935L203.528 124.69ZM223.667 132.064C227.561 132.331 231.22 131.846 234.631 130.735L232.372 125.238C229.717 126.103 226.883 126.479 223.842 126.271L223.667 132.064ZM243.958 125.764C246.581 123.767 248.977 121.384 251.161 118.73L246.203 115.051C244.242 117.435 242.151 119.5 239.935 121.187L243.958 125.764ZM256.726 110.702C258.327 107.988 259.789 105.118 261.12 102.154L255.404 99.6967C254.143 102.504 252.77 105.196 251.283 107.716L256.726 110.702ZM264.634 93.3014C265.684 90.3059 266.619 87.2697 267.444 84.2472L261.447 82.5708C260.653 85.4821 259.754 88.398 258.75 91.2661L264.634 93.3014ZM269.643 75.0311C270.304 71.8164 270.841 68.6772 271.257 65.683L265.123 64.6784C264.722 67.5581 264.206 70.5836 263.568 73.6858L269.643 75.0311ZM272.216 56.199C272.316 54.5082 272.367 52.906 272.369 51.4126L266.184 51.1433C266.181 52.5212 266.134 54.0193 266.04 55.6194L272.216 56.199ZM272.369 51.4126C272.372 49.9075 272.481 48.3622 272.694 46.7899L266.557 45.8056C266.315 47.597 266.187 49.3815 266.184 51.1433L272.369 51.4126ZM274.979 37.6703C276.036 34.7479 277.392 31.8504 279.005 29.0639L273.54 26.1162C271.773 29.1682 270.281 32.3532 269.112 35.5837L274.979 37.6703ZM284.486 21.2281C286.568 18.7418 288.854 16.4694 291.292 14.4915L287.131 10.0233C284.39 12.2466 281.851 14.7755 279.559 17.5128L284.486 21.2281ZM299.361 9.35811C302.309 7.96569 305.355 7.03322 308.442 6.63619L307.335 0.880584C303.513 1.37212 299.841 2.51366 296.387 4.1447L299.361 9.35811ZM317.869 7.14072C320.763 7.83766 323.725 9.06715 326.717 10.9454L329.993 6.16089C326.426 3.92197 322.793 2.39516 319.15 1.51789L317.869 7.14072ZM334.343 17.1698C336.486 19.346 338.625 21.9016 340.74 24.8772L345.837 21.8045C343.552 18.5895 341.201 15.7725 338.797 13.3309L334.343 17.1698ZM346.078 33.4172C347.605 36.1758 349.107 39.1794 350.574 42.4426L356.257 40.3887C354.727 36.9891 353.153 33.8376 351.54 30.9229L346.078 33.4172ZM354.395 51.7463C354.982 53.3103 355.562 54.9216 356.134 56.5812L362.012 55.0191C361.423 53.3115 360.825 51.6508 360.219 50.036L354.395 51.7463ZM356.134 56.5812C356.753 58.3767 357.391 60.0904 358.048 61.7244L363.823 59.8908C363.206 58.3524 362.601 56.7295 362.012 55.0191L356.134 56.5812ZM362.668 71.4239C364.733 75.0529 366.951 78.1199 369.319 80.6499L373.885 76.9266C371.91 74.8176 369.969 72.1606 368.095 68.8679L362.668 71.4239ZM379.039 87.7215C383 89.4539 387.109 90.0416 391.238 89.715L390.446 83.9267C387.298 84.1757 384.303 83.7268 381.44 82.475L379.039 87.7215ZM402.483 86.7445C405.712 85.3384 408.92 83.5004 412.075 81.3453L408.292 76.5951C405.372 78.5897 402.491 80.2299 399.677 81.455L402.483 86.7445ZM420.514 74.7779C423.097 72.5333 425.647 70.1118 428.147 67.5688L423.516 63.5271C421.103 65.9817 418.661 68.3 416.205 70.4338L420.514 74.7779ZM435.212 59.9341C437.481 57.3429 439.696 54.6833 441.841 52.0005L436.835 48.3816C434.735 51.008 432.573 53.604 430.364 56.1266L435.212 59.9341ZM448.125 43.8325C450.214 41.0164 452.212 38.2217 454.104 35.4995L448.879 32.1746C447.016 34.8555 445.05 37.6045 442.998 40.3712L448.125 43.8325ZM459.828 27.015C461.858 23.9161 463.699 21.0097 465.32 18.3918L459.937 15.3068C458.338 17.8894 456.522 20.7565 454.519 23.8128L459.828 27.015ZM470.614 9.57959C471.418 8.19667 472.04 7.10219 472.463 6.35129C472.674 5.97583 472.836 5.68621 472.945 5.48936C472.999 5.39092 473.041 5.31566 473.069 5.26447C473.083 5.23886 473.094 5.21926 473.101 5.20579C473.105 5.19905 473.108 5.19383 473.11 5.19018C473.111 5.18834 473.112 5.18689 473.112 5.18583C473.112 5.18531 473.113 5.18488 473.113 5.18453C473.113 5.18436 473.113 5.18422 473.113 5.1841C473.113 5.18405 473.113 5.18397 473.113 5.18394C473.113 5.18388 473.113 5.18381 470.348 3.76733C467.584 2.35085 467.584 2.3508 467.584 2.35076C467.584 2.35076 467.584 2.35072 467.584 2.3507C467.584 2.35069 467.584 2.35068 467.584 2.3507C467.584 2.35076 467.584 2.35091 467.583 2.35116C467.583 2.35164 467.583 2.35252 467.582 2.35378C467.581 2.35631 467.578 2.36037 467.575 2.36595C467.569 2.37713 467.56 2.39441 467.547 2.41769C467.521 2.46422 467.482 2.53473 467.43 2.62834C467.327 2.81558 467.171 3.09524 466.965 3.46046C466.554 4.19091 465.945 5.26341 465.154 6.62301L470.614 9.57959Z" fill="#BBBBBB"/>
</svg>
