<svg width="306" height="272" viewBox="0 0 306 272" fill="none" xmlns="http://www.w3.org/2000/svg">
<g filter="url(#filter0_d_923_2843)">
<path d="M27.9366 33.1911C-36.0142 69.6587 52.7931 125.791 47.3169 149.472C41.8408 173.153 27.9366 189.627 27.9366 202.074C27.9366 214.522 59.1174 276.725 166.832 260.53C274.547 244.336 294.72 160.452 300.359 136.266C305.999 112.08 279.538 52.3754 215.155 26.0938C150.773 -0.187819 91.8875 -3.27652 27.9366 33.1911Z" fill="#FEBC42"/>
</g>
<path d="M94.6183 4.29097L94.3421 16.7183L83.7178 10.2654L94.6183 4.29097Z" fill="black"/>
<path d="M208.818 243.072L221.03 245.389L212.917 254.807L208.818 243.072Z" fill="black"/>
<path d="M73.9375 212.067L78.4703 223.641L66.1801 221.78L73.9375 212.067Z" fill="black"/>
<path d="M159.344 129.875C164.641 125.681 168.507 119.93 170.405 113.422C172.303 106.915 172.137 99.9733 169.932 93.5643C167.727 87.1553 163.592 81.5973 158.101 77.6635C152.611 73.7297 146.039 71.6157 139.299 71.6157C132.559 71.6157 125.987 73.7297 120.496 77.6635C115.006 81.5973 110.871 87.1553 108.665 93.5643C106.46 99.9733 106.295 106.915 108.193 113.422C110.091 119.93 113.957 125.681 119.254 129.875C110.178 133.534 102.258 139.603 96.3396 147.436C90.4213 155.268 86.726 164.569 85.6478 174.349C85.5698 175.063 85.6322 175.785 85.8317 176.475C86.0311 177.164 86.3635 177.808 86.8101 178.368C87.7118 179.5 89.0235 180.225 90.4564 180.384C91.8894 180.542 93.3262 180.122 94.4509 179.214C95.5756 178.307 96.296 176.987 96.4537 175.545C97.6401 164.917 102.676 155.101 110.6 147.973C118.523 140.845 128.779 136.905 139.407 136.905C150.035 136.905 160.291 140.845 168.214 147.973C176.138 155.101 181.174 164.917 182.36 175.545C182.507 176.881 183.14 178.115 184.138 179.008C185.136 179.902 186.427 180.392 187.763 180.384H188.357C189.774 180.22 191.068 179.499 191.959 178.379C192.849 177.259 193.264 175.829 193.112 174.403C192.029 164.596 188.313 155.271 182.365 147.426C176.416 139.582 168.458 133.515 159.344 129.875ZM139.299 126.015C135.024 126.015 130.846 124.739 127.292 122.349C123.738 119.96 120.968 116.563 119.332 112.589C117.697 108.616 117.269 104.243 118.102 100.024C118.936 95.8056 120.995 91.9306 124.017 88.8891C127.04 85.8477 130.89 83.7764 135.083 82.9373C139.275 82.0981 143.62 82.5288 147.569 84.1748C151.518 85.8209 154.894 88.6083 157.268 92.1847C159.643 95.7611 160.911 99.9657 160.911 104.267C160.911 110.035 158.634 115.566 154.581 119.645C150.528 123.723 145.031 126.015 139.299 126.015Z" fill="black"/>
<defs>
<filter id="filter0_d_923_2843" x="0.679688" y="6.0874" width="304.419" height="265.115" filterUnits="userSpaceOnUse" color-interpolation-filters="sRGB">
<feFlood flood-opacity="0" result="BackgroundImageFix"/>
<feColorMatrix in="SourceAlpha" type="matrix" values="0 0 0 0 0 0 0 0 0 0 0 0 0 0 0 0 0 0 127 0" result="hardAlpha"/>
<feOffset dy="4"/>
<feGaussianBlur stdDeviation="2"/>
<feComposite in2="hardAlpha" operator="out"/>
<feColorMatrix type="matrix" values="0 0 0 0 0 0 0 0 0 0 0 0 0 0 0 0 0 0 0.25 0"/>
<feBlend mode="normal" in2="BackgroundImageFix" result="effect1_dropShadow_923_2843"/>
<feBlend mode="normal" in="SourceGraphic" in2="effect1_dropShadow_923_2843" result="shape"/>
</filter>
</defs>
</svg>
