<svg width="79" height="117" viewBox="0 0 79 117" fill="none" xmlns="http://www.w3.org/2000/svg">
<path d="M44.7581 44.6485L43.3622 44.0993L44.7581 44.6485ZM12.4005 59.8763L10.9292 59.5843L12.4005 59.8763ZM-15.9629 84.0168L-14.5324 84.468L-15.9629 84.0168ZM-44.226 72.7521C-43.6719 72.1363 -42.7234 72.0862 -42.1076 72.6403L-32.0719 81.67C-31.4561 82.2242 -31.4061 83.1726 -31.9602 83.7884C-32.5143 84.4043 -33.4627 84.4543 -34.0786 83.9002L-42.9991 75.8738L-51.0255 84.7944C-51.5796 85.4102 -52.5281 85.4603 -53.1439 84.9061C-53.7598 84.352 -53.8098 83.4036 -53.2557 82.7878L-44.226 72.7521ZM72.5543 74.8136C72.6241 73.9881 73.3499 73.3755 74.1754 73.4454C75.0009 73.5152 75.6135 74.241 75.5436 75.0665L72.5543 74.8136ZM76.3502 64.376C76.2952 65.2026 75.5806 65.8281 74.7539 65.7732C73.9273 65.7182 73.3018 65.0035 73.3568 64.1769L76.3502 64.376ZM73.9638 53.5452C74.0028 52.7177 74.7053 52.0785 75.5328 52.1175C76.3603 52.1565 76.9995 52.8589 76.9605 53.6864L73.9638 53.5452ZM77.3395 42.9834C77.3209 43.8116 76.6344 44.4679 75.8062 44.4492C74.9779 44.4306 74.3217 43.7441 74.3403 42.9159L77.3395 42.9834ZM74.4046 32.2896C74.3939 31.4613 75.0567 30.781 75.8851 30.7703C76.7134 30.7596 77.3936 31.4224 77.4044 32.2507L74.4046 32.2896ZM76.973 21.5087C77.0342 22.3349 76.414 23.0542 75.5878 23.1154C74.7617 23.1766 74.0423 22.5564 73.9812 21.7303L76.973 21.5087ZM72.5699 11.3716C72.3821 10.5647 72.8839 9.75839 73.6908 9.57058C74.4976 9.38277 75.304 9.88461 75.4918 10.6915L72.5699 11.3716ZM67.7434 2.05749C68.5486 1.86256 69.3593 2.35726 69.5542 3.16243C69.7492 3.9676 69.2545 4.77833 68.4493 4.97326L67.7434 2.05749ZM61.9312 11.6834C61.4782 12.377 60.5487 12.572 59.8551 12.119C59.1615 11.6659 58.9665 10.7364 59.4195 10.0428L61.9312 11.6834ZM54.0749 19.5352C54.4469 18.795 55.3486 18.4965 56.0888 18.8686C56.8289 19.2406 57.1274 20.1423 56.7553 20.8824L54.0749 19.5352ZM52.3227 30.3346C51.9878 31.0923 51.102 31.435 50.3443 31.1C49.5866 30.7651 49.2439 29.8793 49.5789 29.1216L52.3227 30.3346ZM45.4165 38.9618C45.7286 38.1944 46.6037 37.8253 47.3711 38.1374C48.1385 38.4495 48.5076 39.3246 48.1954 40.092L45.4165 38.9618ZM44.3211 49.823C44.0139 50.5924 43.1412 50.9671 42.3718 50.66C41.6025 50.3528 41.2277 49.4802 41.5349 48.7108L44.3211 49.823ZM37.9094 57.6488C38.2254 56.883 39.1024 56.5183 39.8682 56.8343C40.634 57.1503 40.9986 58.0272 40.6826 58.793L37.9094 57.6488ZM36.922 67.7251C36.5945 68.4861 35.7121 68.8375 34.9512 68.51C34.1902 68.1825 33.8388 67.3002 34.1663 66.5392L36.922 67.7251ZM30.2784 75.3354C30.6216 74.5814 31.5111 74.2485 32.2651 74.5918C33.0191 74.935 33.352 75.8245 33.0087 76.5785L30.2784 75.3354ZM28.8778 85.3125C28.5109 86.0552 27.6113 86.3599 26.8686 85.9929C26.1259 85.626 25.8212 84.7264 26.1881 83.9837L28.8778 85.3125ZM21.7332 92.4538C22.1423 91.7334 23.0579 91.481 23.7783 91.8901C24.4987 92.2992 24.751 93.2148 24.342 93.9352L21.7332 92.4538ZM18.8826 102.262C18.361 102.906 17.4164 103.004 16.7728 102.483C16.1292 101.961 16.0304 101.017 16.552 100.373L18.8826 102.262ZM11.7338 102.383C12.082 103.134 11.7548 104.026 11.0031 104.374C10.2514 104.722 9.35978 104.395 9.01163 103.643L11.7338 102.383ZM7.42802 93.5469C7.41084 92.7186 8.06833 92.0332 8.89658 92.0161C9.72483 91.9989 10.4102 92.6564 10.4274 93.4846L7.42802 93.5469ZM10.7195 83.9357C10.6618 84.7621 9.94514 85.3853 9.11872 85.3276C8.2923 85.2699 7.66912 84.5532 7.72681 83.7268L10.7195 83.9357ZM8.66772 74.0237C8.76758 73.2013 9.5152 72.6156 10.3376 72.7155C11.16 72.8153 11.7457 73.5629 11.6458 74.3853L8.66772 74.0237ZM13.0163 64.8683C12.8793 65.6853 12.1059 66.2366 11.2889 66.0996C10.4719 65.9627 9.92059 65.1893 10.0576 64.3723L13.0163 64.8683ZM11.7203 54.6051C11.8183 53.7825 12.5646 53.1951 13.3872 53.2931C14.2099 53.3911 14.7973 54.1374 14.6993 54.96L11.7203 54.6051ZM14.9829 44.3693C15.0532 45.1948 14.4411 45.9209 13.6157 45.9913C12.7902 46.0616 12.0641 45.4495 11.9937 44.6241L14.9829 44.3693ZM9.12199 36.8917C8.33181 36.6429 7.89294 35.8006 8.14176 35.0104C8.39058 34.2202 9.23284 33.7814 10.023 34.0302L9.12199 36.8917ZM0.497814 40.4328C0.962828 39.7472 1.89559 39.5684 2.58119 40.0334C3.26679 40.4984 3.44561 41.4312 2.9806 42.1168L0.497814 40.4328ZM-1.9074 50.8809C-2.26631 51.6275 -3.16254 51.9418 -3.90919 51.5829C-4.65582 51.224 -4.97013 50.3277 -4.61122 49.5811L-1.9074 50.8809ZM-8.77712 59.1061C-8.46756 58.3377 -7.59369 57.9657 -6.82527 58.2753C-6.05686 58.5848 -5.68487 59.4587 -5.99444 60.2271L-8.77712 59.1061ZM-9.62068 69.8034C-9.89987 70.5834 -10.7585 70.9894 -11.5384 70.7102C-12.3184 70.431 -12.7244 69.5724 -12.4452 68.7924L-9.62068 69.8034ZM-15.7964 78.5952C-15.5385 77.8079 -14.6913 77.3787 -13.904 77.6366C-13.1167 77.8944 -12.6875 78.7417 -12.9454 79.5289L-15.7964 78.5952ZM-16.0716 89.1989C-16.3355 89.9842 -17.1861 90.4068 -17.9713 90.1428C-18.7566 89.8788 -19.1792 89.0283 -18.9152 88.243L-16.0716 89.1989ZM-22.2183 97.3056C-21.9106 96.5364 -21.0376 96.1624 -20.2684 96.4701C-19.4993 96.7778 -19.1252 97.6508 -19.4329 98.4199L-22.2183 97.3056ZM-23.5822 107.386C-23.9848 108.11 -24.8981 108.37 -25.6221 107.968C-26.3461 107.565 -26.6067 106.652 -26.204 105.928L-23.5822 107.386ZM-31.6643 112.127C-30.8579 111.937 -30.0504 112.437 -29.8608 113.244C-29.6711 114.05 -30.1711 114.857 -30.9775 115.047L-31.6643 112.127ZM-39.0273 107.795C-39.323 107.021 -38.9354 106.154 -38.1616 105.858C-37.3877 105.562 -36.5207 105.95 -36.2249 106.724L-39.0273 107.795ZM-38.7115 97.5749C-38.548 98.387 -39.0739 99.1779 -39.886 99.3414C-40.6982 99.5049 -41.4891 98.979 -41.6525 98.1669L-38.7115 97.5749ZM-43.2248 88.4609C-43.3316 87.6394 -42.7523 86.8868 -41.9307 86.78C-41.1092 86.6732 -40.3567 87.2526 -40.2499 88.0741L-43.2248 88.4609ZM-41.2698 78.4585C-41.2005 79.2841 -41.8136 80.0094 -42.6392 80.0786C-43.4647 80.1479 -44.19 79.5348 -44.2593 78.7092L-41.2698 78.4585ZM73.575 80.1882C72.0825 80.0391 72.0825 80.0391 72.0825 80.0392C72.0825 80.0391 72.0825 80.0391 72.0825 80.0391C72.0825 80.0391 72.0825 80.039 72.0825 80.0389C72.0825 80.0387 72.0825 80.0384 72.0826 80.038C72.0827 80.0371 72.0828 80.0358 72.083 80.034C72.0833 80.0304 72.0839 80.0249 72.0846 80.0175C72.0861 80.0028 72.0883 79.9806 72.0912 79.951C72.097 79.8919 72.1056 79.8034 72.1169 79.6868C72.1394 79.4535 72.1724 79.1078 72.2141 78.6593C72.2974 77.7622 72.4155 76.4543 72.5543 74.8136L75.5436 75.0665C75.4041 76.7161 75.2852 78.0323 75.2012 78.9368C75.1592 79.3891 75.1259 79.7384 75.103 79.9751C75.0916 80.0934 75.0828 80.1836 75.0768 80.2444C75.0738 80.2748 75.0715 80.2978 75.07 80.3134C75.0692 80.3211 75.0686 80.327 75.0682 80.331C75.068 80.333 75.0679 80.3346 75.0678 80.3356C75.0677 80.3362 75.0677 80.3366 75.0677 80.3368C75.0677 80.337 75.0676 80.3371 75.0676 80.3372C75.0676 80.3372 75.0676 80.3373 75.0676 80.3373C75.0676 80.3373 75.0676 80.3374 73.575 80.1882ZM73.3568 64.1769C73.574 60.9121 73.7863 57.3126 73.9638 53.5452L76.9605 53.6864C76.782 57.476 76.5684 61.0951 76.3502 64.376L73.3568 64.1769ZM74.3403 42.9159C74.4207 39.3415 74.4496 35.758 74.4046 32.2896L77.4044 32.2507C77.4499 35.7613 77.4206 39.3811 77.3395 42.9834L74.3403 42.9159ZM73.9812 21.7303C73.685 17.7307 73.227 14.1948 72.5699 11.3716L75.4918 10.6915C76.1982 13.7263 76.6712 17.433 76.973 21.5087L73.9812 21.7303ZM68.4493 4.97326C67.8313 5.12288 66.9572 5.60698 65.8161 6.72049C64.6897 7.81955 63.3971 9.43914 61.9312 11.6834L59.4195 10.0428C60.9531 7.69505 62.3814 5.88032 63.7209 4.5733C65.0456 3.28073 66.3824 2.38699 67.7434 2.05749L68.4493 4.97326ZM56.7553 20.8824C55.3725 23.6337 53.8967 26.774 52.3227 30.3346L49.5789 29.1216C51.169 25.5245 52.6658 22.3385 54.0749 19.5352L56.7553 20.8824ZM48.1954 40.092C47.5299 41.7286 46.8494 43.4299 46.1539 45.1977L43.3622 44.0993C44.0617 42.3215 44.7464 40.6095 45.4165 38.9618L48.1954 40.092ZM46.1539 45.1977C45.533 46.776 44.9221 48.3175 44.3211 49.823L41.5349 48.7108C42.134 47.21 42.743 45.6731 43.3622 44.0993L46.1539 45.1977ZM40.6826 58.793C39.3778 61.9555 38.1248 64.9301 36.922 67.7251L34.1663 66.5392C35.3627 63.7592 36.6098 60.7985 37.9094 57.6488L40.6826 58.793ZM33.0087 76.5785C31.548 79.7869 30.1725 82.6918 28.8778 85.3125L26.1881 83.9837C27.4669 81.3954 28.8288 78.5194 30.2784 75.3354L33.0087 76.5785ZM24.342 93.9352C22.2902 97.5484 20.4804 100.291 18.8826 102.262L16.552 100.373C18.0061 98.5791 19.7239 95.9923 21.7332 92.4538L24.342 93.9352ZM9.01163 103.643C7.94004 101.33 7.51338 97.6603 7.42802 93.5469L10.4274 93.4846C10.5125 97.587 10.9501 100.69 11.7338 102.383L9.01163 103.643ZM7.72681 83.7268C7.94975 80.5329 8.27781 77.235 8.66772 74.0237L11.6458 74.3853C11.2611 77.5543 10.9384 80.8006 10.7195 83.9357L7.72681 83.7268ZM10.0576 64.3723C10.3445 62.6609 10.6381 61.0508 10.9292 59.5843L13.8718 60.1684C13.5872 61.6024 13.2988 63.1829 13.0163 64.8683L10.0576 64.3723ZM10.9292 59.5843C11.263 57.9027 11.5264 56.2335 11.7203 54.6051L14.6993 54.96C14.4961 56.6653 14.2207 58.411 13.8718 60.1684L10.9292 59.5843ZM11.9937 44.6241C11.7932 42.2712 11.3797 40.3537 10.8077 38.9875C10.2171 37.577 9.5836 37.037 9.12199 36.8917L10.023 34.0302C11.7392 34.5706 12.8559 36.1114 13.5749 37.8289C14.3125 39.5905 14.768 41.848 14.9829 44.3693L11.9937 44.6241ZM2.9806 42.1168C1.50744 44.2887 -0.124202 47.1714 -1.9074 50.8809L-4.61122 49.5811C-2.78588 45.784 -1.08269 42.763 0.497814 40.4328L2.9806 42.1168ZM-5.99444 60.2271C-7.15633 63.1113 -8.36536 66.2965 -9.62068 69.8034L-12.4452 68.7924C-11.1783 65.2531 -9.95536 62.0309 -8.77712 59.1061L-5.99444 60.2271ZM-12.9454 79.5289C-13.4675 81.1231 -13.9965 82.769 -14.5324 84.468L-17.3935 83.5656C-16.8544 81.8565 -16.322 80.2001 -15.7964 78.5952L-12.9454 79.5289ZM-14.5324 84.468C-15.0547 86.1239 -15.5677 87.6999 -16.0716 89.1989L-18.9152 88.243C-18.4177 86.7631 -17.9105 85.2049 -17.3935 83.5656L-14.5324 84.468ZM-19.4329 98.4199C-20.8924 102.068 -22.2728 105.031 -23.5822 107.386L-26.204 105.928C-24.9743 103.716 -23.6466 100.876 -22.2183 97.3056L-19.4329 98.4199ZM-30.9775 115.047C-32.9812 115.518 -34.6695 114.642 -35.9459 113.266C-37.1863 111.929 -38.1914 109.982 -39.0273 107.795L-36.2249 106.724C-35.4385 108.782 -34.5989 110.307 -33.7464 111.226C-32.9298 112.106 -32.2767 112.271 -31.6643 112.127L-30.9775 115.047ZM-41.6525 98.1669C-42.299 94.9554 -42.8159 91.6055 -43.2248 88.4609L-40.2499 88.0741C-39.847 91.1725 -39.3404 94.4506 -38.7115 97.5749L-41.6525 98.1669ZM-44.2593 78.7092C-44.3836 77.2262 -44.4709 76.0104 -44.5271 75.1641C-44.5552 74.7409 -44.5755 74.41 -44.5889 74.1841C-44.5956 74.0712 -44.6005 73.9846 -44.6038 73.9257C-44.6055 73.8963 -44.6067 73.8739 -44.6075 73.8586C-44.6079 73.851 -44.6083 73.8451 -44.6085 73.8411C-44.6086 73.8391 -44.6087 73.8375 -44.6087 73.8364C-44.6087 73.8358 -44.6088 73.8354 -44.6088 73.8351C-44.6088 73.8349 -44.6088 73.8348 -44.6088 73.8347C-44.6088 73.8346 -44.6088 73.8346 -44.6088 73.8345C-44.6088 73.8345 -44.6088 73.8344 -43.1109 73.7554C-41.613 73.6764 -41.613 73.6763 -41.613 73.6763C-41.613 73.6763 -41.613 73.6763 -41.613 73.6763C-41.613 73.6763 -41.613 73.6764 -41.613 73.6764C-41.613 73.6766 -41.613 73.6768 -41.6129 73.6772C-41.6129 73.6779 -41.6128 73.6791 -41.6128 73.6807C-41.6126 73.684 -41.6123 73.6891 -41.6119 73.6959C-41.6112 73.7097 -41.6101 73.7305 -41.6085 73.7583C-41.6054 73.8139 -41.6006 73.8973 -41.5941 74.0069C-41.5812 74.2259 -41.5613 74.5497 -41.5337 74.9653C-41.4785 75.7966 -41.3925 76.995 -41.2698 78.4585L-44.2593 78.7092ZM44.7581 44.6485L41.9664 43.5502L44.7581 44.6485ZM12.4005 59.8763L9.45796 59.2922L12.4005 59.8763ZM-15.9629 84.0168L-13.1019 84.9192L-15.9629 84.0168ZM-45.341 71.7488C-44.2328 70.5171 -42.336 70.4171 -41.1043 71.5253L-21.033 89.5847C-19.8013 90.6929 -19.7012 92.5898 -20.8094 93.8214C-21.9177 95.0531 -23.8145 95.1532 -25.0462 94.045L-42.8874 77.9922L-58.9402 95.8333C-60.0484 97.065 -61.9452 97.1651 -63.1769 96.0569C-64.4086 94.9487 -64.5087 93.0518 -63.4005 91.8201L-45.341 71.7488ZM71.0597 74.6872C71.1993 73.0362 72.6509 71.8111 74.3019 71.9507C75.9528 72.0904 77.178 73.542 77.0383 75.1929L71.0597 74.6872ZM77.8469 64.4756C77.7369 66.1288 76.3076 67.3798 74.6544 67.2699C73.0012 67.1599 71.7502 65.7306 71.8601 64.0774L77.8469 64.4756ZM72.4655 53.4746C72.5435 51.8196 73.9483 50.5412 75.6034 50.6191C77.2584 50.6971 78.5368 52.102 78.4589 53.757L72.4655 53.4746ZM78.8392 43.0171C78.8019 44.6735 77.4289 45.9861 75.7724 45.9489C74.116 45.9116 72.8034 44.5386 72.8407 42.8821L78.8392 43.0171ZM72.9048 32.3091C72.8833 30.6524 74.2089 29.2919 75.8656 29.2704C77.5223 29.249 78.8828 30.5746 78.9043 32.2313L72.9048 32.3091ZM78.4689 21.398C78.5912 23.0503 77.3509 24.4889 75.6986 24.6113C74.0463 24.7336 72.6076 23.4934 72.4853 21.841L78.4689 21.398ZM71.1089 11.7116C70.7333 10.0979 71.737 8.48525 73.3507 8.10963C74.9644 7.73402 76.5771 8.7377 76.9527 10.3514L71.1089 11.7116ZM67.3905 0.599602C69.0008 0.20975 70.6223 1.19915 71.0121 2.80948C71.402 4.41982 70.4126 6.04129 68.8022 6.43114L67.3905 0.599602ZM63.1871 12.5037C62.281 13.8909 60.422 14.2809 59.0348 13.3748C57.6477 12.4688 57.2576 10.6097 58.1637 9.22257L63.1871 12.5037ZM52.7347 18.8615C53.4787 17.3811 55.282 16.7843 56.7624 17.5284C58.2428 18.2724 58.8396 20.0757 58.0956 21.5561L52.7347 18.8615ZM53.6947 30.941C53.0248 32.4564 51.2533 33.1418 49.7379 32.472C48.2225 31.8021 47.5371 30.0305 48.2069 28.5152L53.6947 30.941ZM44.027 38.3967C44.6512 36.8619 46.4014 36.1238 47.9362 36.748C49.471 37.3722 50.2091 39.1223 49.5849 40.6571L44.027 38.3967ZM45.7142 50.3791C45.0999 51.9179 43.3545 52.6674 41.8157 52.0531C40.277 51.4388 39.5275 49.6934 40.1418 48.1546L45.7142 50.3791ZM36.5228 57.0766C37.1548 55.545 38.9087 54.8157 40.4403 55.4477C41.9719 56.0797 42.7012 57.8336 42.0692 59.3652L36.5228 57.0766ZM38.2998 68.3181C37.6448 69.84 35.8801 70.5428 34.3582 69.8878C32.8363 69.2329 32.1335 67.4682 32.7885 65.9463L38.2998 68.3181ZM28.9132 74.7139C29.5997 73.2059 31.3787 72.5401 32.8866 73.2266C34.3945 73.9131 35.0604 75.6921 34.3739 77.2L28.9132 74.7139ZM30.2227 85.9769C29.4888 87.4623 27.6897 88.0716 26.2042 87.3378C24.7187 86.6039 24.1095 84.8048 24.8433 83.3193L30.2227 85.9769ZM20.4289 91.7131C21.247 90.2723 23.0782 89.7676 24.519 90.5857C25.9598 91.4039 26.4645 93.2351 25.6463 94.6759L20.4289 91.7131ZM20.0479 103.207C19.0046 104.494 17.1154 104.691 15.8283 103.648C14.5412 102.605 14.3435 100.716 15.3867 99.4285L20.0479 103.207ZM13.0949 101.752C13.7913 103.256 13.137 105.039 11.6335 105.735C10.1301 106.432 8.34684 105.777 7.65052 104.274L13.0949 101.752ZM5.92834 93.578C5.89397 91.9215 7.20896 90.5508 8.86546 90.5164C10.522 90.482 11.8927 91.797 11.9271 93.4535L5.92834 93.578ZM12.2159 84.0402C12.1005 85.693 10.6671 86.9393 9.01427 86.824C7.36144 86.7086 6.11508 85.2752 6.23045 83.6224L12.2159 84.0402ZM7.17866 73.8429C7.37836 72.1981 8.87361 71.0267 10.5184 71.2264C12.1632 71.4261 13.3346 72.9214 13.1349 74.5661L7.17866 73.8429ZM14.4956 65.1163C14.2217 66.7504 12.6749 67.8529 11.0409 67.579C9.40683 67.305 8.30426 65.7583 8.57821 64.1242L14.4956 65.1163ZM10.2309 54.4277C10.4269 52.7825 11.9195 51.6077 13.5647 51.8037C15.2099 51.9997 16.3847 53.4923 16.1887 55.1375L10.2309 54.4277ZM16.4775 44.2419C16.6182 45.8928 15.3939 47.3452 13.7431 47.4859C12.0922 47.6266 10.6398 46.4023 10.4991 44.7515L16.4775 44.2419ZM8.67147 38.3224C7.09111 37.8248 6.21339 36.1402 6.71101 34.5599C7.20865 32.9795 8.89319 32.1018 10.4735 32.5994L8.67147 38.3224ZM-0.743587 39.5908C0.186443 38.2196 2.05196 37.862 3.42318 38.792C4.79438 39.722 5.15202 41.5875 4.22199 42.9587L-0.743587 39.5908ZM-0.555485 51.5307C-1.27332 53.024 -3.06579 53.6526 -4.55906 52.9348C-6.05234 52.217 -6.68096 50.4245 -5.96312 48.9312L-0.555485 51.5307ZM-10.1685 58.5456C-9.54935 57.0088 -7.8016 56.2648 -6.26476 56.8839C-4.72793 57.5031 -3.98398 59.2508 -4.6031 60.7876L-10.1685 58.5456ZM-8.20843 70.309C-8.76681 71.8689 -10.484 72.6808 -12.044 72.1224C-13.6039 71.564 -14.4158 69.8468 -13.8574 68.2869L-8.20843 70.309ZM-17.2219 78.1283C-16.7062 76.5538 -15.0117 75.6954 -13.4371 76.2111C-11.8626 76.7268 -11.0042 78.4212 -11.5199 79.9958L-17.2219 78.1283ZM-14.6497 89.6768C-15.1776 91.2473 -16.8787 92.0925 -18.4492 91.5646C-20.0197 91.0367 -20.8649 89.3356 -20.337 87.7651L-14.6497 89.6768ZM-23.611 96.7484C-22.9955 95.2101 -21.2496 94.462 -19.7113 95.0774C-18.1729 95.6928 -17.4248 97.4388 -18.0402 98.9771L-23.611 96.7484ZM-22.2713 108.115C-23.0765 109.563 -24.9032 110.084 -26.3512 109.278C-27.7992 108.473 -28.3202 106.647 -27.5149 105.199L-22.2713 108.115ZM-32.0078 110.667C-30.3949 110.287 -28.7799 111.287 -28.4006 112.9C-28.0213 114.513 -29.0213 116.128 -30.6341 116.507L-32.0078 110.667ZM-40.4284 108.33C-41.0199 106.782 -40.2447 105.048 -38.697 104.457C-37.1494 103.865 -35.4152 104.641 -34.8238 106.188L-40.4284 108.33ZM-37.241 97.2789C-36.9141 98.9031 -37.9657 100.485 -39.59 100.812C-41.2143 101.139 -42.7961 100.087 -43.123 98.4629L-37.241 97.2789ZM-44.7123 88.6543C-44.9259 87.0113 -43.7672 85.5062 -42.1242 85.2925C-40.4811 85.0789 -38.976 86.2376 -38.7624 87.8807L-44.7123 88.6543ZM-39.775 78.3332C-39.6366 79.9843 -40.8628 81.4349 -42.5138 81.5734C-44.1649 81.7119 -45.6156 80.4856 -45.754 78.8346L-39.775 78.3332ZM73.575 80.1882C70.5899 79.89 70.5899 79.8901 70.5899 79.8901C70.5899 79.8901 70.5899 79.8901 70.5899 79.8901C70.5899 79.8901 70.5899 79.89 70.5899 79.89C70.5899 79.8898 70.5899 79.8896 70.59 79.8892C70.5901 79.8884 70.5902 79.8872 70.5904 79.8855C70.5907 79.8821 70.5912 79.8768 70.5919 79.8696C70.5933 79.8553 70.5955 79.8335 70.5984 79.8043C70.6041 79.746 70.6127 79.6584 70.6238 79.5426C70.6462 79.3111 70.679 78.9671 70.7205 78.5205C70.8035 77.6272 70.9212 76.3234 71.0597 74.6872L77.0383 75.1929C76.8984 76.8471 76.7791 78.1674 76.6948 79.0756C76.6526 79.5297 76.6191 79.8808 76.5961 80.1192C76.5846 80.2384 76.5757 80.3295 76.5696 80.3911C76.5666 80.4219 76.5643 80.4453 76.5627 80.4613C76.5619 80.4692 76.5613 80.4753 76.5609 80.4796C76.5607 80.4817 76.5605 80.4833 76.5604 80.4844C76.5603 80.485 76.5603 80.4855 76.5602 80.4858C76.5602 80.486 76.5602 80.4861 76.5602 80.4862C76.5602 80.4863 76.5602 80.4863 76.5602 80.4864C76.5602 80.4864 76.5602 80.4865 73.575 80.1882ZM71.8601 64.0774C72.0768 60.8206 72.2885 57.2309 72.4655 53.4746L78.4589 53.757C78.2798 57.5578 78.0657 61.1866 77.8469 64.4756L71.8601 64.0774ZM72.8407 42.8821C72.9208 39.3217 72.9494 35.7563 72.9048 32.3091L78.9043 32.2313C78.95 35.763 78.9205 39.4009 78.8392 43.0171L72.8407 42.8821ZM72.4853 21.841C72.1919 17.8796 71.7414 14.429 71.1089 11.7116L76.9527 10.3514C77.6838 13.4921 78.1643 17.2841 78.4689 21.398L72.4853 21.841ZM68.8022 6.43114C68.5558 6.49082 67.9131 6.7701 66.8636 7.79409C65.8438 8.78916 64.6191 10.3112 63.1871 12.5037L58.1637 9.22257C59.731 6.82301 61.2273 4.91071 62.6734 3.4997C64.0898 2.11761 65.6579 1.01905 67.3905 0.599602L68.8022 6.43114ZM58.0956 21.5561C56.7258 24.2813 55.2605 27.3988 53.6947 30.941L48.2069 28.5152C49.8051 24.8998 51.3125 21.6908 52.7347 18.8615L58.0956 21.5561ZM49.5849 40.6571C48.9216 42.2881 48.2433 43.9841 47.5497 45.7469L41.9664 43.5502C42.6678 41.7673 43.3546 40.05 44.027 38.3967L49.5849 40.6571ZM47.5497 45.7469C46.9279 47.3274 46.3161 48.8712 45.7142 50.3791L40.1418 48.1546C40.7399 46.6563 41.348 45.1217 41.9664 43.5502L47.5497 45.7469ZM42.0692 59.3652C40.7617 62.534 39.5059 65.5156 38.2998 68.3181L32.7885 65.9463C33.9816 63.1738 35.2258 60.22 36.5228 57.0766L42.0692 59.3652ZM34.3739 77.2C32.9076 80.4207 31.5253 83.34 30.2227 85.9769L24.8433 83.3193C26.114 80.7472 27.4692 77.8856 28.9132 74.7139L34.3739 77.2ZM25.6463 94.6759C23.5733 98.3265 21.7176 101.147 20.0479 103.207L15.3867 99.4285C16.7689 97.7232 18.4407 95.2142 20.4289 91.7131L25.6463 94.6759ZM7.65052 104.274C6.43499 101.649 6.01382 97.6969 5.92834 93.578L11.9271 93.4535C12.0121 97.5504 12.4552 100.371 13.0949 101.752L7.65052 104.274ZM6.23045 83.6224C6.45544 80.399 6.78617 77.0754 7.17866 73.8429L13.1349 74.5661C12.7527 77.7139 12.4327 80.9345 12.2159 84.0402L6.23045 83.6224ZM8.57821 64.1242C8.8673 62.4 9.16361 60.7751 9.45796 59.2922L15.3431 60.4604C15.0617 61.8781 14.776 63.4439 14.4956 65.1163L8.57821 64.1242ZM9.45796 59.2922C9.7842 57.6486 10.0415 56.0175 10.2309 54.4277L16.1887 55.1375C15.981 56.8812 15.6995 58.6652 15.3431 60.4604L9.45796 59.2922ZM10.4991 44.7515C10.3058 42.4828 9.91328 40.7353 9.42404 39.5667C8.89778 38.3098 8.50579 38.2702 8.67147 38.3224L10.4735 32.5994C12.817 33.3374 14.1752 35.3786 14.9585 37.2496C15.7789 39.209 16.2554 41.6365 16.4775 44.2419L10.4991 44.7515ZM4.22199 42.9587C2.80251 45.0516 1.20664 47.8651 -0.555485 51.5307L-5.96312 48.9312C-4.11673 45.0903 -2.37775 42.0002 -0.743587 39.5908L4.22199 42.9587ZM-4.6031 60.7876C-5.75681 63.6515 -6.95891 66.8182 -8.20843 70.309L-13.8574 68.2869C-12.5847 64.7314 -11.3549 61.4907 -10.1685 58.5456L-4.6031 60.7876ZM-11.5199 79.9958C-12.0402 81.5845 -12.5676 83.2253 -13.1019 84.9192L-18.824 83.1144C-18.2833 81.4003 -17.7493 79.7387 -17.2219 78.1283L-11.5199 79.9958ZM-13.1019 84.9192C-13.6268 86.5834 -14.1427 88.1684 -14.6497 89.6768L-20.337 87.7651C-19.8427 86.2946 -19.3384 84.7454 -18.824 83.1144L-13.1019 84.9192ZM-18.0402 98.9771C-19.5153 102.664 -20.9221 105.689 -22.2713 108.115L-27.5149 105.199C-26.3251 103.059 -25.0237 100.28 -23.611 96.7484L-18.0402 98.9771ZM-30.6341 116.507C-33.3335 117.142 -35.5394 115.91 -37.0456 114.286C-38.48 112.74 -39.5678 110.582 -40.4284 108.33L-34.8238 106.188C-34.062 108.182 -33.3053 109.496 -32.6467 110.206C-32.3359 110.541 -32.1376 110.641 -32.0759 110.666C-32.0536 110.675 -32.0592 110.679 -32.0078 110.667L-30.6341 116.507ZM-43.123 98.4629C-43.7783 95.2079 -44.3004 91.822 -44.7123 88.6543L-38.7624 87.8807C-38.3625 90.956 -37.8612 94.1982 -37.241 97.2789L-43.123 98.4629ZM-45.754 78.8346C-45.8792 77.3419 -45.9671 76.1173 -46.0238 75.2635C-46.0521 74.8365 -46.0727 74.502 -46.0863 74.2728C-46.0931 74.1582 -46.0981 74.0699 -46.1015 74.0094C-46.1032 73.9792 -46.1044 73.956 -46.1053 73.9399C-46.1058 73.9319 -46.1061 73.9257 -46.1063 73.9213C-46.1064 73.9191 -46.1065 73.9173 -46.1066 73.916C-46.1066 73.9154 -46.1067 73.9148 -46.1067 73.9144C-46.1067 73.9142 -46.1067 73.914 -46.1067 73.9139C-46.1067 73.9138 -46.1067 73.9137 -46.1067 73.9137C-46.1067 73.9136 -46.1067 73.9135 -43.1109 73.7554C-40.1151 73.5973 -40.1151 73.5973 -40.1151 73.5972C-40.1151 73.5972 -40.1151 73.5972 -40.1151 73.5971C-40.1151 73.5971 -40.1151 73.5971 -40.1151 73.5971C-40.1151 73.5972 -40.1151 73.5973 -40.1151 73.5976C-40.115 73.5981 -40.115 73.5991 -40.1149 73.6005C-40.1147 73.6034 -40.1145 73.6081 -40.1141 73.6146C-40.1134 73.6275 -40.1123 73.6476 -40.1108 73.6746C-40.1078 73.7286 -40.1032 73.8104 -40.0968 73.9182C-40.084 74.1339 -40.0643 74.4541 -40.037 74.8659C-39.9823 75.6897 -39.8969 76.8793 -39.775 78.3332L-45.754 78.8346Z" fill="#BBBBBB"/>
</svg>
