<svg width="35" height="35" viewBox="0 0 35 35" fill="none" xmlns="http://www.w3.org/2000/svg">
<path d="M22.6775 13.1248C22.8591 13.1939 23.052 13.2286 23.2463 13.2269H29.0796C29.4664 13.2269 29.8373 13.0732 30.1108 12.7997C30.3843 12.5262 30.538 12.1553 30.538 11.7685C30.538 11.3818 30.3843 11.0108 30.1108 10.7373C29.8373 10.4639 29.4664 10.3102 29.0796 10.3102H26.7609L31.5588 5.51229C31.7114 5.38155 31.8354 5.22067 31.923 5.03975C32.0105 4.85882 32.0597 4.66175 32.0674 4.46091C32.0752 4.26007 32.0414 4.05979 31.968 3.87265C31.8947 3.68551 31.7835 3.51555 31.6414 3.37343C31.4993 3.2313 31.3293 3.12009 31.1422 3.04678C30.955 2.97346 30.7548 2.93962 30.5539 2.94738C30.3531 2.95513 30.156 3.00432 29.9751 3.09186C29.7941 3.17939 29.6333 3.30338 29.5025 3.45604L24.7046 8.23937V5.92062C24.7046 5.53385 24.551 5.16292 24.2775 4.88943C24.004 4.61594 23.6331 4.46229 23.2463 4.46229C22.8595 4.46229 22.4886 4.61594 22.2151 4.88943C21.9416 5.16292 21.788 5.53385 21.788 5.92062V11.754C21.7863 11.9482 21.8209 12.1411 21.89 12.3227C21.9617 12.5019 22.0682 12.665 22.2034 12.8027C22.3386 12.9404 22.4997 13.0498 22.6775 13.1248ZM28.3505 18.9581C28.0296 18.9581 27.6942 18.856 27.3734 18.7831C26.7237 18.64 26.0852 18.4499 25.4629 18.2144C24.7864 17.9683 24.0427 17.981 23.3751 18.2503C22.7074 18.5195 22.1629 19.0261 21.8463 19.6727L21.5255 20.329C20.105 19.5388 18.7998 18.5574 17.6463 17.4123C16.5012 16.2588 15.5198 14.9535 14.7296 13.5331L15.3421 13.1248C15.9887 12.8082 16.4953 12.2637 16.7646 11.596C17.0338 10.9283 17.0466 10.1847 16.8005 9.50812C16.5689 8.88457 16.3789 8.24637 16.2317 7.59771C16.1588 7.27687 16.1005 6.94146 16.0567 6.60604C15.8796 5.57882 15.3416 4.64858 14.5395 3.98285C13.7374 3.31711 12.724 2.95964 11.6817 2.97479H7.3067C6.67821 2.96889 6.05582 3.09848 5.4819 3.35473C4.90799 3.61098 4.39603 3.98789 3.98087 4.45978C3.56571 4.93168 3.25711 5.48749 3.07606 6.08937C2.89501 6.69126 2.84578 7.32508 2.9317 7.94771C3.70861 14.0572 6.49883 19.7338 10.8616 24.0807C15.2244 28.4277 20.9111 31.1972 27.0234 31.9519H27.5775C28.6529 31.9535 29.6912 31.5589 30.4942 30.8435C30.9556 30.4309 31.3241 29.9251 31.5755 29.3594C31.8269 28.7938 31.9554 28.1813 31.9525 27.5623V23.1873C31.9347 22.1743 31.5658 21.1989 30.9089 20.4276C30.2519 19.6563 29.3477 19.137 28.3505 18.9581ZM29.0796 27.7081C29.0794 27.9152 29.035 28.1198 28.9495 28.3084C28.864 28.497 28.7393 28.6652 28.5838 28.8019C28.4208 28.9426 28.2303 29.0477 28.0244 29.1104C27.8184 29.1732 27.6017 29.1923 27.388 29.1665C21.9263 28.4662 16.8533 25.9676 12.969 22.0648C9.0847 18.162 6.61022 13.0772 5.93587 7.61229C5.91266 7.39867 5.933 7.18256 5.99566 6.97703C6.05833 6.77149 6.16201 6.58079 6.30045 6.41646C6.43711 6.2609 6.60533 6.13623 6.79392 6.05073C6.98251 5.96524 7.18714 5.92089 7.3942 5.92062H11.7692C12.1083 5.91308 12.4395 6.02399 12.7057 6.23427C12.9718 6.44455 13.1564 6.74104 13.2275 7.07271C13.2859 7.47132 13.3588 7.86507 13.4463 8.25396C13.6148 9.02271 13.839 9.77818 14.1171 10.5144L12.0755 11.4623C11.9009 11.5424 11.7439 11.6562 11.6134 11.7971C11.4829 11.9381 11.3816 12.1034 11.3152 12.2836C11.2488 12.4638 11.2186 12.6554 11.2265 12.8473C11.2343 13.0392 11.28 13.2277 11.3609 13.4019C13.4597 17.8976 17.0735 21.5114 21.5692 23.6102C21.9242 23.7561 22.3225 23.7561 22.6775 23.6102C22.8594 23.5452 23.0265 23.4446 23.1692 23.3144C23.3119 23.1843 23.4274 23.027 23.5088 22.8519L24.413 20.8102C25.1669 21.0798 25.9363 21.3038 26.7171 21.481C27.106 21.5685 27.4998 21.6415 27.8984 21.6998C28.23 21.7709 28.5265 21.9555 28.7368 22.2217C28.9471 22.4878 29.058 22.819 29.0505 23.1581L29.0796 27.7081Z" fill="#ED0101" fill-opacity="0.59"/>
</svg>
