<svg width="36" height="36" viewBox="0 0 36 36" fill="none" xmlns="http://www.w3.org/2000/svg">
<path d="M30.2894 20.4473C29.9026 20.4473 29.5317 20.6009 29.2582 20.8744C28.9847 21.1479 28.8311 21.5188 28.8311 21.9056V27.7389C28.8311 28.1257 28.6774 28.4966 28.4039 28.7701C28.1304 29.0436 27.7595 29.1973 27.3727 29.1973H6.95605C6.56928 29.1973 6.19835 29.0436 5.92486 28.7701C5.65137 28.4966 5.49772 28.1257 5.49772 27.7389V13.7535L14.0727 22.3431C14.893 23.1624 16.005 23.6226 17.1644 23.6226C18.3238 23.6226 19.4357 23.1624 20.2561 22.3431L22.6477 19.9514C22.9223 19.6768 23.0766 19.3044 23.0766 18.916C23.0766 18.5277 22.9223 18.1552 22.6477 17.8806C22.3731 17.606 22.0007 17.4517 21.6123 17.4517C21.2239 17.4517 20.8515 17.606 20.5769 17.8806L18.1852 20.2723C17.9126 20.5395 17.5461 20.6891 17.1644 20.6891C16.7827 20.6891 16.4162 20.5395 16.1436 20.2723L7.55397 11.6973H17.1644C17.5512 11.6973 17.9221 11.5436 18.1956 11.2701C18.4691 10.9966 18.6227 10.6257 18.6227 10.2389C18.6227 9.85216 18.4691 9.48123 18.1956 9.20774C17.9221 8.93424 17.5512 8.7806 17.1644 8.7806H6.95605C5.79573 8.7806 4.68293 9.24153 3.86246 10.062C3.04199 10.8825 2.58105 11.9953 2.58105 13.1556V27.7389C2.58105 28.8993 3.04199 30.0121 3.86246 30.8325C4.68293 31.653 5.79573 32.1139 6.95605 32.1139H27.3727C28.533 32.1139 29.6458 31.653 30.4663 30.8325C31.2868 30.0121 31.7477 28.8993 31.7477 27.7389V21.9056C31.7477 21.5188 31.5941 21.1479 31.3206 20.8744C31.0471 20.6009 30.6762 20.4473 30.2894 20.4473ZM32.7831 10.6618C32.6476 10.5252 32.4863 10.4167 32.3086 10.3426C32.1309 10.2686 31.9402 10.2305 31.7477 10.2305C31.5552 10.2305 31.3646 10.2686 31.1869 10.3426C31.0092 10.4167 30.8479 10.5252 30.7123 10.6618L28.8311 12.5577V4.4056C28.8311 4.01882 28.6774 3.64789 28.4039 3.3744C28.1304 3.10091 27.7595 2.94727 27.3727 2.94727C26.9859 2.94727 26.615 3.10091 26.3415 3.3744C26.068 3.64789 25.9144 4.01882 25.9144 4.4056V12.5577L24.0331 10.6618C23.8972 10.5259 23.7357 10.418 23.5581 10.3444C23.3804 10.2708 23.19 10.233 22.9977 10.233C22.6094 10.233 22.2369 10.3872 21.9623 10.6618C21.8263 10.7978 21.7185 10.9592 21.6449 11.1369C21.5713 11.3146 21.5334 11.505 21.5334 11.6973C21.5334 12.0856 21.6877 12.4581 21.9623 12.7327L26.3373 17.1077C26.476 17.2404 26.6395 17.3445 26.8186 17.4139C26.9931 17.4911 27.1819 17.5309 27.3727 17.5309C27.5636 17.5309 27.7523 17.4911 27.9269 17.4139C28.1059 17.3445 28.2694 17.2404 28.4081 17.1077L32.7831 12.7327C32.9198 12.5971 33.0283 12.4358 33.1024 12.2581C33.1764 12.0804 33.2145 11.8898 33.2145 11.6973C33.2145 11.5047 33.1764 11.3141 33.1024 11.1364C33.0283 10.9587 32.9198 10.7974 32.7831 10.6618Z" fill="#E1114C" fill-opacity="0.53"/>
</svg>
