<svg width="63" height="147" viewBox="0 0 63 147" fill="none" xmlns="http://www.w3.org/2000/svg">
<path d="M20.2957 55.5954L21.6916 56.1446L20.2957 55.5954ZM-20.7486 74.9113L-19.2773 75.2033L-20.7486 74.9113ZM-92.2779 91.5131C-91.7238 90.8973 -90.7753 90.8473 -90.1595 91.4014L-80.1238 100.431C-79.508 100.985 -79.458 101.934 -80.0121 102.549C-80.5662 103.165 -81.5146 103.215 -82.1304 102.661L-91.051 94.6348L-99.0774 103.555C-99.6315 104.171 -100.58 104.221 -101.196 103.667C-101.812 103.113 -101.862 102.165 -101.308 101.549L-92.2779 91.5131ZM55.813 95.5534C55.8849 94.7281 56.6122 94.1174 57.4375 94.1892C58.2628 94.2611 58.8735 94.9884 58.8017 95.8137L55.813 95.5534ZM59.6125 85.6722C59.552 86.4984 58.8332 87.1192 58.007 87.0587C57.1808 86.9983 56.56 86.2795 56.6205 85.4532L59.6125 85.6722ZM57.2928 75.3413C57.3421 74.5143 58.0525 73.8839 58.8794 73.9333C59.7064 73.9826 60.3368 74.6929 60.2875 75.5199L57.2928 75.3413ZM60.8182 65.3564C60.7815 66.184 60.0807 66.8251 59.2531 66.7883C58.4255 66.7516 57.7844 66.0509 57.8212 65.2232L60.8182 65.3564ZM58.1814 55.091C58.203 54.2628 58.8918 53.609 59.7199 53.6305C60.5481 53.652 61.2019 54.3408 61.1804 55.169L58.1814 55.091ZM61.33 44.9816C61.3282 45.81 60.6552 46.4801 59.8267 46.4783C58.9983 46.4764 58.3282 45.8034 58.33 44.975L61.33 44.9816ZM58.1935 34.8614C58.1675 34.0334 58.8176 33.341 59.6456 33.315C60.4737 33.289 61.166 33.9391 61.192 34.7671L58.1935 34.8614ZM60.621 24.5588C60.6916 25.3842 60.0796 26.1106 59.2542 26.1811C58.4288 26.2516 57.7025 25.6397 57.6319 24.8143L60.621 24.5588ZM56.3121 14.9019C56.1506 14.0894 56.6784 13.2998 57.4909 13.1383C58.3035 12.9768 59.0931 13.5045 59.2546 14.3171L56.3121 14.9019ZM55.4468 4.24002C55.9627 4.88814 55.8556 5.83183 55.2075 6.34781C54.5594 6.86379 53.6157 6.75668 53.0997 6.10857L55.4468 4.24002ZM46.7697 7.15423C46.1748 7.73083 45.2252 7.71605 44.6486 7.12122C44.072 6.52639 44.0868 5.57676 44.6816 5.00016L46.7697 7.15423ZM38.3439 13.3092C38.7823 12.6063 39.7076 12.392 40.4105 12.8304C41.1133 13.2689 41.3277 14.1942 40.8892 14.897L38.3439 13.3092ZM35.9583 23.6865C35.5793 24.4231 34.6748 24.713 33.9382 24.334C33.2016 23.9549 32.9117 23.0505 33.2907 22.3139L35.9583 23.6865ZM28.8173 31.5414C29.1636 30.7888 30.0544 30.4595 30.807 30.8058C31.5595 31.1521 31.8889 32.0429 31.5426 32.7955L28.8173 31.5414ZM27.4823 41.9768C27.1572 42.7388 26.276 43.093 25.514 42.7679C24.7521 42.4429 24.3979 41.5616 24.7229 40.7996L27.4823 41.9768ZM20.8634 50.1155C21.1732 49.3472 22.0472 48.9755 22.8155 49.2853C23.5838 49.5951 23.9555 50.4691 23.6457 51.2374L20.8634 50.1155ZM19.6948 61.1888C19.3882 61.9584 18.5158 62.3338 17.7462 62.0272C16.9766 61.7206 16.6012 60.8482 16.9078 60.0786L19.6948 61.1888ZM12.9993 69.761C13.3132 68.9943 14.1891 68.6272 14.9558 68.9411C15.7225 69.2549 16.0896 70.1309 15.7757 70.8976L12.9993 69.761ZM11.7533 80.5665C11.4304 81.3294 10.5502 81.6861 9.78731 81.3632C9.02439 81.0404 8.66767 80.1602 8.99055 79.3972L11.7533 80.5665ZM4.83633 89.0167C5.17086 88.2588 6.05644 87.9156 6.81431 88.2502C7.57219 88.5847 7.91538 89.4703 7.58085 90.2282L4.83633 89.0167ZM3.20576 99.8789C2.8553 100.63 1.96267 100.954 1.21203 100.603C0.461384 100.253 0.136971 99.3604 0.487434 98.6098L3.20576 99.8789ZM-4.10263 108.078C-3.72861 107.339 -2.82618 107.043 -2.08699 107.417C-1.34779 107.791 -1.05176 108.693 -1.42578 109.432L-4.10263 108.078ZM-6.38697 118.676C-6.80042 119.394 -7.71754 119.641 -8.43542 119.228C-9.1533 118.814 -9.4001 117.897 -8.98665 117.179L-6.38697 118.676ZM-14.6418 125.867C-14.1348 125.211 -13.1927 125.091 -12.5375 125.598C-11.8823 126.105 -11.7622 127.047 -12.2692 127.703L-14.6418 125.867ZM-22.5545 132.95C-23.245 132.492 -23.4336 131.561 -22.9759 130.871C-22.5182 130.18 -21.5874 129.992 -20.8969 130.449L-22.5545 132.95ZM-23.4412 121.836C-23.3718 122.661 -23.9847 123.387 -24.8102 123.456C-25.6357 123.526 -26.3612 122.913 -26.4306 122.087L-23.4412 121.836ZM-26.6009 111.39C-26.5733 110.562 -25.8797 109.913 -25.0517 109.941C-24.2238 109.968 -23.575 110.662 -23.6026 111.49L-26.6009 111.39ZM-22.9342 101.063C-23.0086 101.888 -23.7379 102.497 -24.563 102.422C-25.388 102.348 -25.9965 101.619 -25.922 100.794L-22.9342 101.063ZM-24.7515 90.2732C-24.6438 89.4518 -23.8907 88.8732 -23.0693 88.9808C-22.2479 89.0885 -21.6692 89.8416 -21.7769 90.663L-24.7515 90.2732ZM-20.217 80.3058C-20.357 81.1223 -21.1324 81.6707 -21.9489 81.5307C-22.7654 81.3907 -23.3139 80.6152 -23.1738 79.7987L-20.217 80.3058ZM-21.3734 69.5453C-21.2624 68.7244 -20.5069 68.1488 -19.6859 68.2598C-18.865 68.3708 -18.2894 69.1263 -18.4004 69.9473L-21.3734 69.5453ZM-17.6913 59.2931C-17.6835 60.1215 -18.3487 60.7994 -19.1771 60.8072C-20.0055 60.8151 -20.6834 60.1499 -20.6912 59.3215L-17.6913 59.2931ZM-21.9707 49.4276C-22.2226 48.6384 -21.787 47.7944 -20.9978 47.5425C-20.2086 47.2906 -19.3646 47.7262 -19.1127 48.5154L-21.9707 49.4276ZM-28.8513 43.3693C-28.1419 42.9414 -27.22 43.1695 -26.7921 43.8789C-26.3642 44.5883 -26.5923 45.5102 -27.3017 45.9381L-28.8513 43.3693ZM-33.7029 53.1746C-34.1521 53.8706 -35.0805 54.0708 -35.7766 53.6217C-36.4727 53.1725 -36.6728 52.2441 -36.2237 51.548L-33.7029 53.1746ZM-41.4091 60.8842C-41.0436 60.1408 -40.1446 59.8344 -39.4011 60.2C-38.6577 60.5655 -38.3514 61.4644 -38.7169 62.2079L-41.4091 60.8842ZM-42.9938 71.6552C-43.3153 72.4187 -44.1948 72.7771 -44.9583 72.4557C-45.7219 72.1343 -46.0803 71.2548 -45.7589 70.4912L-42.9938 71.6552ZM-49.6239 80.2046C-49.3311 79.4296 -48.4655 79.0388 -47.6905 79.3316C-46.9156 79.6245 -46.5248 80.4901 -46.8176 81.265L-49.6239 80.2046ZM-50.3751 91.0943C-50.6471 91.8768 -51.502 92.2907 -52.2844 92.0187C-53.0669 91.7467 -53.4808 90.8918 -53.2088 90.1093L-50.3751 91.0943ZM-56.5334 100.009C-56.2773 99.2215 -55.4311 98.7903 -54.6432 99.0464C-53.8554 99.3025 -53.4243 100.149 -53.6803 100.937L-56.5334 100.009ZM-56.8617 110.827C-57.1225 111.613 -57.9714 112.039 -58.7577 111.778C-59.544 111.517 -59.97 110.668 -59.7091 109.882L-56.8617 110.827ZM-62.9411 119.064C-62.6496 118.288 -61.7847 117.896 -61.0092 118.188C-60.2337 118.479 -59.8414 119.344 -60.1329 120.119L-62.9411 119.064ZM-63.9441 129.386C-64.288 130.14 -65.1778 130.472 -65.9315 130.128C-66.6851 129.784 -67.0172 128.894 -66.6732 128.14L-63.9441 129.386ZM-71.2206 136.579C-70.7592 135.891 -69.8274 135.707 -69.1394 136.168C-68.4513 136.629 -68.2675 137.561 -68.7288 138.249L-71.2206 136.579ZM-77.5476 144.636C-78.3736 144.572 -78.991 143.85 -78.9267 143.024C-78.8624 142.198 -78.1407 141.581 -77.3148 141.645L-77.5476 144.636ZM-82.3727 135.557C-82.0519 136.321 -82.411 137.2 -83.1748 137.521C-83.9386 137.842 -84.8178 137.483 -85.1386 136.719L-82.3727 135.557ZM-88.1212 127.067C-88.3108 126.261 -87.8108 125.453 -87.0044 125.264C-86.1979 125.074 -85.3905 125.574 -85.2008 126.381L-88.1212 127.067ZM-87.0575 116.792C-86.9264 117.61 -87.4833 118.379 -88.3013 118.51C-89.1193 118.641 -89.8886 118.084 -90.0197 117.266L-87.0575 116.792ZM-91.3601 107.422C-91.4547 106.599 -90.8642 105.855 -90.0412 105.76C-89.2182 105.666 -88.4743 106.256 -88.3797 107.079L-91.3601 107.422ZM-89.3294 97.2817C-89.2638 98.1075 -89.8801 98.8301 -90.706 98.8957C-91.5318 98.9613 -92.2544 98.345 -92.32 97.5191L-89.3294 97.2817ZM56.849 100.676C55.3564 100.527 55.3564 100.527 55.3564 100.527C55.3564 100.527 55.3564 100.527 55.3564 100.527C55.3565 100.527 55.3565 100.527 55.3565 100.527C55.3565 100.527 55.3565 100.526 55.3566 100.526C55.3566 100.525 55.3568 100.524 55.3569 100.522C55.3573 100.519 55.3578 100.514 55.3585 100.507C55.3598 100.493 55.3619 100.472 55.3646 100.444C55.3701 100.389 55.3783 100.306 55.3889 100.196C55.4102 99.9761 55.4416 99.6499 55.4815 99.2249C55.5614 98.375 55.6756 97.1303 55.813 95.5534L58.8017 95.8137C58.6637 97.3979 58.5488 98.6494 58.4683 99.5056C58.4281 99.9337 58.3965 100.263 58.3749 100.486C58.3641 100.597 58.3558 100.681 58.3502 100.738C58.3474 100.767 58.3453 100.788 58.3438 100.803C58.3431 100.81 58.3425 100.816 58.3422 100.819C58.342 100.821 58.3418 100.823 58.3417 100.824C58.3417 100.824 58.3417 100.825 58.3416 100.825C58.3416 100.825 58.3416 100.825 58.3416 100.825C58.3416 100.825 58.3416 100.825 58.3416 100.825C58.3416 100.825 58.3416 100.825 56.849 100.676ZM56.6205 85.4532C56.8447 82.3899 57.0758 78.9805 57.2928 75.3413L60.2875 75.5199C60.0696 79.1741 59.8376 82.5971 59.6125 85.6722L56.6205 85.4532ZM57.8212 65.2232C57.9683 61.9112 58.0925 58.511 58.1814 55.091L61.1804 55.169C61.0909 58.6096 60.966 62.0283 60.8182 65.3564L57.8212 65.2232ZM58.33 44.975C58.3376 41.5286 58.2963 38.1337 58.1935 34.8614L61.192 34.7671C61.2961 38.0786 61.3377 41.5076 61.33 44.9816L58.33 44.975ZM57.6319 24.8143C57.3169 21.1279 56.884 17.7791 56.3121 14.9019L59.2546 14.3171C59.8548 17.3367 60.3 20.8022 60.621 24.5588L57.6319 24.8143ZM53.0997 6.10857C52.2704 5.0669 51.495 4.74497 50.7136 4.80312C49.8141 4.87006 48.5141 5.46327 46.7697 7.15423L44.6816 5.00016C46.6227 3.11854 48.5575 1.95527 50.491 1.81139C52.5425 1.65872 54.1981 2.67164 55.4468 4.24002L53.0997 6.10857ZM40.8892 14.897C39.3666 17.3378 37.7253 20.2526 35.9583 23.6865L33.2907 22.3139C35.0861 18.8248 36.7679 15.8355 38.3439 13.3092L40.8892 14.897ZM31.5426 32.7955C30.2454 35.6146 28.8927 38.671 27.4823 41.9768L24.7229 40.7996C26.143 37.4711 27.507 34.3888 28.8173 31.5414L31.5426 32.7955ZM23.6457 51.2374C23.005 52.8264 22.3537 54.4618 21.6916 56.1446L18.8999 55.0462C19.5649 53.3559 20.2194 51.7126 20.8634 50.1155L23.6457 51.2374ZM21.6916 56.1446C21.0167 57.86 20.3511 59.5413 19.6948 61.1888L16.9078 60.0786C17.5625 58.4351 18.2265 56.7578 18.8999 55.0462L21.6916 56.1446ZM15.7757 70.8976C14.3902 74.2819 13.0499 77.5029 11.7533 80.5665L8.99055 79.3972C10.2822 76.3453 11.618 73.1352 12.9993 69.761L15.7757 70.8976ZM7.58085 90.2282C6.05528 93.6843 4.59781 96.8973 3.20576 99.8789L0.487434 98.6098C1.86964 95.6492 3.31837 92.4556 4.83633 89.0167L7.58085 90.2282ZM-1.42578 109.432C-3.20192 112.943 -4.85302 116.013 -6.38697 118.676L-8.98665 117.179C-7.48482 114.572 -5.85944 111.55 -4.10263 108.078L-1.42578 109.432ZM-12.2692 127.703C-14.1918 130.187 -15.9474 131.907 -17.5755 132.827C-19.2659 133.782 -21.0248 133.964 -22.5545 132.95L-20.8969 130.449C-20.5923 130.651 -20.0971 130.806 -19.0515 130.215C-17.9436 129.589 -16.4812 128.243 -14.6418 125.867L-12.2692 127.703ZM-26.4306 122.087C-26.6954 118.939 -26.731 115.285 -26.6009 111.39L-23.6026 111.49C-23.7303 115.316 -23.6928 118.844 -23.4412 121.836L-26.4306 122.087ZM-25.922 100.794C-25.6039 97.2711 -25.2023 93.7136 -24.7515 90.2732L-21.7769 90.663C-22.2231 94.0677 -22.6201 97.585 -22.9342 101.063L-25.922 100.794ZM-23.1738 79.7987C-22.8584 77.9594 -22.5379 76.2214 -22.2199 74.6192L-19.2773 75.2033C-19.5897 76.7772 -19.9055 78.4894 -20.217 80.3058L-23.1738 79.7987ZM-22.2199 74.6192C-21.881 72.9121 -21.5991 71.2147 -21.3734 69.5453L-18.4004 69.9473C-18.6343 71.6775 -18.9264 73.4357 -19.2773 75.2033L-22.2199 74.6192ZM-20.6912 59.3215C-20.729 55.3251 -21.1759 51.9177 -21.9707 49.4276L-19.1127 48.5154C-18.1934 51.3958 -17.7307 55.1307 -17.6913 59.2931L-20.6912 59.3215ZM-27.3017 45.9381C-28.9856 46.9539 -31.1342 49.1937 -33.7029 53.1746L-36.2237 51.548C-33.5761 47.4448 -31.1262 44.7416 -28.8513 43.3693L-27.3017 45.9381ZM-38.7169 62.2079C-40.0759 64.9722 -41.5021 68.1112 -42.9938 71.6552L-45.7589 70.4912C-44.248 66.902 -42.7978 63.7088 -41.4091 60.8842L-38.7169 62.2079ZM-46.8176 81.265C-47.9706 84.3161 -49.1566 87.5888 -50.3751 91.0943L-53.2088 90.1093C-51.9822 86.5807 -50.7871 83.2827 -49.6239 80.2046L-46.8176 81.265ZM-53.6803 100.937C-54.2133 102.577 -54.7519 104.259 -55.2961 105.984L-58.1571 105.081C-57.6104 103.348 -57.0692 101.658 -56.5334 100.009L-53.6803 100.937ZM-55.2961 105.984C-55.8255 107.662 -56.3474 109.276 -56.8617 110.827L-59.7091 109.882C-59.1997 108.346 -58.6824 106.747 -58.1571 105.081L-55.2961 105.984ZM-60.1329 120.119C-61.4548 123.636 -62.7243 126.714 -63.9441 129.386L-66.6732 128.14C-65.4873 125.542 -64.2438 122.53 -62.9411 119.064L-60.1329 120.119ZM-68.7288 138.249C-70.1966 140.438 -71.6332 142.063 -73.0618 143.127C-74.5027 144.201 -76.0104 144.756 -77.5476 144.636L-77.3148 141.645C-76.6993 141.693 -75.895 141.497 -74.854 140.721C-73.8006 139.937 -72.5853 138.614 -71.2206 136.579L-68.7288 138.249ZM-85.1386 136.719C-86.3022 133.949 -87.2868 130.615 -88.1212 127.067L-85.2008 126.381C-84.3866 129.843 -83.447 133 -82.3727 135.557L-85.1386 136.719ZM-90.0197 117.266C-90.5618 113.882 -91.0038 110.522 -91.3601 107.422L-88.3797 107.079C-88.0273 110.145 -87.5911 113.461 -87.0575 116.792L-90.0197 117.266ZM-92.32 97.5191C-92.4404 96.0025 -92.5255 94.7742 -92.5805 93.9238C-92.608 93.4986 -92.628 93.1679 -92.6411 92.9428C-92.6477 92.8302 -92.6525 92.744 -92.6558 92.6857C-92.6574 92.6565 -92.6586 92.6343 -92.6594 92.6192C-92.6598 92.6117 -92.6602 92.6059 -92.6604 92.6019C-92.6605 92.6 -92.6606 92.5984 -92.6606 92.5973C-92.6606 92.5968 -92.6607 92.5964 -92.6607 92.5961C-92.6607 92.5959 -92.6607 92.5958 -92.6607 92.5957C-92.6607 92.5956 -92.6607 92.5956 -92.6607 92.5956C-92.6607 92.5955 -92.6607 92.5955 -91.1628 92.5164C-89.6649 92.4374 -89.6649 92.4374 -89.6649 92.4374C-89.6649 92.4373 -89.6649 92.4374 -89.6649 92.4374C-89.6649 92.4374 -89.6649 92.4374 -89.6649 92.4375C-89.6649 92.4376 -89.6649 92.4379 -89.6648 92.4383C-89.6648 92.439 -89.6647 92.4402 -89.6646 92.4418C-89.6645 92.4451 -89.6642 92.4502 -89.6638 92.4571C-89.6631 92.4708 -89.6619 92.4916 -89.6604 92.5194C-89.6573 92.5749 -89.6526 92.6582 -89.6462 92.7678C-89.6334 92.987 -89.6138 93.3116 -89.5867 93.7303C-89.5326 94.5676 -89.4486 95.7813 -89.3294 97.2817L-92.32 97.5191ZM20.2957 55.5954L23.0874 56.6938L20.2957 55.5954ZM-20.7486 74.9113L-17.806 75.4954L-20.7486 74.9113ZM-93.3929 90.5098C-92.2847 89.2781 -90.3879 89.1781 -89.1562 90.2863L-69.0849 108.346C-67.8532 109.454 -67.7531 111.351 -68.8613 112.582C-69.9696 113.814 -71.8664 113.914 -73.0981 112.806L-90.9392 96.7532L-106.992 114.594C-108.1 115.826 -109.997 115.926 -111.229 114.818C-112.46 113.71 -112.561 111.813 -111.452 110.581L-93.3929 90.5098ZM54.3186 95.4233C54.4624 93.7727 55.917 92.5511 57.5676 92.6949C59.2182 92.8387 60.4398 94.2933 60.296 95.9439L54.3186 95.4233ZM61.1085 85.7817C60.9876 87.4341 59.55 88.6757 57.8975 88.5547C56.2451 88.4338 55.0036 86.9962 55.1245 85.3438L61.1085 85.7817ZM55.7954 75.252C55.8941 73.5981 57.3148 72.3373 58.9687 72.4359C60.6226 72.5345 61.8834 73.9552 61.7848 75.6092L55.7954 75.252ZM62.3167 65.4229C62.2432 67.0782 60.8418 68.3604 59.1866 68.2868C57.5313 68.2133 56.2491 66.8119 56.3226 65.1567L62.3167 65.4229ZM56.6819 55.052C56.725 53.3957 58.1026 52.0879 59.7589 52.131C61.4152 52.1741 62.723 53.5517 62.6799 55.208L56.6819 55.052ZM62.83 44.9849C62.8264 46.6417 61.4803 47.9819 59.8234 47.9783C58.1666 47.9746 56.8264 46.6285 56.83 44.9717L62.83 44.9849ZM56.6942 34.9085C56.6422 33.2525 57.9425 31.8678 59.5985 31.8157C61.2546 31.7637 62.6392 33.064 62.6913 34.72L56.6942 34.9085ZM62.1156 24.4311C62.2567 26.0819 61.0328 27.5346 59.3819 27.6757C57.7311 27.8167 56.2785 26.5929 56.1374 24.942L62.1156 24.4311ZM54.8409 15.1943C54.5179 13.5693 55.5735 11.9901 57.1985 11.6671C58.8236 11.3441 60.4028 12.3996 60.7258 14.0247L54.8409 15.1943ZM56.6203 3.30575C57.6522 4.60198 57.438 6.48936 56.1418 7.52133C54.8456 8.55329 52.9582 8.33907 51.9262 7.04284L56.6203 3.30575ZM47.8137 8.23126C46.624 9.38447 44.7248 9.35491 43.5716 8.16525C42.4184 6.97559 42.4479 5.07632 43.6376 3.92312L47.8137 8.23126ZM37.0712 12.5152C37.9482 11.1095 39.7987 10.6808 41.2044 11.5578C42.6101 12.4347 43.0388 14.2852 42.1619 15.691L37.0712 12.5152ZM37.2921 24.3728C36.534 25.8461 34.7251 26.4258 33.2519 25.6677C31.7786 24.9097 31.1989 23.1008 31.957 21.6275L37.2921 24.3728ZM27.4546 30.9144C28.1472 29.4092 29.9288 28.7505 31.434 29.4431C32.9391 30.1357 33.5978 31.9174 32.9052 33.4225L27.4546 30.9144ZM28.862 42.5654C28.2119 44.0894 26.4494 44.7978 24.9254 44.1476C23.4015 43.4975 22.6931 41.735 23.3432 40.211L28.862 42.5654ZM19.4723 49.5545C20.0919 48.0179 21.8399 47.2745 23.3765 47.8942C24.9131 48.5138 25.6565 50.2618 25.0369 51.7984L19.4723 49.5545ZM21.0883 61.7439C20.4752 63.2831 18.7303 64.0339 17.1911 63.4207C15.6519 62.8076 14.9011 61.0627 15.5143 59.5235L21.0883 61.7439ZM11.6112 69.1927C12.2389 67.6593 13.9908 66.9252 15.5241 67.5529C17.0574 68.1806 17.7916 69.9325 17.1639 71.4658L11.6112 69.1927ZM13.1347 81.1511C12.4889 82.6769 10.7285 83.3904 9.20268 82.7446C7.67685 82.0989 6.96341 80.3384 7.60917 78.8126L13.1347 81.1511ZM3.46407 88.411C4.13313 86.8952 5.90428 86.2089 7.42004 86.8779C8.93579 87.547 9.62217 89.3181 8.95311 90.8339L3.46407 88.411ZM4.56492 100.513C3.864 102.015 2.07875 102.664 0.57746 101.963C-0.923828 101.262 -1.57265 99.4765 -0.871728 97.9752L4.56492 100.513ZM-5.44105 107.401C-4.69302 105.922 -2.88815 105.33 -1.40977 106.078C0.0686161 106.826 0.660677 108.631 -0.0873526 110.11L-5.44105 107.401ZM-5.08713 119.425C-5.91403 120.861 -7.74827 121.354 -9.18404 120.527C-10.6198 119.701 -11.1134 117.866 -10.2865 116.431L-5.08713 119.425ZM-15.8281 124.949C-14.8141 123.638 -12.9298 123.398 -11.6195 124.412C-10.3092 125.426 -10.069 127.31 -11.083 128.621L-15.8281 124.949ZM-23.3833 134.2C-24.7643 133.285 -25.1416 131.423 -24.2261 130.042C-23.3107 128.661 -21.449 128.284 -20.0681 129.199L-23.3833 134.2ZM-21.9465 121.71C-21.8076 123.361 -23.0335 124.812 -24.6845 124.951C-26.3356 125.09 -27.7865 123.864 -27.9254 122.213L-21.9465 121.71ZM-28.1001 111.34C-28.0448 109.684 -26.6576 108.386 -25.0017 108.442C-23.3458 108.497 -22.0482 109.884 -22.1034 111.54L-28.1001 111.34ZM-21.4402 101.198C-21.5892 102.848 -23.0477 104.065 -24.6979 103.916C-26.348 103.767 -27.5649 102.309 -27.4159 100.659L-21.4402 101.198ZM-26.2387 90.0783C-26.0234 88.4355 -24.5172 87.2783 -22.8744 87.4936C-21.2315 87.7088 -20.0743 89.2151 -20.2896 90.8579L-26.2387 90.0783ZM-18.7386 80.5593C-19.0186 82.1923 -20.5695 83.2891 -22.2025 83.0091C-23.8355 82.7291 -24.9323 81.1782 -24.6523 79.5452L-18.7386 80.5593ZM-22.8599 69.3444C-22.6379 67.7025 -21.1269 66.5514 -19.485 66.7734C-17.8431 66.9953 -16.692 68.5063 -16.914 70.1483L-22.8599 69.3444ZM-16.1914 59.2789C-16.1757 60.9357 -17.5061 62.2915 -19.1629 62.3072C-20.8197 62.3228 -22.1755 60.9925 -22.1911 59.3357L-16.1914 59.2789ZM-23.3997 49.8836C-23.9035 48.3052 -23.0323 46.6173 -21.4539 46.1135C-19.8755 45.6097 -18.1875 46.4809 -17.6838 48.0593L-23.3997 49.8836ZM-29.6261 42.0849C-28.2073 41.2291 -26.3635 41.6854 -25.5077 43.1041C-24.6519 44.5228 -25.1082 46.3667 -26.5269 47.2225L-29.6261 42.0849ZM-32.4425 53.9878C-33.3408 55.38 -35.1977 55.7804 -36.5899 54.8821C-37.982 53.9837 -38.3824 52.1269 -37.4841 50.7347L-32.4425 53.9878ZM-42.7552 60.2224C-42.0241 58.7356 -40.2262 58.1228 -38.7393 58.8539C-37.2525 59.5849 -36.6397 61.3828 -37.3708 62.8697L-42.7552 60.2224ZM-41.6113 72.2371C-42.2542 73.7642 -44.0132 74.481 -45.5403 73.8382C-47.0673 73.1954 -47.7842 71.4364 -47.1414 69.9093L-41.6113 72.2371ZM-51.0271 79.6743C-50.4414 78.1244 -48.7102 77.3428 -47.1603 77.9285C-45.6104 78.5142 -44.8288 80.2454 -45.4145 81.7953L-51.0271 79.6743ZM-48.9583 91.5868C-49.5023 93.1518 -51.212 93.9795 -52.777 93.4355C-54.342 92.8915 -55.1696 91.1818 -54.6256 89.6168L-48.9583 91.5868ZM-57.9599 99.5457C-57.4478 97.9699 -55.7553 97.1077 -54.1796 97.6199C-52.6038 98.132 -51.7416 99.8245 -52.2538 101.4L-57.9599 99.5457ZM-55.438 111.299C-55.9597 112.871 -57.6574 113.723 -59.23 113.202C-60.8026 112.68 -61.6545 110.982 -61.1328 109.41L-55.438 111.299ZM-64.3451 118.536C-63.7622 116.985 -62.0324 116.201 -60.4815 116.784C-58.9305 117.366 -58.1458 119.096 -58.7288 120.647L-64.3451 118.536ZM-62.5795 130.009C-63.2675 131.516 -65.0471 132.18 -66.5543 131.492C-68.0616 130.804 -68.7257 129.025 -68.0378 127.517L-62.5795 130.009ZM-72.4664 135.743C-71.5438 134.367 -69.6802 133.999 -68.304 134.922C-66.9279 135.845 -66.5602 137.708 -67.4829 139.085L-72.4664 135.743ZM-77.6641 146.131C-79.3159 146.003 -80.5508 144.559 -80.4222 142.908C-80.2936 141.256 -78.8502 140.021 -77.1983 140.149L-77.6641 146.131ZM-80.9897 134.977C-80.3481 136.504 -81.0663 138.263 -82.5939 138.904C-84.1215 139.546 -85.8799 138.828 -86.5216 137.3L-80.9897 134.977ZM-89.5813 127.411C-89.9606 125.798 -88.9606 124.183 -87.3477 123.804C-85.7349 123.424 -84.1199 124.424 -83.7407 126.037L-89.5813 127.411ZM-85.5764 116.554C-85.3143 118.19 -86.428 119.729 -88.064 119.991C-89.7 120.253 -91.2387 119.139 -91.5008 117.503L-85.5764 116.554ZM-92.8503 107.593C-93.0395 105.947 -91.8585 104.459 -90.2125 104.27C-88.5665 104.081 -87.0787 105.262 -86.8895 106.908L-92.8503 107.593ZM-87.8341 97.1629C-87.703 98.8146 -88.9356 100.26 -90.5872 100.391C-92.2389 100.522 -93.6841 99.2895 -93.8153 97.6379L-87.8341 97.1629ZM56.849 100.676C53.8639 100.378 53.8639 100.378 53.8639 100.378C53.8639 100.378 53.8639 100.378 53.8639 100.378C53.8639 100.378 53.8639 100.378 53.8639 100.378C53.8639 100.378 53.8639 100.378 53.864 100.377C53.864 100.376 53.8641 100.375 53.8643 100.374C53.8646 100.37 53.8651 100.365 53.8658 100.359C53.8671 100.345 53.8692 100.325 53.8719 100.297C53.8773 100.242 53.8853 100.16 53.8959 100.051C53.9171 99.8327 53.9483 99.508 53.9881 99.0846C54.0677 98.2378 54.1816 96.9964 54.3186 95.4233L60.296 95.9439C60.1577 97.5317 60.0425 98.7866 59.9618 99.6459C59.9214 100.076 59.8896 100.406 59.8679 100.63C59.857 100.742 59.8487 100.828 59.843 100.885C59.8401 100.914 59.838 100.936 59.8365 100.951C59.8357 100.958 59.8352 100.964 59.8348 100.968C59.8346 100.97 59.8344 100.972 59.8343 100.973C59.8343 100.973 59.8342 100.974 59.8342 100.974C59.8342 100.974 59.8342 100.974 59.8342 100.974C59.8342 100.974 59.8342 100.974 59.8342 100.974C59.8342 100.974 59.8342 100.974 56.849 100.676ZM55.1245 85.3438C55.3483 82.2863 55.5789 78.8837 55.7954 75.252L61.7848 75.6092C61.5665 79.2709 61.334 82.7007 61.1085 85.7817L55.1245 85.3438ZM56.3226 65.1567C56.4694 61.8526 56.5932 58.4617 56.6819 55.052L62.6799 55.208C62.5901 58.659 62.4649 62.0869 62.3167 65.4229L56.3226 65.1567ZM56.83 44.9717C56.8376 41.5391 56.7965 38.1612 56.6942 34.9085L62.6913 34.72C62.796 38.051 62.8377 41.4971 62.83 44.9849L56.83 44.9717ZM56.1374 24.942C55.8253 21.2907 55.3986 18.0003 54.8409 15.1943L60.7258 14.0247C61.3401 17.1155 61.7915 20.6394 62.1156 24.4311L56.1374 24.942ZM51.9262 7.04284C51.3066 6.26453 50.9712 6.2881 50.8249 6.29899C50.4424 6.32745 49.4598 6.63563 47.8137 8.23126L43.6376 3.92312C45.677 1.94617 47.9292 0.497884 50.3796 0.31553C53.0663 0.115599 55.162 1.47401 56.6203 3.30575L51.9262 7.04284ZM42.1619 15.691C40.6659 18.0889 39.0449 20.9664 37.2921 24.3728L31.957 21.6275C33.7665 18.111 35.4685 15.0843 37.0712 12.5152L42.1619 15.691ZM32.9052 33.4225C31.6146 36.2274 30.2675 39.2709 28.862 42.5654L23.3432 40.211C24.7681 36.8711 26.1379 33.7759 27.4546 30.9144L32.9052 33.4225ZM25.0369 51.7984C24.3978 53.3833 23.748 55.0148 23.0874 56.6938L17.504 54.4971C18.1706 52.8029 18.8266 51.1557 19.4723 49.5545L25.0369 51.7984ZM23.0874 56.6938C22.4117 58.4112 21.7454 60.0943 21.0883 61.7439L15.5143 59.5235C16.1682 57.882 16.8314 56.2067 17.504 54.4971L23.0874 56.6938ZM17.1639 71.4658C15.7763 74.8553 14.4337 78.0818 13.1347 81.1511L7.60917 78.8126C8.89834 75.7665 10.2319 72.5618 11.6112 69.1927L17.1639 71.4658ZM8.95311 90.8339C7.42374 94.2987 5.9619 97.5213 4.56492 100.513L-0.871728 97.9752C0.50555 95.0252 1.94991 91.8413 3.46407 88.411L8.95311 90.8339ZM-0.0873526 110.11C-1.87315 113.639 -3.53712 116.734 -5.08713 119.425L-10.2865 116.431C-8.80072 113.851 -7.18821 110.854 -5.44105 107.401L-0.0873526 110.11ZM-11.083 128.621C-13.0471 131.159 -14.9493 133.066 -16.8375 134.133C-18.8503 135.27 -21.2411 135.62 -23.3833 134.2L-20.0681 129.199C-20.3761 128.995 -20.5127 129.318 -19.7895 128.909C-18.9417 128.43 -17.6258 127.272 -15.8281 124.949L-11.083 128.621ZM-27.9254 122.213C-28.1967 118.986 -28.2313 115.27 -28.1001 111.34L-22.1034 111.54C-22.23 115.331 -22.1915 118.796 -21.9465 121.71L-27.9254 122.213ZM-27.4159 100.659C-27.0959 97.1141 -26.6919 93.5365 -26.2387 90.0783L-20.2896 90.8579C-20.7335 94.2447 -21.1282 97.7419 -21.4402 101.198L-27.4159 100.659ZM-24.6523 79.5452C-24.3349 77.6944 -24.012 75.9435 -23.6912 74.3272L-17.806 75.4954C-18.1156 77.0551 -18.4291 78.7544 -18.7386 80.5593L-24.6523 79.5452ZM-23.6912 74.3272C-23.3583 72.6503 -23.0814 70.9833 -22.8599 69.3444L-16.914 70.1483C-17.152 71.9089 -17.4491 73.6974 -17.806 75.4954L-23.6912 74.3272ZM-22.1911 59.3357C-22.2281 55.4224 -22.6672 52.1786 -23.3997 49.8836L-17.6838 48.0593C-16.7022 51.1349 -16.2315 55.0334 -16.1914 59.2789L-22.1911 59.3357ZM-26.5269 47.2225C-27.9154 48.06 -29.9133 50.0682 -32.4425 53.9878L-37.4841 50.7347C-34.797 46.5703 -32.1965 43.6354 -29.6261 42.0849L-26.5269 47.2225ZM-37.3708 62.8697C-38.715 65.6038 -40.1291 68.7159 -41.6113 72.2371L-47.1414 69.9093C-45.621 66.2974 -44.1587 63.0771 -42.7552 60.2224L-37.3708 62.8697ZM-45.4145 81.7953C-46.5623 84.8327 -47.7437 88.0929 -48.9583 91.5868L-54.6256 89.6168C-53.395 86.0767 -52.1954 82.766 -51.0271 79.6743L-45.4145 81.7953ZM-52.2538 101.4C-52.7854 103.036 -53.3226 104.714 -53.8655 106.435L-59.5876 104.63C-59.0397 102.893 -58.4971 101.198 -57.9599 99.5457L-52.2538 101.4ZM-53.8655 106.435C-54.3971 108.12 -54.9212 109.741 -55.438 111.299L-61.1328 109.41C-60.6258 107.881 -60.1108 106.289 -59.5876 104.63L-53.8655 106.435ZM-58.7288 120.647C-60.0602 124.19 -61.3427 127.299 -62.5795 130.009L-68.0378 127.517C-66.8688 124.956 -65.6383 121.977 -64.3451 118.536L-58.7288 120.647ZM-67.4829 139.085C-69.0022 141.351 -70.5496 143.126 -72.1657 144.33C-73.8066 145.552 -75.666 146.287 -77.6641 146.131L-77.1983 140.149C-77.0438 140.161 -76.5912 140.145 -75.7501 139.518C-74.8843 138.873 -73.7797 137.702 -72.4664 135.743L-67.4829 139.085ZM-86.5216 137.3C-87.7298 134.423 -88.737 131.001 -89.5813 127.411L-83.7407 126.037C-82.9364 129.457 -82.0194 132.525 -80.9897 134.977L-86.5216 137.3ZM-91.5008 117.503C-92.0472 114.093 -92.4921 110.71 -92.8503 107.593L-86.8895 106.908C-86.5391 109.957 -86.1057 113.25 -85.5764 116.554L-91.5008 117.503ZM-93.8153 97.6379C-93.9364 96.1132 -94.0219 94.8775 -94.0773 94.0207C-94.105 93.5922 -94.1252 93.2583 -94.1385 93.0302C-94.1452 92.9162 -94.1502 92.8286 -94.1535 92.7689C-94.1551 92.739 -94.1564 92.7161 -94.1572 92.7003C-94.1577 92.6924 -94.158 92.6863 -94.1582 92.682C-94.1583 92.6798 -94.1584 92.6781 -94.1585 92.6769C-94.1585 92.6763 -94.1586 92.6757 -94.1586 92.6753C-94.1586 92.6751 -94.1586 92.675 -94.1586 92.6748C-94.1586 92.6748 -94.1586 92.6747 -94.1586 92.6746C-94.1586 92.6746 -94.1586 92.6745 -91.1628 92.5164C-88.167 92.3584 -88.167 92.3583 -88.167 92.3583C-88.167 92.3583 -88.167 92.3582 -88.167 92.3582C-88.167 92.3582 -88.167 92.3582 -88.167 92.3582C-88.167 92.3583 -88.167 92.3584 -88.1669 92.3587C-88.1669 92.3593 -88.1669 92.3603 -88.1668 92.3618C-88.1666 92.3647 -88.1664 92.3695 -88.166 92.376C-88.1653 92.389 -88.1642 92.4092 -88.1627 92.4362C-88.1597 92.4904 -88.1551 92.5722 -88.1488 92.6803C-88.1361 92.8966 -88.1167 93.218 -88.0899 93.6334C-88.0361 94.4644 -87.9526 95.6706 -87.8341 97.1629L-93.8153 97.6379Z" fill="#BBBBBB"/>
</svg>
