<svg width="77" height="178" viewBox="0 0 77 178" fill="none" xmlns="http://www.w3.org/2000/svg">
<path d="M16.5518 118.617L18.0508 118.563L16.5518 118.617ZM-15.3849 86.7646L-13.8997 86.9746L-15.3849 86.7646ZM-38.8923 45.9313L-37.3931 45.9795L-38.8923 45.9313ZM-76.648 47.3519C-76.3264 48.1154 -75.4468 48.4736 -74.6834 48.152L-62.2421 42.9114C-61.4786 42.5898 -61.1204 41.7102 -61.442 40.9468C-61.7636 40.1833 -62.6432 39.8251 -63.4066 40.1467L-74.4656 44.805L-79.1239 33.746C-79.4455 32.9826 -80.3251 32.6244 -81.0885 32.946C-81.852 33.2675 -82.2102 34.1471 -81.8886 34.9106L-76.648 47.3519ZM71.1142 72.1388C70.8987 72.9387 71.3725 73.7619 72.1724 73.9773C72.9723 74.1928 73.7955 73.719 74.0109 72.9191L71.1142 72.1388ZM71.4099 82.3573C71.6343 81.5599 71.1698 80.7315 70.3723 80.5071C69.5749 80.2827 68.7465 80.7472 68.5221 81.5447L71.4099 82.3573ZM65.8002 91.0269C65.5674 91.822 66.0233 92.6552 66.8183 92.8879C67.6134 93.1207 68.4466 92.6649 68.6794 91.8698L65.8002 91.0269ZM65.8672 101.286C66.1087 100.493 65.6621 99.6549 64.8697 99.4134C64.0772 99.1718 63.239 99.6184 62.9975 100.411L65.8672 101.286ZM60.0695 109.811C59.8181 110.6 60.2542 111.444 61.0435 111.696C61.8329 111.947 62.6766 111.511 62.928 110.722L60.0695 109.811ZM59.8716 120.086C60.1346 119.3 59.711 118.45 58.9254 118.187C58.1399 117.924 57.2898 118.348 57.0268 119.133L59.8716 120.086ZM53.8301 128.411C53.5529 129.192 53.9609 130.049 54.7416 130.326C55.5223 130.604 56.3799 130.196 56.6571 129.415L53.8301 128.411ZM53.2469 138.685C53.5425 137.911 53.1549 137.044 52.381 136.748C51.6071 136.453 50.7401 136.84 50.4444 137.614L53.2469 138.685ZM46.8038 146.716C46.4826 147.479 46.8412 148.359 47.6049 148.68C48.3685 149.001 49.2479 148.643 49.5691 147.879L46.8038 146.716ZM45.5118 156.917C45.8722 156.171 45.5598 155.275 44.8139 154.914C44.0681 154.554 43.1712 154.866 42.8107 155.612L45.5118 156.917ZM38.2437 164.103C37.8105 164.809 38.0318 165.733 38.738 166.166C39.4441 166.599 40.3677 166.378 40.8009 165.672L38.2437 164.103ZM34.2994 173.763C34.9429 173.241 35.0416 172.297 34.5199 171.653C33.9981 171.01 33.0535 170.911 32.41 171.433L34.2994 173.763ZM26.2785 170.808C25.7917 170.138 24.8537 169.989 24.1834 170.476C23.513 170.962 23.3642 171.9 23.8509 172.571L26.2785 170.808ZM19.8889 163.091C20.1019 163.892 20.9235 164.368 21.7241 164.155C22.5247 163.942 23.0011 163.12 22.7881 162.32L19.8889 163.091ZM20.8503 152.739C20.7231 151.921 19.9563 151.36 19.1377 151.487C18.3191 151.615 17.7587 152.381 17.8859 153.2L20.8503 152.739ZM16.64 143.32C16.7239 144.144 17.46 144.744 18.2841 144.66C19.1083 144.576 19.7084 143.84 19.6246 143.016L16.64 143.32ZM18.8111 133.358C18.7542 132.532 18.038 131.908 17.2115 131.965C16.3851 132.022 15.7613 132.738 15.8182 133.564L18.8111 133.358ZM15.2647 123.831C15.3028 124.658 16.0045 125.298 16.8321 125.26C17.6596 125.222 18.2996 124.52 18.2615 123.693L15.2647 123.831ZM17.8427 113.147C17.8091 112.319 17.1109 111.676 16.2831 111.709C15.4554 111.743 14.8116 112.441 14.8451 113.269L17.8427 113.147ZM14.3753 102.849C14.4166 103.676 15.1209 104.313 15.9483 104.272C16.7757 104.231 17.4129 103.526 17.3716 102.699L14.3753 102.849ZM16.7915 92.2545C16.7405 91.4277 16.0289 90.7987 15.2021 90.8496C14.3752 90.9006 13.7462 91.6122 13.7971 92.439L16.7915 92.2545ZM13.0782 81.9966C13.1417 82.8226 13.8627 83.4408 14.6887 83.3773C15.5147 83.3139 16.1328 82.5929 16.0694 81.7669L13.0782 81.9966ZM15.1554 71.2214C15.0748 70.3969 14.341 69.7938 13.5165 69.8745C12.692 69.9551 12.089 70.6888 12.1696 71.5133L15.1554 71.2214ZM10.996 61.0648C11.1022 61.8864 11.8544 62.4663 12.676 62.36C13.4976 62.2537 14.0775 61.5016 13.9712 60.68L10.996 61.0648ZM12.3812 50.3271C12.2314 49.5123 11.4494 48.9732 10.6347 49.1231C9.8199 49.2729 9.28085 50.0548 9.43066 50.8696L12.3812 50.3271ZM7.01421 40.7935C7.27112 41.581 8.11783 42.0112 8.90543 41.7544C9.69301 41.4975 10.1232 40.6507 9.86633 39.8632L7.01421 40.7935ZM1.99615 31.4109C1.19107 31.6062 0.696718 32.4172 0.891987 33.2222C1.08726 34.0273 1.89821 34.5217 2.7033 34.3264L1.99615 31.4109ZM-2.49792 41.6084C-2.16196 40.8512 -2.50348 39.965 -3.26072 39.629C-4.01797 39.293 -4.90419 39.6345 -5.24015 40.3918L-2.49792 41.6084ZM-8.9061 50.43C-9.15196 51.2211 -8.70996 52.0617 -7.91885 52.3076C-7.12775 52.5535 -6.28713 52.1114 -6.04127 51.3203L-8.9061 50.43ZM-8.83525 61.3779C-8.63414 60.5742 -9.12259 59.7597 -9.92624 59.5586C-10.7299 59.3575 -11.5444 59.8459 -11.7455 60.6496L-8.83525 61.3779ZM-14.1013 70.9579C-14.2703 71.7689 -13.7498 72.5634 -12.9388 72.7323C-12.1277 72.9013 -11.3333 72.3808 -11.1644 71.5698L-14.1013 70.9579ZM-13.1038 81.8526C-12.9667 81.0356 -13.5178 80.2621 -14.3348 80.125C-15.1518 79.9879 -15.9253 80.539 -16.0624 81.356L-13.1038 81.8526ZM-17.7432 91.6178C-17.9089 92.4295 -17.3852 93.2218 -16.5735 93.3874C-15.7618 93.5531 -14.9695 93.0294 -14.8038 92.2177L-17.7432 91.6178ZM-17.6323 102.497C-17.3532 101.717 -17.7592 100.858 -18.5391 100.579C-19.3191 100.3 -20.1777 100.706 -20.4569 101.486L-17.6323 102.497ZM-24.8987 110.406C-25.3946 111.069 -25.2587 112.009 -24.5951 112.505C-23.9315 113.001 -22.9916 112.865 -22.4956 112.201L-24.8987 110.406ZM-33.3475 113.756C-32.8291 114.402 -31.885 114.506 -31.2389 113.987C-30.5927 113.469 -30.4892 112.525 -31.0076 111.878L-33.3475 113.756ZM-34.5866 102.896C-34.7763 102.09 -35.5838 101.59 -36.3902 101.779C-37.1966 101.969 -37.6966 102.776 -37.5069 103.583L-34.5866 102.896ZM-39.2706 93.0698C-39.1738 93.8926 -38.4284 94.4811 -37.6056 94.3844C-36.7829 94.2876 -36.1943 93.5422 -36.2911 92.7194L-39.2706 93.0698ZM-37.178 82.3992C-37.2273 81.5722 -37.9375 80.9417 -38.7645 80.991C-39.5915 81.0402 -40.222 81.7505 -40.1727 82.5775L-37.178 82.3992ZM-40.5905 72.1441C-40.5715 72.9723 -39.8848 73.6284 -39.0566 73.6094C-38.2284 73.5905 -37.5723 72.9037 -37.5913 72.0755L-40.5905 72.1441ZM-37.6854 61.6379C-37.6824 60.8095 -38.3517 60.1355 -39.1801 60.1326C-40.0085 60.1297 -40.6824 60.7989 -40.6854 61.6273L-37.6854 61.6379ZM-40.54 51.1993C-40.5595 52.0275 -39.9039 52.7147 -39.0757 52.7342C-38.2475 52.7537 -37.5603 52.0981 -37.5408 51.2699L-40.54 51.1993ZM-37.2657 40.9046C-37.2511 40.0763 -37.9108 39.393 -38.7391 39.3784C-39.5674 39.3639 -40.2507 40.0235 -40.2652 40.8518L-37.2657 40.9046ZM-40.2679 31.1405C-40.2505 31.9687 -39.5649 32.626 -38.7367 32.6086C-37.9084 32.5912 -37.2511 31.9056 -37.2686 31.0774L-40.2679 31.1405ZM-37.7796 21.1005C-37.8527 20.2753 -38.581 19.6657 -39.4062 19.7389C-40.2314 19.8121 -40.841 20.5404 -40.7678 21.3656L-37.7796 21.1005ZM-42.2279 11.9085C-42.0251 12.7117 -41.2096 13.1984 -40.4064 12.9956C-39.6031 12.7928 -39.1164 11.9773 -39.3192 11.174L-42.2279 11.9085ZM-45.3762 2.16228C-46.1714 1.92998 -47.0044 2.3863 -47.2367 3.1815C-47.469 3.97669 -47.0127 4.80962 -46.2175 5.04193L-45.3762 2.16228ZM-52.931 9.07182C-52.3781 8.45487 -52.4301 7.50655 -53.047 6.95366C-53.6639 6.40079 -54.6123 6.45273 -55.1651 7.06967L-52.931 9.07182ZM-61.1231 15.1976C-61.5659 15.8978 -61.3572 16.8243 -60.657 17.2671C-59.9568 17.7098 -59.0303 17.5011 -58.5876 16.8009L-61.1231 15.1976ZM-63.4648 25.2343C-63.0734 24.5041 -63.3479 23.5949 -64.078 23.2035C-64.8082 22.8121 -65.7174 23.0867 -66.1088 23.8168L-63.4648 25.2343ZM-70.5853 32.6574C-70.9441 33.4041 -70.6297 34.3002 -69.883 34.6591C-69.1363 35.0179 -68.2401 34.7035 -67.8813 33.9568L-70.5853 32.6574ZM-71.9768 42.8798C-71.6443 42.1211 -71.9898 41.2364 -72.7486 40.9039C-73.5073 40.5714 -74.392 40.9169 -74.7245 41.6756L-71.9768 42.8798ZM73.8177 67.7943C72.3652 67.42 72.3652 67.42 72.3652 67.42C72.3652 67.42 72.3652 67.42 72.3652 67.42C72.3652 67.4201 72.3652 67.4201 72.3651 67.4202C72.3651 67.4204 72.365 67.4207 72.3649 67.4211C72.3647 67.4218 72.3644 67.423 72.364 67.4246C72.3632 67.4278 72.3619 67.4327 72.3602 67.4392C72.3568 67.4523 72.3518 67.472 72.345 67.4982C72.3314 67.5507 72.311 67.6292 72.284 67.7329C72.23 67.9404 72.1494 68.2488 72.0436 68.6511C71.8318 69.4559 71.5188 70.6367 71.1142 72.1388L74.0109 72.9191C74.4171 71.411 74.7317 70.2245 74.9448 69.4145C75.0514 69.0095 75.1326 68.6986 75.1872 68.4887C75.2146 68.3837 75.2353 68.304 75.2491 68.2504C75.2561 68.2236 75.2613 68.2033 75.2649 68.1896C75.2666 68.1828 75.268 68.1776 75.2689 68.1741C75.2693 68.1724 75.2697 68.171 75.2699 68.1701C75.27 68.1697 75.2701 68.1693 75.2702 68.1691C75.2702 68.169 75.2702 68.1689 75.2702 68.1688C75.2702 68.1687 75.2703 68.1687 75.2703 68.1687C75.2703 68.1687 75.2703 68.1687 73.8177 67.7943ZM68.5221 81.5447C67.7181 84.4019 66.8052 87.594 65.8002 91.0269L68.6794 91.8698C69.6876 88.4258 70.6034 85.2236 71.4099 82.3573L68.5221 81.5447ZM62.9975 100.411C62.069 103.457 61.0901 106.607 60.0695 109.811L62.928 110.722C63.9527 107.505 64.9354 104.343 65.8672 101.286L62.9975 100.411ZM57.0268 119.133C55.9885 122.234 54.9204 125.341 53.8301 128.411L56.6571 129.415C57.7542 126.326 58.8282 123.202 59.8716 120.086L57.0268 119.133ZM50.4444 137.614C49.2437 140.757 48.0271 143.808 46.8038 146.716L49.5691 147.879C50.8072 144.936 52.0362 141.854 53.2469 138.685L50.4444 137.614ZM42.8107 155.612C41.2701 158.8 39.7415 161.661 38.2437 164.103L40.8009 165.672C42.3655 163.121 43.9416 160.166 45.5118 156.917L42.8107 155.612ZM32.41 171.433C31.0459 172.539 29.9603 172.9 29.1148 172.832C28.3112 172.767 27.348 172.281 26.2785 170.808L23.8509 172.571C25.2293 174.469 26.8997 175.663 28.8735 175.822C30.8053 175.978 32.6407 175.108 34.2994 173.763L32.41 171.433ZM22.7881 162.32C22.0839 159.672 21.4342 156.496 20.8503 152.739L17.8859 153.2C18.4815 157.032 19.1508 160.316 19.8889 163.091L22.7881 162.32ZM19.6246 143.016C19.3223 140.046 19.0504 136.831 18.8111 133.358L15.8182 133.564C16.0595 137.065 16.3341 140.313 16.64 143.32L19.6246 143.016ZM18.2615 123.693C18.185 122.031 18.1147 120.321 18.0508 118.563L15.0528 118.672C15.1171 120.439 15.1877 122.159 15.2647 123.831L18.2615 123.693ZM18.0508 118.563C17.9839 116.722 17.9145 114.917 17.8427 113.147L14.8451 113.269C14.9168 115.035 14.986 116.836 15.0528 118.672L18.0508 118.563ZM17.3716 102.699C17.1894 99.0509 16.9958 95.5714 16.7915 92.2545L13.7971 92.439C14.0007 95.7434 14.1937 99.2113 14.3753 102.849L17.3716 102.699ZM16.0694 81.7669C15.7805 78.0044 15.4753 74.4932 15.1554 71.2214L12.1696 71.5133C12.4873 74.7624 12.7907 78.2527 13.0782 81.9966L16.0694 81.7669ZM13.9712 60.68C13.4675 56.786 12.9363 53.3463 12.3812 50.3271L9.43066 50.8696C9.97437 53.8266 10.4977 57.2126 10.996 61.0648L13.9712 60.68ZM9.86633 39.8632C8.89036 36.871 7.82064 34.6568 6.60955 33.2368C5.35666 31.7679 3.77522 30.9794 1.99615 31.4109L2.7033 34.3264C3.03035 34.2471 3.53884 34.2595 4.32702 35.1836C5.157 36.1567 6.07949 37.9278 7.01421 40.7935L9.86633 39.8632ZM-5.24015 40.3918C-6.51933 43.275 -7.75033 46.7111 -8.9061 50.43L-6.04127 51.3203C-4.90588 47.667 -3.71394 44.3493 -2.49792 41.6084L-5.24015 40.3918ZM-11.7455 60.6496C-12.6032 64.0768 -13.3944 67.5644 -14.1013 70.9579L-11.1644 71.5698C-10.4647 68.2111 -9.68228 64.7625 -8.83525 61.3779L-11.7455 60.6496ZM-16.0624 81.356C-16.371 83.1944 -16.6416 84.9389 -16.8701 86.5546L-13.8997 86.9746C-13.6752 85.3871 -13.4086 83.6683 -13.1038 81.8526L-16.0624 81.356ZM-16.8701 86.5546C-17.1135 88.276 -17.4068 89.9694 -17.7432 91.6178L-14.8038 92.2177C-14.4552 90.5099 -14.1516 88.7565 -13.8997 86.9746L-16.8701 86.5546ZM-20.4569 101.486C-21.8037 105.249 -23.3396 108.319 -24.8987 110.406L-22.4956 112.201C-20.6919 109.788 -19.0345 106.415 -17.6323 102.497L-20.4569 101.486ZM-31.0076 111.878C-32.2416 110.34 -33.5036 107.5 -34.5866 102.896L-37.5069 103.583C-36.3911 108.326 -35.0038 111.692 -33.3475 113.756L-31.0076 111.878ZM-36.2911 92.7194C-36.6506 89.6627 -36.9499 86.2318 -37.178 82.3992L-40.1727 82.5775C-39.9417 86.4585 -39.6378 89.9474 -39.2706 93.0698L-36.2911 92.7194ZM-37.5913 72.0755C-37.6657 68.819 -37.6984 65.3432 -37.6854 61.6379L-40.6854 61.6273C-40.6985 65.3567 -40.6656 68.8591 -40.5905 72.1441L-37.5913 72.0755ZM-37.5408 51.2699C-37.5003 49.5483 -37.4511 47.785 -37.3931 45.9795L-40.3915 45.8831C-40.4498 47.697 -40.4992 49.4688 -40.54 51.1993L-37.5408 51.2699ZM-37.3931 45.9795C-37.3366 44.225 -37.2944 42.5339 -37.2657 40.9046L-40.2652 40.8518C-40.2936 42.4658 -40.3355 44.1423 -40.3915 45.8831L-37.3931 45.9795ZM-37.2686 31.0774C-37.3473 27.334 -37.5206 24.0197 -37.7796 21.1005L-40.7678 21.3656C-40.516 24.205 -40.3455 27.4506 -40.2679 31.1405L-37.2686 31.0774ZM-39.3192 11.174C-39.9627 8.62533 -40.7598 6.61503 -41.7294 5.12953C-42.7057 3.6339 -43.9131 2.5897 -45.3762 2.16228L-46.2175 5.04193C-45.6386 5.21102 -44.9558 5.67512 -44.2416 6.7693C-43.5208 7.87362 -42.8273 9.53464 -42.2279 11.9085L-39.3192 11.174ZM-55.1651 7.06967C-57.1628 9.29879 -59.1781 12.1216 -61.1231 15.1976L-58.5876 16.8009C-56.6891 13.7987 -54.7743 11.1287 -52.931 9.07182L-55.1651 7.06967ZM-66.1088 23.8168C-67.7234 26.8286 -69.2371 29.852 -70.5853 32.6574L-67.8813 33.9568C-66.5477 31.1817 -65.0541 28.1989 -63.4648 25.2343L-66.1088 23.8168ZM-74.7245 41.6756C-75.3335 43.0654 -75.8152 44.1951 -76.145 44.9784C-76.3099 45.3701 -76.4369 45.6752 -76.5229 45.8831C-76.5659 45.987 -76.5986 46.0666 -76.6207 46.1205C-76.6318 46.1474 -76.6402 46.168 -76.6459 46.1819C-76.6488 46.1889 -76.651 46.1943 -76.6524 46.1979C-76.6532 46.1998 -76.6538 46.2012 -76.6542 46.2022C-76.6544 46.2027 -76.6545 46.2031 -76.6547 46.2033C-76.6547 46.2035 -76.6548 46.2036 -76.6548 46.2037C-76.6548 46.2037 -76.6548 46.2038 -76.6548 46.2038C-76.6549 46.2039 -76.6549 46.2039 -75.2657 46.7696C-73.8764 47.3354 -73.8764 47.3354 -73.8765 47.3354C-73.8764 47.3354 -73.8765 47.3354 -73.8765 47.3354C-73.8764 47.3354 -73.8764 47.3354 -73.8764 47.3353C-73.8763 47.3352 -73.8763 47.3349 -73.8761 47.3346C-73.8758 47.3339 -73.8754 47.3328 -73.8748 47.3313C-73.8735 47.3282 -73.8716 47.3235 -73.869 47.3172C-73.8638 47.3045 -73.8559 47.2852 -73.8454 47.2595C-73.8243 47.2082 -73.7927 47.1313 -73.7508 47.0301C-73.667 46.8276 -73.5424 46.5282 -73.38 46.1425C-73.0552 45.371 -72.5794 44.2548 -71.9768 42.8798L-74.7245 41.6756ZM16.5518 118.617L19.5498 118.508L16.5518 118.617ZM-15.3849 86.7646L-12.4144 87.1847L-15.3849 86.7646ZM-38.8923 45.9313L-35.8938 46.0277L-38.8923 45.9313ZM-78.0304 47.9342C-77.3872 49.4611 -75.628 50.1775 -74.1011 49.5344L-49.2185 39.0532C-47.6915 38.41 -46.9751 36.6508 -47.6183 35.1239C-48.2615 33.597 -50.0207 32.8805 -51.5476 33.5237L-73.6655 42.8403L-82.9821 20.7224C-83.6253 19.1955 -85.3845 18.4791 -86.9114 19.1223C-88.4383 19.7655 -89.1547 21.5247 -88.5116 23.0516L-78.0304 47.9342ZM69.6658 71.7487C69.2349 73.3485 70.1824 74.9948 71.7823 75.4257C73.3821 75.8566 75.0284 74.909 75.4593 73.3092L69.6658 71.7487ZM72.8539 82.7636C73.3027 81.1687 72.3736 79.512 70.7786 79.0632C69.1837 78.6144 67.527 79.5435 67.0782 81.1384L72.8539 82.7636ZM64.3606 90.6055C63.8951 92.1956 64.8068 93.862 66.3969 94.3275C67.987 94.793 69.6534 93.8814 70.1189 92.2913L64.3606 90.6055ZM67.302 101.723C67.7851 100.138 66.8919 98.4616 65.307 97.9785C63.7221 97.4955 62.0457 98.3887 61.5627 99.9736L67.302 101.723ZM58.6403 109.356C58.1374 110.934 59.0096 112.622 60.5883 113.125C62.167 113.628 63.8544 112.755 64.3573 111.177L58.6403 109.356ZM61.294 120.562C61.82 118.991 60.9728 117.291 59.4017 116.765C57.8305 116.239 56.1304 117.086 55.6044 118.657L61.294 120.562ZM52.4166 127.909C51.8621 129.47 52.6783 131.185 54.2396 131.74C55.8009 132.295 57.5161 131.478 58.0706 129.917L52.4166 127.909ZM54.6481 139.22C55.2394 137.672 54.4641 135.938 52.9163 135.347C51.3686 134.756 49.6345 135.531 49.0432 137.079L54.6481 139.22ZM45.4212 146.134C44.7787 147.661 45.496 149.42 47.0232 150.063C48.5505 150.705 50.3093 149.988 50.9518 148.461L45.4212 146.134ZM46.8623 157.57C47.5833 156.078 46.9584 154.284 45.4667 153.564C43.9749 152.843 42.1811 153.467 41.4601 154.959L46.8623 157.57ZM36.9651 163.319C36.0987 164.731 36.5413 166.578 37.9536 167.444C39.366 168.311 41.2132 167.868 42.0795 166.456L36.9651 163.319ZM35.2441 174.928C36.5311 173.885 36.7285 171.996 35.685 170.709C34.6415 169.422 32.7523 169.224 31.4653 170.268L35.2441 174.928ZM27.4922 169.927C26.5187 168.586 24.6427 168.288 23.302 169.262C21.9613 170.235 21.6637 172.111 22.6372 173.452L27.4922 169.927ZM18.4393 163.476C18.8652 165.078 20.5084 166.03 22.1096 165.605C23.7108 165.179 24.6636 163.535 24.2377 161.934L18.4393 163.476ZM22.3325 152.509C22.078 150.872 20.5445 149.751 18.9073 150.005C17.2701 150.26 16.1492 151.793 16.4037 153.43L22.3325 152.509ZM15.1477 143.471C15.3154 145.12 16.7876 146.32 18.436 146.152C20.0843 145.985 21.2846 144.512 21.1169 142.864L15.1477 143.471ZM20.3076 133.255C20.1937 131.602 18.7613 130.355 17.1084 130.468C15.4555 130.582 14.2079 132.015 14.3218 133.668L20.3076 133.255ZM13.7663 123.9C13.8424 125.555 15.2459 126.835 16.901 126.759C18.5561 126.682 19.8361 125.279 19.7599 123.624L13.7663 123.9ZM19.3415 113.086C19.2743 111.431 17.8778 110.143 16.2223 110.21C14.5668 110.278 13.2792 111.674 13.3464 113.33L19.3415 113.086ZM12.8772 102.924C12.9598 104.578 14.3683 105.853 16.0231 105.77C17.6779 105.688 18.9524 104.279 18.8697 102.624L12.8772 102.924ZM18.2886 92.1623C18.1867 90.5086 16.7635 89.2506 15.1098 89.3524C13.4561 89.4543 12.1981 90.8775 12.3 92.5313L18.2886 92.1623ZM11.5826 82.1115C11.7095 83.7634 13.1516 84.9998 14.8035 84.8729C16.4555 84.7461 17.6919 83.304 17.565 81.652L11.5826 82.1115ZM16.6483 71.0754C16.487 69.4264 15.0196 68.2203 13.3706 68.3816C11.7216 68.5428 10.5155 70.0103 10.6768 71.6593L16.6483 71.0754ZM9.50837 61.2572C9.7209 62.9004 11.2252 64.0601 12.8684 63.8476C14.5116 63.6351 15.6713 62.1307 15.4588 60.4876L9.50837 61.2572ZM13.8565 50.0558C13.5568 48.4263 11.993 47.3482 10.3634 47.6478C8.73387 47.9474 7.65577 49.5113 7.95539 51.1409L13.8565 50.0558ZM5.58816 41.2586C6.10195 42.8338 7.7954 43.6942 9.37057 43.1804C10.9458 42.6666 11.8062 40.9732 11.2924 39.398L5.58816 41.2586ZM1.64258 29.9532C0.0324092 30.3438 -0.956291 31.9656 -0.565745 33.5758C-0.1752 35.186 1.4467 36.1747 3.05686 35.7841L1.64258 29.9532ZM-1.12681 42.2167C-0.454881 40.7023 -1.13792 38.9298 -2.65241 38.2579C-4.1669 37.586 -5.93934 38.269 -6.61126 39.7835L-1.12681 42.2167ZM-10.3385 49.9848C-10.8302 51.567 -9.94623 53.2483 -8.36402 53.74C-6.78181 54.2317 -5.10056 53.3477 -4.60884 51.7655L-10.3385 49.9848ZM-7.38013 61.742C-6.9779 60.1347 -7.9548 58.5057 -9.56209 58.1035C-11.1694 57.7012 -12.7984 58.6781 -13.2006 60.2854L-7.38013 61.742ZM-15.5698 70.652C-15.9077 72.274 -14.8667 73.8629 -13.2447 74.2008C-11.6227 74.5387 -10.0338 73.4977 -9.6959 71.8757L-15.5698 70.652ZM-11.6245 82.1009C-11.3502 80.4669 -12.4525 78.92 -14.0865 78.6457C-15.7205 78.3714 -17.2675 79.4737 -17.5417 81.1077L-11.6245 82.1009ZM-19.2129 91.3178C-19.5442 92.9412 -18.4968 94.5258 -16.8734 94.8571C-15.25 95.1885 -13.6654 94.141 -13.3341 92.5176L-19.2129 91.3178ZM-16.22 103.002C-15.6617 101.442 -16.4738 99.7251 -18.0337 99.1668C-19.5937 98.6085 -21.3109 99.4205 -21.8691 100.981L-16.22 103.002ZM-26.1002 109.508C-27.0921 110.835 -26.8202 112.715 -25.4931 113.707C-24.1659 114.698 -22.286 114.427 -21.2941 113.099L-26.1002 109.508ZM-34.5175 114.695C-33.4806 115.987 -31.5925 116.194 -30.3001 115.157C-29.0078 114.12 -28.8008 112.232 -29.8377 110.94L-34.5175 114.695ZM-33.1265 102.552C-33.5058 100.94 -35.1209 99.9397 -36.7337 100.319C-38.3465 100.699 -39.3464 102.314 -38.967 103.926L-33.1265 102.552ZM-40.7603 93.245C-40.5668 94.8905 -39.0759 96.0676 -37.4304 95.8741C-35.7849 95.6806 -34.6078 94.1898 -34.8014 92.5443L-40.7603 93.245ZM-35.6807 82.3101C-35.7791 80.6561 -37.1997 79.3952 -38.8536 79.4936C-40.5076 79.5921 -41.7685 81.0127 -41.6701 82.6666L-35.6807 82.3101ZM-42.0901 72.1784C-42.0522 73.8348 -40.6787 75.1469 -39.0223 75.109C-37.3659 75.0712 -36.0538 73.6977 -36.0917 72.0412L-42.0901 72.1784ZM-36.1854 61.6432C-36.1795 59.9863 -37.5179 58.6385 -39.1748 58.6326C-40.8316 58.6268 -42.1795 59.9652 -42.1853 61.622L-36.1854 61.6432ZM-42.0396 51.1639C-42.0786 52.8203 -40.7675 54.1947 -39.1111 54.2338C-37.4547 54.2728 -36.0803 52.9616 -36.0412 51.3052L-42.0396 51.1639ZM-35.7659 40.931C-35.7368 39.2744 -37.0561 37.9078 -38.7127 37.8787C-40.3693 37.8495 -41.7359 39.1689 -41.765 40.8255L-35.7659 40.931ZM-41.7676 31.172C-41.7327 32.8285 -40.3616 34.1431 -38.7051 34.1082C-37.0486 34.0734 -35.7341 32.7023 -35.7689 31.0458L-41.7676 31.172ZM-36.2854 20.968C-36.4318 19.3176 -37.8884 18.0984 -39.5388 18.2448C-41.1891 18.3912 -42.4083 19.8478 -42.262 21.4981L-36.2854 20.968ZM-43.6823 12.2757C-43.2767 13.8821 -41.6456 14.8556 -40.0392 14.45C-38.4327 14.0444 -37.4592 12.4133 -37.8648 10.8069L-43.6823 12.2757ZM-44.9556 0.722459C-46.546 0.257868 -48.2119 1.1705 -48.6765 2.76089C-49.1411 4.35127 -48.2285 6.01716 -46.6381 6.48175L-44.9556 0.722459ZM-51.8139 10.0729C-50.7082 8.83901 -50.812 6.94235 -52.0459 5.8366C-53.2798 4.73084 -55.1765 4.83472 -56.2822 6.06859L-51.8139 10.0729ZM-62.3909 14.3959C-63.2765 15.7963 -62.8591 17.6493 -61.4587 18.5349C-60.0583 19.4204 -58.2053 19.003 -57.3197 17.6026L-62.3909 14.3959ZM-62.1428 25.943C-61.3599 24.4828 -61.9091 22.6644 -63.3693 21.8815C-64.8295 21.0987 -66.6479 21.6478 -67.4308 23.1081L-62.1428 25.943ZM-71.9373 32.0077C-72.6549 33.501 -72.0261 35.2934 -70.5327 36.0111C-69.0393 36.7287 -67.247 36.0999 -66.5293 34.6065L-71.9373 32.0077ZM-70.6029 43.4819C-69.9379 41.9644 -70.6289 40.1951 -72.1465 39.53C-73.664 38.865 -75.4333 39.556 -76.0984 41.0735L-70.6029 43.4819ZM73.8177 67.7943C70.9126 67.0457 70.9126 67.0457 70.9126 67.0457C70.9126 67.0457 70.9126 67.0457 70.9126 67.0457C70.9126 67.0457 70.9126 67.0457 70.9126 67.0458C70.9126 67.0459 70.9125 67.0462 70.9124 67.0465C70.9122 67.0472 70.912 67.0483 70.9116 67.0499C70.9108 67.0529 70.9096 67.0577 70.9079 67.0641C70.9046 67.0768 70.8996 67.0962 70.8929 67.1222C70.8794 67.174 70.8592 67.2519 70.8324 67.355C70.7787 67.5613 70.6985 67.8684 70.5929 68.2694C70.3819 69.0716 70.0696 70.2496 69.6658 71.7487L75.4593 73.3092C75.8663 71.7981 76.1816 70.6089 76.3954 69.7962C76.5023 69.3899 76.5839 69.0778 76.6389 68.8666C76.6663 68.761 76.6872 68.6807 76.7012 68.6265C76.7083 68.5994 76.7136 68.5788 76.7172 68.5648C76.719 68.5578 76.7204 68.5525 76.7213 68.5489C76.7218 68.5471 76.7221 68.5456 76.7224 68.5447C76.7225 68.5442 76.7226 68.5438 76.7227 68.5435C76.7227 68.5434 76.7227 68.5432 76.7228 68.5432C76.7228 68.5431 76.7228 68.5431 76.7228 68.543C76.7228 68.543 76.7228 68.543 73.8177 67.7943ZM67.0782 81.1384C66.2754 83.991 65.364 87.1781 64.3606 90.6055L70.1189 92.2913C71.1288 88.8417 72.046 85.6344 72.8539 82.7636L67.0782 81.1384ZM61.5627 99.9736C60.6358 103.015 59.6587 106.158 58.6403 109.356L64.3573 111.177C65.384 107.953 66.3685 104.785 67.302 101.723L61.5627 99.9736ZM55.6044 118.657C54.5687 121.75 53.5036 124.848 52.4166 127.909L58.0706 129.917C59.1711 126.818 60.2481 123.686 61.294 120.562L55.6044 118.657ZM49.0432 137.079C47.8474 140.209 46.637 143.244 45.4212 146.134L50.9518 148.461C52.1973 145.5 53.4325 142.402 54.6481 139.22L49.0432 137.079ZM41.4601 154.959C39.9343 158.116 38.4295 160.931 36.9651 163.319L42.0795 166.456C43.6775 163.851 45.2773 160.85 46.8623 157.57L41.4601 154.959ZM31.4653 170.268C30.2485 171.254 29.5378 171.361 29.2354 171.337C29.017 171.319 28.4073 171.187 27.4922 169.927L22.6372 173.452C24.17 175.563 26.1939 177.111 28.7528 177.317C31.2277 177.517 33.4381 176.392 35.2441 174.928L31.4653 170.268ZM24.2377 161.934C23.5504 159.35 22.9106 156.228 22.3325 152.509L16.4037 153.43C17.0051 157.3 17.6843 160.638 18.4393 163.476L24.2377 161.934ZM21.1169 142.864C20.8165 139.912 20.5459 136.713 20.3076 133.255L14.3218 133.668C14.564 137.183 14.8399 140.447 15.1477 143.471L21.1169 142.864ZM19.7599 123.624C19.6837 121.967 19.6136 120.262 19.5498 118.508L13.5538 118.726C13.6182 120.498 13.6891 122.223 13.7663 123.9L19.7599 123.624ZM19.5498 118.508C19.4828 116.666 19.4133 114.859 19.3415 113.086L13.3464 113.33C13.4179 115.093 13.4871 116.892 13.5538 118.726L19.5498 118.508ZM18.8697 102.624C18.6873 98.9707 18.4934 95.4853 18.2886 92.1623L12.3 92.5313C12.5032 95.8295 12.6958 99.2915 12.8772 102.924L18.8697 102.624ZM17.565 81.652C17.2753 77.8803 16.9693 74.3587 16.6483 71.0754L10.6768 71.6593C10.9933 74.8969 11.2958 78.3768 11.5826 82.1115L17.565 81.652ZM15.4588 60.4876C14.9524 56.5727 14.4173 53.1061 13.8565 50.0558L7.95539 51.1409C8.49338 54.0667 9.0128 57.4259 9.50837 61.2572L15.4588 60.4876ZM11.2924 39.398C10.2958 36.3426 9.15247 33.9068 7.75082 32.2634C6.26557 30.522 4.14766 29.3456 1.64258 29.9532L3.05686 35.7841C2.65792 35.8809 2.62993 35.5054 3.18575 36.157C3.82517 36.9067 4.67405 38.4561 5.58816 41.2586L11.2924 39.398ZM-6.61126 39.7835C-7.92202 42.7379 -9.17256 46.2331 -10.3385 49.9848L-4.60884 51.7655C-3.48367 48.145 -2.31125 44.8864 -1.12681 42.2167L-6.61126 39.7835ZM-13.2006 60.2854C-14.0636 63.7339 -14.8592 67.2411 -15.5698 70.652L-9.6959 71.8757C-8.99984 68.5345 -8.22183 65.1054 -7.38013 61.742L-13.2006 60.2854ZM-17.5417 81.1077C-17.8522 82.9574 -18.1248 84.7147 -18.3553 86.3445L-12.4144 87.1847C-12.1919 85.6113 -11.9274 83.9052 -11.6245 82.1009L-17.5417 81.1077ZM-18.3553 86.3445C-18.5945 88.0358 -18.8826 89.6992 -19.2129 91.3178L-13.3341 92.5176C-12.9795 90.7801 -12.6707 88.9967 -12.4144 87.1847L-18.3553 86.3445ZM-21.8691 100.981C-23.1883 104.667 -24.6634 107.585 -26.1002 109.508L-21.2941 113.099C-19.3681 110.522 -17.6498 106.997 -16.22 103.002L-21.8691 100.981ZM-29.8377 110.94C-30.8605 109.665 -32.0598 107.087 -33.1265 102.552L-38.967 103.926C-37.8349 108.739 -36.3849 112.367 -34.5175 114.695L-29.8377 110.94ZM-34.8014 92.5443C-35.157 89.5203 -35.454 86.1185 -35.6807 82.3101L-41.6701 82.6666C-41.4376 86.5718 -41.1314 90.0898 -40.7603 93.245L-34.8014 92.5443ZM-36.0917 72.0412C-36.1658 68.799 -36.1984 65.3364 -36.1854 61.6432L-42.1853 61.622C-42.1985 65.3635 -42.1655 68.8791 -42.0901 72.1784L-36.0917 72.0412ZM-36.0412 51.3052C-36.0008 49.588 -35.9518 47.8291 -35.8938 46.0277L-41.8907 45.8349C-41.9492 47.6529 -41.9987 49.429 -42.0396 51.1639L-36.0412 51.3052ZM-35.8938 46.0277C-35.8372 44.2663 -35.7947 42.568 -35.7659 40.931L-41.765 40.8255C-41.7932 42.4317 -41.835 44.1009 -41.8907 45.8349L-35.8938 46.0277ZM-35.7689 31.0458C-35.8482 27.2757 -36.0229 23.927 -36.2854 20.968L-42.262 21.4981C-42.0136 24.2976 -41.8446 27.5089 -41.7676 31.172L-35.7689 31.0458ZM-37.8648 10.8069C-38.5304 8.17067 -39.3793 5.98572 -40.4733 4.30964C-41.5806 2.61329 -43.0504 1.27903 -44.9556 0.722459L-46.6381 6.48175C-46.5013 6.52169 -46.0809 6.69574 -45.4977 7.58919C-44.9013 8.50292 -44.2596 9.98929 -43.6823 12.2757L-37.8648 10.8069ZM-56.2822 6.06859C-58.357 8.3838 -60.4226 11.2831 -62.3909 14.3959L-57.3197 17.6026C-55.4446 14.6372 -53.5801 12.0437 -51.8139 10.0729L-56.2822 6.06859ZM-67.4308 23.1081C-69.0581 26.1434 -70.5818 29.1871 -71.9373 32.0077L-66.5293 34.6065C-65.203 31.8466 -63.7195 28.8841 -62.1428 25.943L-67.4308 23.1081ZM-76.0984 41.0735C-76.7106 42.4706 -77.1951 43.6071 -77.5274 44.3963C-77.6936 44.791 -77.8218 45.099 -77.9089 45.3096C-77.9525 45.4148 -77.9858 45.4957 -78.0084 45.551C-78.0197 45.5786 -78.0284 45.5998 -78.0344 45.6143C-78.0374 45.6216 -78.0397 45.6273 -78.0413 45.6312C-78.0421 45.6332 -78.0427 45.6348 -78.0432 45.636C-78.0434 45.6365 -78.0436 45.637 -78.0438 45.6374C-78.0439 45.6375 -78.0439 45.6377 -78.044 45.6378C-78.044 45.6379 -78.044 45.638 -78.044 45.638C-78.0441 45.6381 -78.0441 45.6381 -75.2657 46.7696C-72.4872 47.9011 -72.4872 47.9012 -72.4873 47.9012C-72.4873 47.9012 -72.4873 47.9013 -72.4873 47.9013C-72.4873 47.9013 -72.4873 47.9013 -72.4873 47.9013C-72.4873 47.9012 -72.4872 47.901 -72.4871 47.9008C-72.4869 47.9003 -72.4865 47.8993 -72.4859 47.8979C-72.4848 47.8952 -72.483 47.8908 -72.4805 47.8848C-72.4756 47.8727 -72.468 47.8541 -72.4577 47.8291C-72.4372 47.779 -72.4061 47.7034 -72.3648 47.6036C-72.2821 47.4038 -72.1587 47.1072 -71.9976 46.7245C-71.6753 45.959 -71.2023 44.8495 -70.6029 43.4819L-76.0984 41.0735Z" fill="#BBBBBB"/>
</svg>
