<svg width="413" height="161" viewBox="0 0 413 161" fill="none" xmlns="http://www.w3.org/2000/svg">
<path d="M148.237 56.7604L149.736 56.7053L148.237 56.7604ZM217.704 103.544L216.609 102.518L217.704 103.544ZM285.752 131.898L284.367 131.324L285.752 131.898ZM410.503 124.516C410.782 123.737 410.377 122.878 409.597 122.598L396.89 118.04C396.11 117.76 395.251 118.165 394.972 118.945C394.692 119.725 395.097 120.584 395.877 120.864L407.172 124.915L403.121 136.211C402.841 136.99 403.246 137.849 404.026 138.129C404.806 138.409 405.665 138.003 405.944 137.224L410.503 124.516ZM8.53331 5.50263C8.18692 6.25516 8.51618 7.14601 9.26871 7.4924C10.0212 7.83878 10.9121 7.50953 11.2585 6.757L8.53331 5.50263ZM7.56686 15.7728C7.84097 14.991 7.42944 14.1351 6.64768 13.8609C5.86591 13.5868 5.00996 13.9984 4.73584 14.7801L7.56686 15.7728ZM2.1708 24.4503C2.03879 25.2681 2.59476 26.0381 3.4126 26.1701C4.23045 26.3022 5.00045 25.7462 5.13247 24.9283L2.1708 24.4503ZM5.33269 34.1222C5.10371 33.3261 4.27268 32.8663 3.47652 33.0953C2.68037 33.3243 2.22059 34.1553 2.44957 34.9514L5.33269 34.1222ZM9.19082 43.3725C9.91454 43.7756 10.828 43.5157 11.2312 42.792C11.6343 42.0682 11.3744 41.1547 10.6507 40.7516L9.19082 43.3725ZM19.5685 43.2095C18.7443 43.1252 18.0079 43.7249 17.9236 44.5491C17.8393 45.3732 18.439 46.1096 19.2632 46.1939L19.5685 43.2095ZM29.3965 46.3125C30.2235 46.2647 30.8553 45.5555 30.8075 44.7285C30.7597 43.9014 30.0505 43.2697 29.2235 43.3175L29.3965 46.3125ZM39.0214 42.33C38.2005 42.4412 37.6251 43.1968 37.7362 44.0177C37.8473 44.8387 38.6029 45.4141 39.4239 45.3029L39.0214 42.33ZM49.2564 43.7511C50.0723 43.6075 50.6173 42.8297 50.4737 42.0138C50.3301 41.1979 49.5523 40.6529 48.7364 40.7965L49.2564 43.7511ZM58.4775 38.9725C57.6645 39.1315 57.1344 39.9196 57.2935 40.7326C57.4526 41.5456 58.2406 42.0757 59.0536 41.9166L58.4775 38.9725ZM68.7977 39.9765C69.61 39.8138 70.1366 39.0234 69.9739 38.2111C69.8112 37.3988 69.0208 36.8722 68.2085 37.0349L68.7977 39.9765ZM77.9568 35.112C77.1432 35.2683 76.6104 36.0545 76.7667 36.8681C76.923 37.6816 77.7092 38.2144 78.5227 38.0581L77.9568 35.112ZM88.2572 36.2807C89.0738 36.1412 89.6228 35.3662 89.4833 34.5496C89.3439 33.733 88.5689 33.184 87.7522 33.3235L88.2572 36.2807ZM97.5945 31.8111C96.7733 31.9208 96.1966 32.6754 96.3063 33.4965C96.416 34.3177 97.1706 34.8944 97.9917 34.7847L97.5945 31.8111ZM107.801 33.7453C108.627 33.6844 109.248 32.9653 109.187 32.1391C109.126 31.3129 108.407 30.6926 107.581 30.7535L107.801 33.7453ZM117.624 30.4579C116.796 30.439 116.109 31.0951 116.09 31.9233C116.071 32.7515 116.727 33.4383 117.555 33.4572L117.624 30.4579ZM127.191 34.4073C128.004 34.5642 128.791 34.0319 128.948 33.2185C129.105 32.4051 128.572 31.6185 127.759 31.4616L127.191 34.4073ZM137.524 34.7952C136.796 34.4005 135.885 34.6709 135.491 35.3992C135.096 36.1276 135.366 37.038 136.095 37.4327L137.524 34.7952ZM142.888 43.4514C143.355 44.1356 144.288 44.3116 144.973 43.8446C145.657 43.3775 145.833 42.4442 145.366 41.76L142.888 43.4514ZM149.189 51.4843C149.041 50.6691 148.261 50.1278 147.446 50.2753C146.631 50.4228 146.089 51.2032 146.237 52.0184L149.189 51.4843ZM146.987 61.598C147.043 62.4245 147.759 63.0489 148.585 62.9927C149.412 62.9364 150.036 62.2208 149.98 61.3943L146.987 61.598ZM150.936 70.6224C150.819 69.8023 150.06 69.2319 149.24 69.3485C148.419 69.4651 147.849 70.2246 147.966 71.0447L150.936 70.6224ZM149.722 80.3861C149.915 81.1919 150.724 81.6891 151.53 81.4967C152.335 81.3042 152.833 80.495 152.64 79.6893L149.722 80.3861ZM155.299 88.5132C155.01 87.7369 154.146 87.3422 153.37 87.6315C152.593 87.9209 152.199 88.7847 152.488 89.5609L155.299 88.5132ZM156.54 98.2935C156.951 99.0125 157.868 99.2618 158.587 98.8503C159.306 98.4388 159.555 97.5224 159.144 96.8034L156.54 98.2935ZM164.434 104.166C163.877 103.552 162.929 103.505 162.315 104.062C161.701 104.618 161.654 105.566 162.211 106.18L164.434 104.166ZM169.658 112.498C170.357 112.942 171.284 112.735 171.728 112.035C172.172 111.336 171.965 110.409 171.265 109.965L169.658 112.498ZM179.414 113.594C178.616 113.371 177.788 113.837 177.566 114.635C177.343 115.433 177.809 116.26 178.607 116.483L179.414 113.594ZM188.299 117.769C189.128 117.766 189.797 117.092 189.795 116.264C189.792 115.435 189.118 114.766 188.29 114.769L188.299 117.769ZM197.234 113.631C196.43 113.831 195.94 114.645 196.141 115.449C196.341 116.253 197.155 116.742 197.959 116.542L197.234 113.631ZM207.064 113.175C207.806 112.805 208.107 111.904 207.737 111.163C207.367 110.421 206.467 110.12 205.725 110.49L207.064 113.175ZM213.322 105.588C212.682 106.114 212.59 107.059 213.116 107.699C213.642 108.339 214.587 108.431 215.227 107.905L213.322 105.588ZM222.126 101.579C222.781 101.071 222.9 100.129 222.392 99.4741C221.884 98.8195 220.942 98.7006 220.287 99.2085L222.126 101.579ZM228.543 94.0458C227.807 94.4243 227.516 95.3286 227.895 96.0655C228.273 96.8024 229.177 97.0929 229.914 96.7144L228.543 94.0458ZM238.422 93.0243C239.201 92.7412 239.602 91.8806 239.319 91.102C239.036 90.3235 238.175 89.9218 237.397 90.205L238.422 93.0243ZM246.625 87.4256C245.82 87.6196 245.324 88.4298 245.518 89.2352C245.712 90.0406 246.522 90.5361 247.328 90.3421L246.625 87.4256ZM256.466 88.7055C257.289 88.6109 257.879 87.8669 257.784 87.0439C257.69 86.2209 256.946 85.6305 256.123 85.7252L256.466 88.7055ZM265.809 85.3321C264.982 85.2976 264.283 85.9406 264.248 86.7683C264.214 87.596 264.857 88.295 265.684 88.3295L265.809 85.3321ZM274.676 89.6806C275.473 89.9061 276.302 89.4426 276.527 88.6455C276.753 87.8483 276.289 87.0193 275.492 86.7939L274.676 89.6806ZM284.466 91.1655C283.811 90.6576 282.869 90.7765 282.361 91.431C281.853 92.0855 281.972 93.0277 282.627 93.5356L284.466 91.1655ZM287.888 100.334C288.215 101.095 289.097 101.448 289.858 101.121C290.619 100.795 290.972 99.913 290.646 99.1516L287.888 100.334ZM292.589 108.936C292.575 108.107 291.892 107.447 291.063 107.462C290.235 107.476 289.575 108.16 289.59 108.988L292.589 108.936ZM288.632 118.024C288.461 118.835 288.98 119.63 289.791 119.801C290.602 119.971 291.397 119.452 291.568 118.642L288.632 118.024ZM288.89 127.939C289.169 127.159 288.762 126.301 287.982 126.022C287.202 125.743 286.344 126.149 286.065 126.929L288.89 127.939ZM282.666 136.008C282.423 136.8 282.868 137.639 283.66 137.882C284.452 138.125 285.291 137.68 285.534 136.888L282.666 136.008ZM284.279 145.674C284.213 144.849 283.49 144.233 282.664 144.299C281.838 144.365 281.222 145.088 281.288 145.914L284.279 145.674ZM286.067 155.194C286.719 155.704 287.662 155.588 288.172 154.936C288.682 154.283 288.567 153.34 287.914 152.83L286.067 155.194ZM295.997 155.876C295.178 155.751 294.413 156.314 294.289 157.133C294.165 157.953 294.728 158.717 295.547 158.842L295.997 155.876ZM305.36 159.206C306.187 159.164 306.824 158.459 306.782 157.631C306.739 156.804 306.035 156.168 305.207 156.21L305.36 159.206ZM314.544 155.202C313.726 155.33 313.166 156.096 313.293 156.915C313.42 157.734 314.187 158.294 315.006 158.166L314.544 155.202ZM324.47 156.359C325.279 156.18 325.789 155.379 325.609 154.57C325.43 153.761 324.629 153.251 323.82 153.431L324.47 156.359ZM333.006 151.163C332.206 151.379 331.732 152.202 331.948 153.002C332.163 153.802 332.986 154.275 333.786 154.06L333.006 151.163ZM342.999 151.406C343.791 151.164 344.237 150.326 343.995 149.533C343.753 148.741 342.915 148.295 342.122 148.537L342.999 151.406ZM351.168 145.638C350.382 145.901 349.958 146.751 350.221 147.537C350.484 148.322 351.334 148.746 352.119 148.483L351.168 145.638ZM361.161 145.345C361.941 145.065 362.346 144.206 362.067 143.427C361.787 142.647 360.928 142.242 360.148 142.521L361.161 145.345ZM369.05 139.231C368.276 139.525 367.887 140.391 368.181 141.166C368.475 141.94 369.341 142.329 370.116 142.035L369.05 139.231ZM379.048 138.556C379.818 138.249 380.193 137.376 379.886 136.607C379.579 135.837 378.707 135.462 377.937 135.769L379.048 138.556ZM386.739 132.181C385.975 132.499 385.613 133.377 385.931 134.142C386.249 134.907 387.128 135.269 387.892 134.95L386.739 132.181ZM396.679 131.217C397.439 130.888 397.788 130.005 397.458 129.245C397.129 128.485 396.246 128.135 395.486 128.465L396.679 131.217ZM404.205 124.605C403.45 124.947 403.116 125.835 403.457 126.59C403.799 127.345 404.688 127.68 405.442 127.338L404.205 124.605ZM10.7984 0.79834C9.98533 2.41973 9.23079 3.98731 8.53331 5.50263L11.2585 6.757C11.941 5.27421 12.6809 3.73681 13.4801 2.14311L10.7984 0.79834ZM4.73584 14.7801C3.48471 18.3483 2.637 21.5621 2.1708 24.4503L5.13247 24.9283C5.5642 22.2537 6.35992 19.2149 7.56686 15.7728L4.73584 14.7801ZM2.44957 34.9514C3.55518 38.7956 5.90821 41.544 9.19082 43.3725L10.6507 40.7516C8.01472 39.2834 6.20512 37.1556 5.33269 34.1222L2.44957 34.9514ZM19.2632 46.1939C22.355 46.5102 25.7607 46.5225 29.3965 46.3125L29.2235 43.3175C25.6933 43.5214 22.4555 43.5048 19.5685 43.2095L19.2632 46.1939ZM39.4239 45.3029C42.5943 44.8737 45.8843 44.3446 49.2564 43.7511L48.7364 40.7965C45.3912 41.3853 42.1419 41.9076 39.0214 42.33L39.4239 45.3029ZM59.0536 41.9166C62.2657 41.2881 65.525 40.6321 68.7977 39.9765L68.2085 37.0349C64.9316 37.6913 61.6812 38.3456 58.4775 38.9725L59.0536 41.9166ZM78.5227 38.0581C81.7868 37.4311 85.0399 36.83 88.2572 36.2807L87.7522 33.3235C84.5086 33.8773 81.234 34.4824 77.9568 35.112L78.5227 38.0581ZM97.9917 34.7847C101.35 34.3361 104.63 33.9791 107.801 33.7453L107.581 30.7535C104.339 30.9924 100.998 31.3564 97.5945 31.8111L97.9917 34.7847ZM117.555 33.4572C121.005 33.5359 124.233 33.8369 127.191 34.4073L127.759 31.4616C124.6 30.8525 121.2 30.5395 117.624 30.4579L117.555 33.4572ZM136.095 37.4327C138.868 38.9358 141.154 40.9108 142.888 43.4514L145.366 41.76C143.334 38.7841 140.671 36.5009 137.524 34.7952L136.095 37.4327ZM146.237 52.0184C146.505 53.4992 146.675 55.0956 146.738 56.8154L149.736 56.7053C149.668 54.8566 149.484 53.1178 149.189 51.4843L146.237 52.0184ZM146.738 56.8154C146.798 58.4482 146.881 60.0422 146.987 61.598L149.98 61.3943C149.876 59.8705 149.795 58.3078 149.736 56.7053L146.738 56.8154ZM147.966 71.0447C148.437 74.361 149.026 77.4717 149.722 80.3861L152.64 79.6893C151.967 76.8718 151.395 73.853 150.936 70.6224L147.966 71.0447ZM152.488 89.5609C153.687 92.7766 155.045 95.6813 156.54 98.2935L159.144 96.8034C157.736 94.3434 156.445 91.588 155.299 88.5132L152.488 89.5609ZM162.211 106.18C164.53 108.74 167.032 110.832 169.658 112.498L171.265 109.965C168.873 108.447 166.577 106.531 164.434 104.166L162.211 106.18ZM178.607 116.483C181.807 117.376 185.067 117.779 188.299 117.769L188.29 114.769C185.313 114.778 182.329 114.407 179.414 113.594L178.607 116.483ZM197.959 116.542C201.139 115.75 204.204 114.601 207.064 113.175L205.725 110.49C203.054 111.823 200.194 112.894 197.234 113.631L197.959 116.542ZM215.227 107.905C216.509 106.851 217.705 105.736 218.798 104.57L216.609 102.518C215.609 103.585 214.509 104.612 213.322 105.588L215.227 107.905ZM218.798 104.57C219.736 103.569 220.852 102.567 222.126 101.579L220.287 99.2085C218.911 100.276 217.674 101.383 216.609 102.518L218.798 104.57ZM229.914 96.7144C232.54 95.3656 235.407 94.1207 238.422 93.0243L237.397 90.205C234.273 91.3411 231.289 92.6355 228.543 94.0458L229.914 96.7144ZM247.328 90.3421C250.358 89.612 253.431 89.0547 256.466 88.7055L256.123 85.7252C252.958 86.0893 249.765 86.6691 246.625 87.4256L247.328 90.3421ZM265.684 88.3295C268.887 88.4632 271.919 88.9008 274.676 89.6806L275.492 86.7939C272.469 85.9389 269.2 85.4736 265.809 85.3321L265.684 88.3295ZM282.627 93.5356C284.886 95.2885 286.684 97.5266 287.888 100.334L290.646 99.1516C289.233 95.8572 287.109 93.2167 284.466 91.1655L282.627 93.5356ZM289.59 108.988C289.636 111.665 289.338 114.668 288.632 118.024L291.568 118.642C292.312 115.102 292.641 111.873 292.589 108.936L289.59 108.988ZM286.065 126.929C285.558 128.347 284.993 129.811 284.367 131.324L287.138 132.472C287.783 130.916 288.366 129.406 288.89 127.939L286.065 126.929ZM284.367 131.324C283.687 132.965 283.121 134.525 282.666 136.008L285.534 136.888C285.958 135.507 286.49 134.036 287.138 132.472L284.367 131.324ZM281.288 145.914C281.61 149.93 283.28 153.015 286.067 155.194L287.914 152.83C285.832 151.203 284.538 148.91 284.279 145.674L281.288 145.914ZM295.547 158.842C298.499 159.29 301.805 159.387 305.36 159.206L305.207 156.21C301.79 156.384 298.696 156.285 295.997 155.876L295.547 158.842ZM315.006 158.166C318.053 157.692 321.222 157.081 324.47 156.359L323.82 153.431C320.623 154.141 317.519 154.739 314.544 155.202L315.006 158.166ZM333.786 154.06C336.829 153.241 339.91 152.35 342.999 151.406L342.122 148.537C339.061 149.472 336.013 150.353 333.006 151.163L333.786 154.06ZM352.119 148.483C355.161 147.465 358.185 146.413 361.161 145.345L360.148 142.521C357.19 143.583 354.187 144.628 351.168 145.638L352.119 148.483ZM370.116 142.035C373.193 140.866 376.182 139.699 379.048 138.556L377.937 135.769C375.085 136.907 372.111 138.068 369.05 139.231L370.116 142.035ZM387.892 134.95C391.098 133.616 394.05 132.357 396.679 131.217L395.486 128.465C392.869 129.599 389.93 130.852 386.739 132.181L387.892 134.95ZM405.442 127.338C406.812 126.718 407.883 126.225 408.612 125.888C408.976 125.719 409.255 125.589 409.444 125.501C409.538 125.457 409.609 125.424 409.657 125.401C409.681 125.39 409.7 125.381 409.712 125.375C409.718 125.373 409.723 125.37 409.726 125.369C409.728 125.368 409.729 125.368 409.73 125.367C409.73 125.367 409.73 125.367 409.731 125.367C409.731 125.367 409.731 125.367 409.731 125.367C409.731 125.366 409.731 125.366 409.731 125.366C409.731 125.366 409.731 125.366 409.091 124.01C408.451 122.653 408.451 122.653 408.451 122.653C408.451 122.653 408.451 122.653 408.451 122.653C408.451 122.653 408.451 122.653 408.45 122.653C408.45 122.654 408.45 122.654 408.45 122.654C408.449 122.654 408.448 122.655 408.447 122.655C408.444 122.657 408.44 122.659 408.434 122.661C408.422 122.667 408.405 122.675 408.382 122.686C408.335 122.708 408.265 122.74 408.173 122.784C407.988 122.87 407.712 122.999 407.352 123.166C406.63 123.5 405.567 123.988 404.205 124.605L405.442 127.338ZM148.237 56.7604L151.235 56.6503L148.237 56.7604ZM217.704 103.544L215.515 101.492L217.704 103.544ZM285.752 131.898L282.981 130.75L285.752 131.898ZM411.915 125.023C412.474 123.463 411.663 121.746 410.104 121.186L384.689 112.07C383.13 111.51 381.412 112.321 380.853 113.88C380.293 115.44 381.104 117.158 382.664 117.717L405.254 125.821L397.15 148.411C396.591 149.971 397.402 151.689 398.961 152.248C400.521 152.808 402.239 151.997 402.798 150.437L411.915 125.023ZM7.17072 4.87544C6.47795 6.38051 7.13646 8.16222 8.64153 8.85498C10.1466 9.54775 11.9283 8.88925 12.6211 7.38418L7.17072 4.87544ZM8.98236 16.2691C9.53059 14.7056 8.70753 12.9937 7.144 12.4454C5.58048 11.8972 3.86856 12.7203 3.32034 14.2838L8.98236 16.2691ZM0.68997 24.2112C0.425944 25.8469 1.53789 27.3869 3.17357 27.651C4.80926 27.915 6.34927 26.8031 6.6133 25.1674L0.68997 24.2112ZM6.77426 33.7076C6.3163 32.1153 4.65423 31.1958 3.06192 31.6537C1.46961 32.1117 0.550045 33.7737 1.008 35.3661L6.77426 33.7076ZM8.4609 44.6829C9.90835 45.4891 11.7353 44.9693 12.5416 43.5219C13.3478 42.0744 12.828 40.2474 11.3806 39.4412L8.4609 44.6829ZM19.7211 41.7173C18.0729 41.5487 16.6 42.7482 16.4314 44.3964C16.2628 46.0447 17.4623 47.5175 19.1105 47.6861L19.7211 41.7173ZM29.483 47.81C31.1371 47.7145 32.4005 46.2961 32.305 44.642C32.2095 42.9879 30.7911 41.7244 29.137 41.82L29.483 47.81ZM38.8202 40.8436C37.1783 41.0659 36.0275 42.5771 36.2498 44.219C36.472 45.8608 37.9832 47.0116 39.6251 46.7894L38.8202 40.8436ZM49.5164 45.2284C51.1482 44.9412 52.2382 43.3856 51.951 41.7538C51.6638 40.1221 50.1082 39.0321 48.4764 39.3192L49.5164 45.2284ZM58.1895 37.5004C56.5635 37.8185 55.5033 39.3946 55.8214 41.0206C56.1396 42.6466 57.7156 43.7069 59.3417 43.3887L58.1895 37.5004ZM69.0923 41.4473C70.7169 41.1219 71.7701 39.5411 71.4447 37.9165C71.1193 36.2919 69.5385 35.2387 67.9139 35.5642L69.0923 41.4473ZM77.6738 33.6389C76.0467 33.9515 74.981 35.5239 75.2936 37.151C75.6062 38.7781 77.1786 39.8438 78.8057 39.5312L77.6738 33.6389ZM88.5097 37.7593C90.1429 37.4804 91.2408 35.9303 90.9619 34.2971C90.683 32.6639 89.133 31.566 87.4998 31.8449L88.5097 37.7593ZM97.3958 30.3243C95.7536 30.5437 94.6001 32.0529 94.8195 33.6951C95.0389 35.3374 96.5481 36.4909 98.1903 36.2715L97.3958 30.3243ZM107.911 35.2413C109.564 35.1195 110.805 33.6812 110.683 32.0289C110.561 30.3765 109.123 29.1357 107.47 29.2575L107.911 35.2413ZM117.658 28.9583C116.002 28.9205 114.628 30.2327 114.59 31.8891C114.553 33.5455 115.865 34.919 117.521 34.9568L117.658 28.9583ZM126.907 35.8802C128.534 36.1939 130.107 35.1294 130.421 33.5025C130.734 31.8757 129.67 30.3025 128.043 29.9887L126.907 35.8802ZM138.239 33.4764C136.782 32.6869 134.961 33.2278 134.172 34.6845C133.382 36.1411 133.923 37.962 135.38 38.7515L138.239 33.4764ZM141.649 44.2971C142.583 45.6655 144.45 46.0176 145.818 45.0834C147.187 44.1493 147.539 42.2827 146.605 40.9143L141.649 44.2971ZM150.665 51.2173C150.37 49.5869 148.809 48.5043 147.179 48.7993C145.548 49.0943 144.466 50.6551 144.761 52.2855L150.665 51.2173ZM145.491 61.6999C145.603 63.3529 147.034 64.6017 148.687 64.4892C150.34 64.3767 151.589 62.9454 151.477 61.2924L145.491 61.6999ZM152.421 70.4113C152.188 68.7709 150.669 67.6302 149.028 67.8634C147.388 68.0967 146.247 69.6155 146.481 71.2559L152.421 70.4113ZM148.263 80.7345C148.648 82.346 150.266 83.3405 151.878 82.9556C153.49 82.5708 154.484 80.9524 154.099 79.3409L148.263 80.7345ZM156.705 87.9893C156.126 86.4368 154.398 85.6473 152.846 86.226C151.293 86.8047 150.504 88.5323 151.082 90.0848L156.705 87.9893ZM155.238 99.0385C156.061 100.477 157.894 100.975 159.332 100.152C160.77 99.3293 161.268 97.4964 160.445 96.0583L155.238 99.0385ZM165.545 103.158C164.433 101.931 162.535 101.837 161.308 102.95C160.08 104.063 159.987 105.96 161.099 107.188L165.545 103.158ZM168.854 113.764C170.253 114.652 172.107 114.238 172.994 112.839C173.882 111.44 173.468 109.586 172.069 108.698L168.854 113.764ZM179.817 112.149C178.221 111.703 176.566 112.636 176.121 114.232C175.675 115.828 176.608 117.482 178.204 117.928L179.817 112.149ZM188.304 119.269C189.961 119.263 191.3 117.916 191.295 116.259C191.289 114.602 189.942 113.263 188.285 113.269L188.304 119.269ZM196.871 112.176C195.263 112.576 194.285 114.204 194.685 115.812C195.086 117.42 196.714 118.398 198.321 117.998L196.871 112.176ZM207.734 114.517C209.217 113.777 209.819 111.976 209.079 110.493C208.34 109.011 206.538 108.408 205.056 109.148L207.734 114.517ZM212.37 104.429C211.09 105.481 210.905 107.372 211.957 108.652C213.009 109.932 214.9 110.116 216.18 109.064L212.37 104.429ZM223.046 102.764C224.355 101.748 224.593 99.8636 223.577 98.5545C222.561 97.2455 220.677 97.0077 219.368 98.0234L223.046 102.764ZM227.858 92.7116C226.384 93.4686 225.803 95.277 226.56 96.7508C227.317 98.2246 229.126 98.8057 230.6 98.0486L227.858 92.7116ZM238.935 94.434C240.492 93.8678 241.295 92.1465 240.729 90.5894C240.163 89.0323 238.441 88.229 236.884 88.7953L238.935 94.434ZM246.274 85.9673C244.663 86.3554 243.672 87.9758 244.06 89.5865C244.448 91.1973 246.068 92.1885 247.679 91.8004L246.274 85.9673ZM256.637 90.1957C258.283 90.0063 259.464 88.5185 259.275 86.8725C259.085 85.2265 257.597 84.0457 255.951 84.235L256.637 90.1957ZM265.872 83.8334C264.216 83.7643 262.818 85.0503 262.749 86.7057C262.68 88.3611 263.966 89.7591 265.622 89.8282L265.872 83.8334ZM274.267 91.124C275.862 91.5749 277.52 90.6481 277.971 89.0538C278.422 87.4594 277.495 85.8014 275.9 85.3505L274.267 91.124ZM285.386 89.9804C284.077 88.9647 282.192 89.2024 281.176 90.5114C280.16 91.8204 280.398 93.7049 281.707 94.7207L285.386 89.9804ZM286.51 100.925C287.163 102.448 288.927 103.153 290.449 102.5C291.972 101.847 292.677 100.083 292.024 98.5604L286.51 100.925ZM294.089 108.909C294.06 107.253 292.694 105.933 291.037 105.962C289.381 105.991 288.061 107.357 288.09 109.014L294.089 108.909ZM287.164 117.715C286.823 119.336 287.861 120.927 289.482 121.268C291.103 121.61 292.694 120.572 293.035 118.951L287.164 117.715ZM290.302 128.444C290.86 126.884 290.047 125.167 288.487 124.609C286.927 124.052 285.21 124.864 284.652 126.425L290.302 128.444ZM281.232 135.568C280.746 137.152 281.636 138.83 283.22 139.316C284.804 139.802 286.482 138.912 286.968 137.328L281.232 135.568ZM285.774 145.555C285.642 143.903 284.196 142.671 282.544 142.804C280.893 142.936 279.661 144.382 279.793 146.033L285.774 145.555ZM285.143 156.375C286.448 157.396 288.334 157.165 289.354 155.859C290.374 154.554 290.143 152.668 288.838 151.648L285.143 156.375ZM296.222 154.393C294.584 154.144 293.055 155.27 292.806 156.908C292.557 158.546 293.684 160.076 295.322 160.325L296.222 154.393ZM305.436 160.704C307.091 160.62 308.364 159.21 308.28 157.555C308.195 155.9 306.785 154.627 305.131 154.712L305.436 160.704ZM314.314 153.72C312.677 153.975 311.556 155.509 311.811 157.146C312.066 158.783 313.6 159.903 315.237 159.649L314.314 153.72ZM324.796 157.824C326.413 157.464 327.433 155.862 327.074 154.245C326.715 152.627 325.112 151.607 323.495 151.966L324.796 157.824ZM332.616 149.715C331.016 150.146 330.069 151.792 330.499 153.392C330.93 154.992 332.577 155.939 334.176 155.508L332.616 149.715ZM343.437 152.841C345.022 152.357 345.914 150.68 345.43 149.095C344.946 147.51 343.269 146.618 341.684 147.102L343.437 152.841ZM350.692 144.216C349.12 144.741 348.273 146.441 348.798 148.012C349.324 149.584 351.024 150.431 352.595 149.906L350.692 144.216ZM361.668 146.757C363.228 146.197 364.038 144.479 363.478 142.92C362.919 141.36 361.201 140.55 359.641 141.11L361.668 146.757ZM368.517 137.829C366.969 138.417 366.19 140.15 366.779 141.699C367.367 143.247 369.1 144.026 370.649 143.437L368.517 137.829ZM379.604 139.949C381.143 139.335 381.893 137.59 381.279 136.051C380.665 134.512 378.92 133.762 377.381 134.376L379.604 139.949ZM386.163 130.796C384.633 131.433 383.91 133.189 384.546 134.719C385.183 136.248 386.939 136.972 388.469 136.335L386.163 130.796ZM397.275 132.594C398.795 131.935 399.494 130.168 398.835 128.648C398.176 127.128 396.409 126.43 394.889 127.089L397.275 132.594ZM403.586 123.238C402.077 123.922 401.407 125.699 402.091 127.209C402.774 128.718 404.552 129.388 406.061 128.704L403.586 123.238ZM9.45753 0.125956C8.63753 1.76119 7.8757 3.34386 7.17072 4.87544L12.6211 7.38418C13.2961 5.91766 14.0287 4.39535 14.821 2.81549L9.45753 0.125956ZM3.32034 14.2838C2.04711 17.915 1.1734 21.2163 0.68997 24.2112L6.6133 25.1674C7.0278 22.5995 7.79752 19.6482 8.98236 16.2691L3.32034 14.2838ZM1.008 35.3661C2.23021 39.6156 4.85496 42.6743 8.4609 44.6829L11.3806 39.4412C9.06797 38.153 7.53009 36.3357 6.77426 33.7076L1.008 35.3661ZM19.1105 47.6861C22.3047 48.0129 25.7944 48.023 29.483 47.81L29.137 41.82C25.6597 42.0208 22.5057 42.0022 19.7211 41.7173L19.1105 47.6861ZM39.6251 46.7894C42.8205 46.3568 46.1308 45.8242 49.5164 45.2284L48.4764 39.3192C45.1446 39.9056 41.9158 40.4245 38.8202 40.8436L39.6251 46.7894ZM59.3417 43.3887C62.558 42.7594 65.8217 42.1024 69.0923 41.4473L67.9139 35.5642C64.6349 36.221 61.389 36.8743 58.1895 37.5004L59.3417 43.3887ZM78.8057 39.5312C82.0632 38.9054 85.3056 38.3063 88.5097 37.7593L87.4998 31.8449C84.2429 32.401 80.9576 33.0081 77.6738 33.6389L78.8057 39.5312ZM98.1903 36.2715C101.526 35.826 104.776 35.4724 107.911 35.2413L107.47 29.2575C104.193 29.4991 100.823 29.8665 97.3958 30.3243L98.1903 36.2715ZM117.521 34.9568C120.908 35.034 124.049 35.3291 126.907 35.8802L128.043 29.9887C124.784 29.3602 121.298 29.0414 117.658 28.9583L117.521 34.9568ZM135.38 38.7515C137.966 40.1533 140.063 41.9741 141.649 44.2971L146.605 40.9143C144.425 37.7208 141.573 35.2834 138.239 33.4764L135.38 38.7515ZM144.761 52.2855C145.015 53.69 145.178 55.2151 145.239 56.8704L151.235 56.6503C151.165 54.7372 150.974 52.9271 150.665 51.2173L144.761 52.2855ZM145.239 56.8704C145.299 58.5184 145.384 60.128 145.491 61.6999L151.477 61.2924C151.374 59.7847 151.293 58.2376 151.235 56.6503L145.239 56.8704ZM146.481 71.2559C146.958 74.615 147.556 77.7717 148.263 80.7345L154.099 79.3409C153.438 76.5718 152.874 73.599 152.421 70.4113L146.481 71.2559ZM151.082 90.0848C152.307 93.3709 153.699 96.3502 155.238 99.0385L160.445 96.0583C159.081 93.6744 157.824 90.9936 156.705 87.9893L151.082 90.0848ZM161.099 107.188C163.507 109.844 166.111 112.024 168.854 113.764L172.069 108.698C169.793 107.254 167.601 105.427 165.545 103.158L161.099 107.188ZM178.204 117.928C181.546 118.861 184.944 119.28 188.304 119.269L188.285 113.269C185.436 113.278 182.59 112.923 179.817 112.149L178.204 117.928ZM198.321 117.998C201.611 117.178 204.779 115.991 207.734 114.517L205.056 109.148C202.479 110.433 199.721 111.466 196.871 112.176L198.321 117.998ZM216.18 109.064C217.509 107.971 218.753 106.811 219.892 105.596L215.515 101.492C214.561 102.509 213.509 103.493 212.37 104.429L216.18 109.064ZM219.892 105.596C220.768 104.662 221.823 103.713 223.046 102.764L219.368 98.0234C217.94 99.1309 216.642 100.29 215.515 101.492L219.892 105.596ZM230.6 98.0486C233.165 96.7307 235.974 95.5105 238.935 94.434L236.884 88.7953C233.705 89.9513 230.664 91.2704 227.858 92.7116L230.6 98.0486ZM247.679 91.8004C250.655 91.0834 253.667 90.5374 256.637 90.1957L255.951 84.235C252.721 84.6066 249.468 85.1976 246.274 85.9673L247.679 91.8004ZM265.622 89.8282C268.731 89.9579 271.644 90.3818 274.267 91.124L275.9 85.3505C272.745 84.4579 269.357 83.9788 265.872 83.8334L265.622 89.8282ZM281.707 94.7207C283.774 96.3245 285.41 98.3613 286.51 100.925L292.024 98.5604C290.507 95.0224 288.221 92.1807 285.386 89.9804L281.707 94.7207ZM288.09 109.014C288.134 111.562 287.851 114.451 287.164 117.715L293.035 118.951C293.8 115.319 294.143 111.976 294.089 108.909L288.09 109.014ZM284.652 126.425C284.155 127.817 283.598 129.259 282.981 130.75L288.524 133.046C289.177 131.469 289.769 129.935 290.302 128.444L284.652 126.425ZM282.981 130.75C282.285 132.429 281.703 134.035 281.232 135.568L286.968 137.328C287.376 135.998 287.892 134.572 288.524 133.046L282.981 130.75ZM279.793 146.033C280.146 150.44 282.004 153.922 285.143 156.375L288.838 151.648C287.109 150.296 286.002 148.401 285.774 145.555L279.793 146.033ZM295.322 160.325C298.401 160.792 301.812 160.889 305.436 160.704L305.131 154.712C301.783 154.883 298.795 154.783 296.222 154.393L295.322 160.325ZM315.237 159.649C318.321 159.168 321.521 158.551 324.796 157.824L323.495 151.966C320.324 152.671 317.251 153.263 314.314 153.72L315.237 159.649ZM334.176 155.508C337.237 154.684 340.334 153.789 343.437 152.841L341.684 147.102C338.637 148.033 335.605 148.91 332.616 149.715L334.176 155.508ZM352.595 149.906C355.649 148.884 358.682 147.829 361.668 146.757L359.641 141.11C356.693 142.168 353.7 143.209 350.692 144.216L352.595 149.906ZM370.649 143.437C373.734 142.265 376.731 141.095 379.604 139.949L377.381 134.376C374.536 135.511 371.57 136.669 368.517 137.829L370.649 143.437ZM388.469 136.335C391.682 134.998 394.641 133.736 397.275 132.594L394.889 127.089C392.279 128.22 389.347 129.471 386.163 130.796L388.469 136.335ZM406.061 128.704C407.435 128.082 408.51 127.588 409.242 127.249C409.608 127.08 409.889 126.949 410.079 126.86C410.174 126.816 410.246 126.782 410.295 126.759C410.32 126.747 410.338 126.738 410.351 126.733C410.357 126.73 410.362 126.727 410.366 126.726C410.367 126.725 410.369 126.724 410.37 126.724C410.37 126.724 410.37 126.723 410.371 126.723C410.371 126.723 410.371 126.723 410.371 126.723C410.371 126.723 410.371 126.723 410.371 126.723C410.371 126.723 410.371 126.723 409.091 124.01C407.81 121.297 407.81 121.297 407.81 121.297L407.81 121.297C407.81 121.297 407.81 121.297 407.81 121.297C407.81 121.297 407.81 121.297 407.81 121.297C407.809 121.297 407.808 121.298 407.807 121.298C407.805 121.3 407.8 121.302 407.795 121.304C407.784 121.309 407.767 121.317 407.744 121.328C407.698 121.35 407.629 121.382 407.538 121.425C407.354 121.511 407.081 121.638 406.722 121.804C406.003 122.137 404.944 122.624 403.586 123.238L406.061 128.704Z" fill="#BBBBBB"/>
</svg>
