<svg width="233" height="176" viewBox="0 0 233 176" fill="none" xmlns="http://www.w3.org/2000/svg">
<path d="M77.5681 117.434L76.0696 117.367L77.5681 117.434ZM128.385 86.0166L126.927 86.3672L128.385 86.0166ZM225.411 47.1412C225.247 47.9531 224.456 48.4783 223.644 48.3141L210.412 45.6385C209.6 45.4744 209.074 44.683 209.239 43.871C209.403 43.059 210.194 42.5339 211.006 42.6981L222.768 45.0763L225.146 33.3144C225.311 32.5024 226.102 31.9772 226.914 32.1414C227.726 32.3056 228.251 33.097 228.087 33.9089L225.411 47.1412ZM-11.7522 69.6116C-11.4162 70.3688 -11.7577 71.255 -12.5149 71.591C-13.2722 71.927 -14.1584 71.5855 -14.4944 70.8282L-11.7522 69.6116ZM-10.4397 79.7753C-10.7872 79.0233 -10.4592 78.1319 -9.70713 77.7845C-8.95508 77.437 -8.06377 77.765 -7.71632 78.5171L-10.4397 79.7753ZM-3.56021 87.3531C-3.20249 88.1003 -3.51823 88.996 -4.26545 89.3538C-5.01266 89.7115 -5.90838 89.3957 -6.26611 88.6485L-3.56021 87.3531ZM-1.97129 97.4609C-2.33953 96.7188 -2.03648 95.8187 -1.29439 95.4505C-0.55231 95.0822 0.347788 95.3853 0.716031 96.1274L-1.97129 97.4609ZM5.12354 104.843C5.50319 105.579 5.21405 106.484 4.47773 106.864C3.74141 107.243 2.83675 106.954 2.45711 106.218L5.12354 104.843ZM7.03857 114.92C6.6461 114.19 6.91935 113.281 7.64891 112.888C8.37846 112.496 9.28805 112.769 9.68053 113.499L7.03857 114.92ZM14.389 122.046C14.7964 122.768 14.5418 123.683 13.8204 124.09C13.0991 124.497 12.1841 124.243 11.7767 123.521L14.389 122.046ZM16.7136 132.024C16.2884 131.313 16.5201 130.392 17.2312 129.967C17.9422 129.542 18.8632 129.774 19.2884 130.485L16.7136 132.024ZM24.4155 138.773C24.8628 139.47 24.6602 140.398 23.9629 140.845C23.2657 141.293 22.3378 141.09 21.8905 140.393L24.4155 138.773ZM27.3597 148.557C26.8836 147.879 27.0471 146.943 27.725 146.467C28.4029 145.991 29.3385 146.155 29.8147 146.832L27.3597 148.557ZM35.6357 154.64C36.1522 155.288 36.0459 156.231 35.3982 156.748C34.7506 157.264 33.8068 157.158 33.2903 156.51L35.6357 154.64ZM39.7984 163.965C39.221 163.371 39.2346 162.421 39.8287 161.844C40.4228 161.267 41.3724 161.28 41.9498 161.874L39.7984 163.965ZM49.1317 168.114C49.8138 168.584 49.9857 169.518 49.5155 170.2C49.0454 170.882 48.1113 171.054 47.4292 170.584L49.1317 168.114ZM57.11 174.468C56.2835 174.412 55.6592 173.696 55.7156 172.87C55.772 172.043 56.4878 171.419 57.3143 171.475L57.11 174.468ZM64.7391 168.227C65.3009 167.618 66.2498 167.58 66.8587 168.142C67.4675 168.704 67.5056 169.653 66.9438 170.262L64.7391 168.227ZM72.1178 161.472C71.811 162.242 70.9385 162.617 70.169 162.31C69.3994 162.003 69.0243 161.131 69.3311 160.361L72.1178 161.472ZM72.137 151.114C72.3245 150.307 73.1307 149.805 73.9376 149.993C74.7446 150.18 75.2467 150.986 75.0591 151.793L72.137 151.114ZM76.8825 142.022C76.7609 142.841 75.998 143.407 75.1786 143.285C74.3591 143.164 73.7934 142.401 73.915 141.581L76.8825 142.022ZM75.0659 132.042C75.1454 131.217 75.8782 130.613 76.7029 130.692C77.5275 130.772 78.1315 131.505 78.0521 132.329L75.0659 132.042ZM78.7996 122.64C78.7501 123.467 78.0396 124.097 77.2126 124.048C76.3857 123.998 75.7555 123.288 75.8049 122.461L78.7996 122.64ZM76.3085 112.338C76.3504 111.511 77.0551 110.874 77.8825 110.916C78.7098 110.958 79.3466 111.663 79.3046 112.49L76.3085 112.338ZM79.8549 102.885C79.8017 103.712 79.0884 104.339 78.2617 104.286C77.4349 104.233 76.8079 103.519 76.8611 102.693L79.8549 102.885ZM77.5668 92.956C77.6338 92.1303 78.3576 91.5153 79.1833 91.5824C80.009 91.6494 80.624 92.3731 80.5569 93.1989L77.5668 92.956ZM81.4452 83.4866C81.3606 84.3107 80.624 84.9102 79.7999 84.8257C78.9758 84.7411 78.3763 84.0045 78.4609 83.1804L81.4452 83.4866ZM79.5874 73.4648C79.6947 72.6434 80.4477 72.0645 81.2691 72.1719C82.0906 72.2792 82.6694 73.0322 82.5621 73.8536L79.5874 73.4648ZM83.9822 64.3266C83.8434 65.1433 83.0688 65.6929 82.2521 65.5541C81.4354 65.4153 80.8858 64.6407 81.0246 63.824L83.9822 64.3266ZM82.9406 54.1501C83.1274 53.343 83.9331 52.8401 84.7402 53.0269C85.5473 53.2138 86.0502 54.0195 85.8633 54.8266L82.9406 54.1501ZM88.4449 45.6445C88.1741 46.4274 87.3198 46.8424 86.5369 46.5716C85.754 46.3008 85.3389 45.4465 85.6098 44.6636L88.4449 45.6445ZM89.9572 35.5096C90.4281 34.828 91.3623 34.6572 92.0439 35.128C92.7255 35.5989 92.8963 36.5332 92.4254 37.2148L89.9572 35.5096ZM98.9253 33.3363C98.1071 33.2067 97.5488 32.4384 97.6783 31.6202C97.8078 30.8019 98.5762 30.2436 99.3944 30.3732L98.9253 33.3363ZM108.178 36.2735C108.72 36.8997 108.652 37.847 108.026 38.3893C107.4 38.9317 106.453 38.8637 105.91 38.2375L108.178 36.2735ZM111.31 46.0202C110.893 45.3046 111.134 44.3861 111.85 43.9687C112.565 43.5513 113.484 43.793 113.901 44.5086L111.31 46.0202ZM118.444 53.2626C118.795 54.0131 118.471 54.9058 117.72 55.2565C116.97 55.6072 116.077 55.2831 115.727 54.5326L118.444 53.2626ZM119.534 63.4096C119.23 62.6391 119.608 61.7677 120.378 61.4633C121.149 61.1589 122.02 61.5367 122.324 62.3071L119.534 63.4096ZM125.698 71.5245C125.963 72.3093 125.542 73.1605 124.757 73.4259C123.972 73.6912 123.121 73.27 122.856 72.4853L125.698 71.5245ZM125.72 81.7399C125.497 80.9419 125.963 80.1145 126.761 79.8918C127.559 79.6691 128.387 80.1354 128.609 80.9334L125.72 81.7399ZM131.094 90.0741C131.352 90.8613 130.923 91.7086 130.136 91.9665C129.348 92.2245 128.501 91.7954 128.243 91.0081L131.094 90.0741ZM131.981 99.8966C131.596 99.1627 131.88 98.2562 132.614 97.8719C133.347 97.4876 134.254 97.7709 134.638 98.5048L131.981 99.8966ZM139.614 106.072C140.145 106.707 140.061 107.653 139.425 108.184C138.789 108.716 137.843 108.631 137.312 107.995L139.614 106.072ZM144.959 114.382C144.216 114.016 143.911 113.116 144.278 112.373C144.644 111.63 145.544 111.325 146.287 111.692L144.959 114.382ZM153.845 111.763C154.56 111.345 155.478 111.586 155.896 112.302C156.314 113.017 156.073 113.936 155.358 114.354L153.845 111.763ZM161.824 106.563C161.465 107.31 160.569 107.624 159.822 107.266C159.075 106.908 158.76 106.011 159.119 105.265L161.824 106.563ZM162.032 96.6363C162.224 95.8304 163.033 95.3326 163.839 95.5244C164.645 95.7162 165.143 96.525 164.951 97.331L162.032 96.6363ZM166.613 87.9186C166.51 88.7405 165.759 89.3227 164.937 89.2189C164.115 89.1152 163.533 88.3648 163.637 87.5429L166.613 87.9186ZM164.464 78.3519C164.512 77.5249 165.222 76.8936 166.049 76.942C166.876 76.9903 167.507 77.6999 167.459 78.5269L164.464 78.3519ZM167.775 69.0145C167.767 69.8429 167.088 70.5073 166.26 70.4985C165.431 70.4897 164.767 69.811 164.776 68.9826L167.775 69.0145ZM164.702 59.6908C164.682 58.8626 165.336 58.1745 166.164 58.1539C166.992 58.1332 167.681 58.7879 167.701 59.616L164.702 59.6908ZM167.329 50.1961C167.373 51.0234 166.738 51.7297 165.911 51.7736C165.083 51.8176 164.377 51.1827 164.333 50.3554L167.329 50.1961ZM163.783 40.7161C163.748 39.8884 164.389 39.1885 165.217 39.1528C166.045 39.117 166.745 39.7589 166.78 40.5866L163.783 40.7161ZM166.63 31.2917C166.618 32.12 165.936 32.7814 165.108 32.7689C164.28 32.7563 163.618 32.0747 163.631 31.2463L166.63 31.2917ZM164.195 21.696C164.288 20.8728 165.031 20.2808 165.854 20.3736C166.677 20.4665 167.269 21.2091 167.177 22.0323L164.195 21.696ZM168.966 13.12C168.71 13.9078 167.863 14.3389 167.075 14.0829C166.288 13.8268 165.856 12.9806 166.113 12.1927L168.966 13.12ZM171.55 3.6032C172.214 3.10715 173.154 3.24289 173.65 3.90639C174.146 4.56989 174.01 5.50989 173.347 6.00593L171.55 3.6032ZM181.008 5.16733C180.216 4.92574 179.769 4.0875 180.011 3.2951C180.252 2.50268 181.091 2.05615 181.883 2.29774L181.008 5.16733ZM190.622 6.9017C191.297 7.38243 191.454 8.31908 190.974 8.99375C190.493 9.66843 189.556 9.82567 188.881 9.34493L190.622 6.9017ZM195.971 15.2366C195.366 14.6705 195.335 13.7212 195.901 13.1164C196.467 12.5116 197.416 12.4802 198.021 13.0463L195.971 15.2366ZM204.726 19.8551C205.286 20.4653 205.246 21.4142 204.636 21.9744C204.025 22.5347 203.077 22.4942 202.516 21.884L204.726 19.8551ZM208.662 28.9519C208.134 28.3138 208.223 27.3682 208.861 26.84C209.499 26.3117 210.445 26.4008 210.973 27.039L208.662 28.9519ZM216.877 34.475C217.38 35.1335 217.254 36.0749 216.595 36.5775C215.937 37.0801 214.995 36.9538 214.493 36.2953L216.877 34.475ZM220.045 43.8451C219.567 43.169 219.727 42.2328 220.403 41.7542C221.079 41.2755 222.015 41.4356 222.494 42.1117L220.045 43.8451ZM-15.0575 65.7962C-13.6774 65.2084 -13.6774 65.2084 -13.6774 65.2084C-13.6774 65.2084 -13.6774 65.2084 -13.6774 65.2084C-13.6774 65.2084 -13.6774 65.2085 -13.6774 65.2085C-13.6773 65.2087 -13.6772 65.2089 -13.6771 65.2093C-13.6768 65.21 -13.6763 65.2111 -13.6757 65.2125C-13.6744 65.2154 -13.6725 65.2199 -13.6699 65.226C-13.6648 65.238 -13.657 65.2563 -13.6466 65.2806C-13.6258 65.3292 -13.5945 65.4021 -13.5531 65.4986C-13.4701 65.6916 -13.3463 65.9787 -13.1834 66.3538C-12.8576 67.104 -12.3756 68.2063 -11.7522 69.6116L-14.4944 70.8282C-15.1213 69.4153 -15.6064 68.3057 -15.9352 67.5487C-16.0995 67.1701 -16.2248 66.8797 -16.3091 66.6835C-16.3513 66.5854 -16.3832 66.5109 -16.4047 66.4607C-16.4154 66.4356 -16.4236 66.4166 -16.429 66.4038C-16.4318 66.3974 -16.4339 66.3925 -16.4353 66.3892C-16.436 66.3875 -16.4365 66.3863 -16.4369 66.3854C-16.4371 66.385 -16.4372 66.3846 -16.4373 66.3844C-16.4374 66.3843 -16.4374 66.3842 -16.4375 66.3841C-16.4375 66.384 -16.4375 66.384 -16.4375 66.384C-16.4375 66.384 -16.4375 66.3839 -15.0575 65.7962ZM-7.71632 78.5171C-6.48749 81.1768 -5.09406 84.1492 -3.56021 87.3531L-6.26611 88.6485C-7.8064 85.4311 -9.20567 82.4464 -10.4397 79.7753L-7.71632 78.5171ZM0.716031 96.1274C2.11387 98.9443 3.58709 101.863 5.12354 104.843L2.45711 106.218C0.912993 103.223 -0.567193 100.29 -1.97129 97.4609L0.716031 96.1274ZM9.68053 113.499C11.209 116.34 12.7817 119.2 14.389 122.046L11.7767 123.521C10.1584 120.656 8.5758 117.778 7.03857 114.92L9.68053 113.499ZM19.2884 130.485C20.9759 133.307 22.6883 136.081 24.4155 138.773L21.8905 140.393C20.1443 137.671 18.4153 134.87 16.7136 132.024L19.2884 130.485ZM29.8147 146.832C31.7566 149.597 33.7016 152.215 35.6357 154.64L33.2903 156.51C31.3121 154.03 29.3307 151.363 27.3597 148.557L29.8147 146.832ZM41.9498 161.874C44.4212 164.417 46.8256 166.524 49.1317 168.114L47.4292 170.584C44.9161 168.852 42.3621 166.603 39.7984 163.965L41.9498 161.874ZM57.3143 171.475C59.952 171.655 62.4294 170.73 64.7391 168.227L66.9438 170.262C64.0806 173.365 60.743 174.716 57.11 174.468L57.3143 171.475ZM69.3311 160.361C70.3577 157.787 71.2988 154.72 72.137 151.114L75.0591 151.793C74.1949 155.512 73.2122 158.727 72.1178 161.472L69.3311 160.361ZM73.915 141.581C74.3506 138.647 74.7355 135.471 75.0659 132.042L78.0521 132.329C77.7173 135.804 77.3265 139.031 76.8825 142.022L73.915 141.581ZM75.8049 122.461C75.9037 120.811 75.992 119.113 76.0696 117.367L79.0666 117.501C78.9884 119.261 78.8993 120.974 78.7996 122.64L75.8049 122.461ZM76.0696 117.367C76.1454 115.661 76.2251 113.985 76.3085 112.338L79.3046 112.49C79.2216 114.13 79.1422 115.8 79.0666 117.501L76.0696 117.367ZM76.8611 102.693C77.079 99.3058 77.3145 96.0618 77.5668 92.956L80.5569 93.1989C80.3061 96.2869 80.0718 99.5141 79.8549 102.885L76.8611 102.693ZM78.4609 83.1804C78.8133 79.7458 79.1894 76.51 79.5874 73.4648L82.5621 73.8536C82.168 76.8689 81.7951 80.0771 81.4452 83.4866L78.4609 83.1804ZM81.0246 63.824C81.6271 60.2783 82.267 57.0602 82.9406 54.1501L85.8633 54.8266C85.205 57.6709 84.5763 60.8303 83.9822 64.3266L81.0246 63.824ZM85.6098 44.6636C86.9486 40.7938 88.3981 37.7663 89.9572 35.5096L92.4254 37.2148C91.0724 39.1733 89.7303 41.929 88.4449 45.6445L85.6098 44.6636ZM99.3944 30.3732C102.539 30.871 105.498 33.179 108.178 36.2735L105.91 38.2375C103.366 35.2999 101 33.6647 98.9253 33.3363L99.3944 30.3732ZM113.901 44.5086C115.479 47.2136 117.002 50.1745 118.444 53.2626L115.727 54.5326C114.314 51.5085 112.833 48.6308 111.31 46.0202L113.901 44.5086ZM122.324 62.3071C123.547 65.4005 124.678 68.5096 125.698 71.5245L122.856 72.4853C121.851 69.515 120.737 66.4533 119.534 63.4096L122.324 62.3071ZM128.609 80.9334C129.074 82.5997 129.488 84.186 129.843 85.666L126.927 86.3672C126.58 84.9261 126.176 83.375 125.72 81.7399L128.609 80.9334ZM129.843 85.666C130.202 87.159 130.622 88.6322 131.094 90.0741L128.243 91.0081C127.746 89.4909 127.305 87.9401 126.927 86.3672L129.843 85.666ZM134.638 98.5048C136.139 101.37 137.828 103.934 139.614 106.072L137.312 107.995C135.37 105.672 133.566 102.924 131.981 99.8966L134.638 98.5048ZM146.287 111.692C149.003 113.032 151.547 113.105 153.845 111.763L155.358 114.354C152.002 116.314 148.364 116.062 144.959 114.382L146.287 111.692ZM159.119 105.265C160.21 102.992 161.198 100.142 162.032 96.6363L164.951 97.331C164.08 100.991 163.028 104.053 161.824 106.563L159.119 105.265ZM163.637 87.5429C163.99 84.7468 164.269 81.6884 164.464 78.3519L167.459 78.5269C167.26 81.9225 166.976 85.0484 166.613 87.9186L163.637 87.5429ZM164.776 68.9826C164.807 66.0562 164.784 62.9612 164.702 59.6908L167.701 59.616C167.784 62.9193 167.807 66.05 167.775 69.0145L164.776 68.9826ZM164.333 50.3554C164.25 48.8029 164.156 47.2166 164.05 45.596L167.044 45.3999C167.151 47.0324 167.246 48.631 167.329 50.1961L164.333 50.3554ZM164.05 45.596C163.94 43.9118 163.851 42.2857 163.783 40.7161L166.78 40.5866C166.847 42.1328 166.935 43.7367 167.044 45.3999L164.05 45.596ZM163.631 31.2463C163.684 27.6995 163.876 24.5249 164.195 21.696L167.177 22.0323C166.87 24.7481 166.683 27.824 166.63 31.2917L163.631 31.2463ZM166.113 12.1927C167.411 8.19606 169.223 5.34305 171.55 3.6032L173.347 6.00593C171.689 7.24522 170.153 9.46614 168.966 13.12L166.113 12.1927ZM181.883 2.29774C184.726 3.16468 187.682 4.80641 190.622 6.9017L188.881 9.34493C186.085 7.35201 183.427 5.90473 181.008 5.16733L181.883 2.29774ZM198.021 13.0463C200.3 15.179 202.552 17.4874 204.726 19.8551L202.516 21.884C200.382 19.5597 198.183 17.3071 195.971 15.2366L198.021 13.0463ZM210.973 27.039C213.114 29.6249 215.104 32.1523 216.877 34.475L214.493 36.2953C212.74 33.9986 210.773 31.5026 208.662 28.9519L210.973 27.039ZM222.494 42.1117C223.348 43.3179 224.02 44.291 224.48 44.9638C224.71 45.3002 224.887 45.5616 225.007 45.7395C225.067 45.8284 225.112 45.8965 225.143 45.9427C225.158 45.9658 225.17 45.9834 225.178 45.9954C225.182 46.0014 225.185 46.006 225.187 46.0092C225.188 46.0108 225.189 46.012 225.19 46.0129C225.19 46.0133 225.19 46.0137 225.191 46.0139C225.191 46.0141 225.191 46.0142 225.191 46.0143C225.191 46.0143 225.191 46.0144 225.191 46.0144C225.191 46.0144 225.191 46.0145 223.941 46.8439C222.691 47.6733 222.691 47.6733 222.691 47.6733L222.691 47.6733C222.691 47.6733 222.691 47.6733 222.691 47.6733C222.691 47.6732 222.691 47.673 222.691 47.6727C222.69 47.6721 222.69 47.6712 222.689 47.67C222.687 47.6675 222.685 47.6635 222.681 47.6582C222.674 47.6475 222.663 47.6313 222.649 47.6095C222.62 47.5661 222.576 47.5008 222.518 47.4147C222.402 47.2424 222.229 46.987 222.003 46.6567C221.552 45.9962 220.889 45.0366 220.045 43.8451L222.494 42.1117ZM77.5681 117.434L74.5711 117.301L77.5681 117.434ZM128.385 86.0166L125.468 86.7177L128.385 86.0166ZM226.882 47.4384C226.553 49.0624 224.97 50.1127 223.346 49.7844L196.882 44.4332C195.258 44.1048 194.208 42.5221 194.536 40.8982C194.864 39.2742 196.447 38.2239 198.071 38.5522L221.595 43.3088L226.352 19.7849C226.68 18.1609 228.263 17.1106 229.887 17.439C231.511 17.7673 232.561 19.35 232.233 20.974L226.882 47.4384ZM-10.3811 69.0032C-9.7091 70.5177 -10.3921 72.2901 -11.9066 72.9621C-13.421 73.6341 -15.1935 72.9511 -15.8655 71.4366L-10.3811 69.0032ZM-11.8014 80.4044C-12.4963 78.9003 -11.8403 77.1177 -10.3362 76.4228C-8.83215 75.7279 -7.04952 76.3839 -6.35462 77.888L-11.8014 80.4044ZM-2.20726 86.7054C-1.49182 88.1998 -2.12331 89.9913 -3.61773 90.7067C-5.11216 91.4221 -6.90361 90.7907 -7.61905 89.2962L-2.20726 86.7054ZM-3.31495 98.1277C-4.05144 96.6435 -3.44533 94.8433 -1.96116 94.1068C-0.47699 93.3703 1.32321 93.9764 2.05969 95.4606L-3.31495 98.1277ZM6.45676 104.156C7.21605 105.628 6.63777 107.438 5.16514 108.197C3.69251 108.956 1.88318 108.378 1.12389 106.905L6.45676 104.156ZM5.7176 115.631C4.93264 114.172 5.47915 112.352 6.93827 111.567C8.39738 110.782 10.2166 111.329 11.0015 112.788L5.7176 115.631ZM15.6952 121.309C16.5099 122.752 16.0007 124.582 14.558 125.396C13.1153 126.211 11.2853 125.702 10.4706 124.259L15.6952 121.309ZM15.4262 132.794C14.5759 131.372 15.0393 129.53 16.4613 128.68C17.8834 127.829 19.7254 128.293 20.5758 129.715L15.4262 132.794ZM25.678 137.963C26.5727 139.358 26.1674 141.213 24.7729 142.108C23.3784 143.003 21.5226 142.597 20.6279 141.203L25.678 137.963ZM26.1323 149.419C25.18 148.063 25.507 146.192 26.8629 145.24C28.2187 144.287 30.0898 144.614 31.0421 145.97L26.1323 149.419ZM36.8085 153.705C37.8415 155 37.6289 156.888 36.3335 157.921C35.0381 158.954 33.1506 158.741 32.1175 157.446L36.8085 153.705ZM38.7227 165.01C37.568 163.822 37.5951 161.923 38.7833 160.768C39.9714 159.614 41.8707 159.641 43.0255 160.829L38.7227 165.01ZM49.983 166.879C51.3472 167.819 51.6908 169.687 50.7506 171.051C49.8103 172.416 47.9421 172.759 46.5779 171.819L49.983 166.879ZM57.0079 175.965C55.3549 175.852 54.1063 174.421 54.2191 172.768C54.3319 171.115 55.7634 169.866 57.4164 169.979L57.0079 175.965ZM63.6367 167.21C64.7603 165.992 66.6583 165.916 67.8759 167.04C69.0936 168.163 69.1698 170.061 68.0462 171.279L63.6367 167.21ZM73.5112 162.028C72.8976 163.567 71.1525 164.317 69.6135 163.704C68.0744 163.09 67.3242 161.345 67.9378 159.806L73.5112 162.028ZM70.6759 150.775C71.051 149.161 72.6634 148.157 74.2772 148.532C75.8911 148.907 76.8953 150.519 76.5202 152.133L70.6759 150.775ZM78.3663 142.242C78.123 143.881 76.5973 145.012 74.9584 144.769C73.3195 144.526 72.1881 143 72.4313 141.361L78.3663 142.242ZM73.5728 131.898C73.7317 130.249 75.1975 129.04 76.8467 129.199C78.4959 129.358 79.7041 130.824 79.5452 132.473L73.5728 131.898ZM80.2969 122.73C80.1979 124.384 78.7769 125.644 77.123 125.545C75.4691 125.446 74.2086 124.025 74.3076 122.371L80.2969 122.73ZM74.8104 112.262C74.8942 110.607 76.3036 109.334 77.9583 109.418C79.6131 109.502 80.8865 110.911 80.8027 112.566L74.8104 112.262ZM81.3518 102.982C81.2454 104.635 79.8188 105.889 78.1653 105.783C76.5119 105.676 75.2578 104.25 75.3642 102.596L81.3518 102.982ZM76.0717 92.8346C76.2058 91.1832 77.6533 89.9532 79.3047 90.0873C80.9561 90.2214 82.1861 91.6689 82.052 93.3203L76.0717 92.8346ZM82.9374 83.6397C82.7682 85.2879 81.295 86.487 79.6468 86.3178C77.9986 86.1487 76.7996 84.6755 76.9687 83.0273L82.9374 83.6397ZM78.1 73.2704C78.3148 71.6275 79.8207 70.4698 81.4635 70.6845C83.1064 70.8992 84.2642 72.4051 84.0494 74.048L78.1 73.2704ZM85.461 64.5779C85.1834 66.2113 83.6342 67.3105 82.0008 67.0329C80.3674 66.7553 79.2682 65.2061 79.5458 63.5727L85.461 64.5779ZM81.4792 53.8118C81.8529 52.1976 83.4643 51.192 85.0785 51.5656C86.6927 51.9392 87.6983 53.5506 87.3247 55.1648L81.4792 53.8118ZM89.8625 46.1349C89.3208 47.7007 87.6123 48.5309 86.0465 47.9892C84.4807 47.4475 83.6505 45.739 84.1922 44.1732L89.8625 46.1349ZM88.7231 34.657C89.6648 33.2938 91.5333 32.9522 92.8965 33.8939C94.2597 34.8357 94.6013 36.7042 93.6596 38.0674L88.7231 34.657ZM98.6908 34.8178C97.0543 34.5587 95.9377 33.0221 96.1968 31.3856C96.4558 29.7492 97.9925 28.6326 99.6289 28.8916L98.6908 34.8178ZM109.312 35.2915C110.397 36.5439 110.261 38.4385 109.008 39.5232C107.756 40.6079 105.861 40.4719 104.776 39.2195L109.312 35.2915ZM110.014 46.776C109.179 45.3448 109.663 43.5079 111.094 42.6731C112.525 41.8382 114.362 42.3217 115.197 43.7529L110.014 46.776ZM119.803 52.6276C120.505 54.1287 119.857 55.9141 118.355 56.6155C116.854 57.3169 115.069 56.6686 114.368 55.1675L119.803 52.6276ZM118.139 63.9608C117.53 62.4198 118.286 60.6771 119.827 60.0682C121.368 59.4594 123.111 60.215 123.72 61.7559L118.139 63.9608ZM127.119 71.0441C127.649 72.6137 126.807 74.3162 125.237 74.8469C123.668 75.3775 121.965 74.5352 121.435 72.9656L127.119 71.0441ZM124.275 82.1431C123.83 80.5473 124.762 78.8925 126.358 78.4471C127.954 78.0016 129.609 78.9343 130.054 80.5301L124.275 82.1431ZM132.519 89.6071C133.035 91.1816 132.177 92.8761 130.603 93.392C129.028 93.9079 127.333 93.0497 126.818 91.4752L132.519 89.6071ZM130.652 100.592C129.883 99.1247 130.45 97.3117 131.918 96.5431C133.385 95.7744 135.198 96.3412 135.967 97.8089L130.652 100.592ZM140.765 105.11C141.827 106.381 141.658 108.273 140.387 109.335C139.115 110.398 137.223 110.229 136.161 108.957L140.765 105.11ZM144.296 115.727C142.81 114.994 142.199 113.196 142.933 111.71C143.666 110.224 145.464 109.614 146.95 110.347L144.296 115.727ZM153.088 110.468C154.519 109.632 156.356 110.115 157.192 111.545C158.027 112.976 157.545 114.813 156.114 115.649L153.088 110.468ZM163.176 107.212C162.459 108.705 160.667 109.335 159.173 108.618C157.679 107.901 157.05 106.109 157.767 104.616L163.176 107.212ZM160.573 96.289C160.957 94.6772 162.574 93.6815 164.186 94.0652C165.798 94.4488 166.794 96.0665 166.41 97.6783L160.573 96.289ZM168.102 88.1065C167.894 89.7503 166.393 90.9146 164.749 90.7071C163.106 90.4996 161.941 88.9988 162.149 87.355L168.102 88.1065ZM162.967 78.2644C163.063 76.6104 164.482 75.3479 166.136 75.4445C167.79 75.5412 169.053 76.9604 168.956 78.6144L162.967 78.2644ZM169.275 69.0305C169.258 70.6872 167.9 72.016 166.244 71.9984C164.587 71.9808 163.258 70.6234 163.276 68.9667L169.275 69.0305ZM163.203 59.7281C163.161 58.0718 164.471 56.6956 166.127 56.6543C167.783 56.6131 169.159 57.9223 169.201 59.5787L163.203 59.7281ZM168.827 50.1165C168.915 51.771 167.645 53.1836 165.99 53.2715C164.336 53.3595 162.923 52.0895 162.835 50.435L168.827 50.1165ZM162.285 40.7809C162.213 39.1255 163.497 37.7257 165.152 37.6541C166.808 37.5826 168.208 38.8665 168.279 40.5218L162.285 40.7809ZM168.13 31.3144C168.105 32.971 166.742 34.2937 165.085 34.2687C163.429 34.2436 162.106 32.8803 162.131 31.2237L168.13 31.3144ZM162.705 21.5279C162.891 19.8815 164.376 18.6974 166.022 18.8831C167.669 19.0688 168.853 20.554 168.667 22.2004L162.705 21.5279ZM170.392 13.5836C169.88 15.1593 168.188 16.0215 166.612 15.5094C165.036 14.9973 164.174 13.3048 164.686 11.7291L170.392 13.5836ZM170.652 2.40182C171.979 1.40974 173.859 1.68122 174.851 3.00822C175.843 4.33522 175.572 6.2152 174.245 7.2073L170.652 2.40182ZM180.571 6.60212C178.986 6.11894 178.093 4.44248 178.576 2.85766C179.059 1.27282 180.736 0.379753 182.32 0.862948L180.571 6.60212ZM191.493 5.6801C192.842 6.64155 193.157 8.51485 192.195 9.86419C191.234 11.2135 189.36 11.528 188.011 10.5666L191.493 5.6801ZM194.946 16.3317C193.736 15.1995 193.674 13.301 194.806 12.0914C195.938 10.8817 197.837 10.819 199.046 11.9512L194.946 16.3317ZM205.831 18.8406C206.952 20.0611 206.871 21.9589 205.65 23.0794C204.43 24.1999 202.532 24.1189 201.411 22.8984L205.831 18.8406ZM207.507 29.9084C206.45 28.6321 206.628 26.741 207.905 25.6845C209.181 24.628 211.072 24.8062 212.128 26.0825L207.507 29.9084ZM218.07 33.5649C219.075 34.8819 218.822 36.7645 217.505 37.7698C216.188 38.7751 214.306 38.5224 213.3 37.2054L218.07 33.5649ZM218.821 44.7118C217.864 43.3595 218.184 41.4872 219.536 40.5299C220.889 39.5726 222.761 39.8928 223.718 41.2451L218.821 44.7118ZM-15.0575 65.7962C-12.2974 64.6206 -12.2974 64.6206 -12.2974 64.6206C-12.2974 64.6206 -12.2974 64.6206 -12.2974 64.6206C-12.2974 64.6206 -12.2974 64.6206 -12.2974 64.6206C-12.2973 64.6207 -12.2973 64.6209 -12.2971 64.6212C-12.2969 64.6218 -12.2965 64.6228 -12.2959 64.6242C-12.2947 64.6269 -12.2929 64.6312 -12.2904 64.637C-12.2854 64.6487 -12.2778 64.6666 -12.2675 64.6905C-12.2471 64.7383 -12.2161 64.8105 -12.175 64.9061C-12.0928 65.0975 -11.9696 65.3829 -11.8075 65.7563C-11.4832 66.5032 -11.0028 67.6018 -10.3811 69.0032L-15.8655 71.4366C-16.4941 70.0198 -16.9808 68.9066 -17.311 68.1461C-17.4762 67.7658 -17.6021 67.4738 -17.6872 67.276C-17.7297 67.1771 -17.762 67.1018 -17.7838 67.0508C-17.7947 67.0253 -17.803 67.0059 -17.8086 66.9927C-17.8114 66.9861 -17.8136 66.981 -17.8151 66.9775C-17.8158 66.9758 -17.8164 66.9744 -17.8168 66.9734C-17.817 66.973 -17.8172 66.9726 -17.8173 66.9723C-17.8174 66.9721 -17.8174 66.972 -17.8175 66.9719C-17.8175 66.9719 -17.8175 66.9718 -17.8175 66.9718C-17.8175 66.9717 -17.8176 66.9717 -15.0575 65.7962ZM-6.35462 77.888C-5.1284 80.5421 -3.73789 83.5082 -2.20726 86.7054L-7.61905 89.2962C-9.16257 86.0721 -10.5648 83.0811 -11.8014 80.4044L-6.35462 77.888ZM2.05969 95.4606C3.45441 98.2712 4.92414 101.183 6.45676 104.156L1.12389 106.905C-0.424056 103.903 -1.90773 100.964 -3.31495 98.1277L2.05969 95.4606ZM11.0015 112.788C12.5256 115.621 14.0934 118.472 15.6952 121.309L10.4706 124.259C8.84679 121.383 7.2592 118.496 5.7176 115.631L11.0015 112.788ZM20.5758 129.715C22.2562 132.525 23.9603 135.286 25.678 137.963L20.6279 141.203C18.8723 138.466 17.135 135.652 15.4262 132.794L20.5758 129.715ZM31.0421 145.97C32.9696 148.714 34.8963 151.307 36.8085 153.705L32.1175 157.446C30.1174 154.938 28.1177 152.246 26.1323 149.419L31.0421 145.97ZM43.0255 160.829C45.4508 163.324 47.7804 165.361 49.983 166.879L46.5779 171.819C43.9614 170.015 41.3325 167.696 38.7227 165.01L43.0255 160.829ZM57.4164 169.979C59.5566 170.125 61.6038 169.413 63.6367 167.21L68.0462 171.279C64.9061 174.682 61.1385 176.247 57.0079 175.965L57.4164 169.979ZM67.9378 159.806C68.9304 157.316 69.8508 154.325 70.6759 150.775L76.5202 152.133C75.6429 155.907 74.6395 159.198 73.5112 162.028L67.9378 159.806ZM72.4313 141.361C72.8626 138.455 73.2446 135.305 73.5728 131.898L79.5452 132.473C79.2082 135.97 78.8144 139.223 78.3663 142.242L72.4313 141.361ZM74.3076 122.371C74.4059 120.729 74.4938 119.039 74.5711 117.301L80.5652 117.567C80.4866 119.335 80.3971 121.056 80.2969 122.73L74.3076 122.371ZM74.5711 117.301C74.647 115.591 74.7268 113.912 74.8104 112.262L80.8027 112.566C80.7198 114.203 80.6406 115.87 80.5652 117.567L74.5711 117.301ZM75.3642 102.596C75.5826 99.2016 75.8187 95.9492 76.0717 92.8346L82.052 93.3203C81.8019 96.3994 81.5682 99.6183 81.3518 102.982L75.3642 102.596ZM76.9687 83.0273C77.3224 79.5801 77.7001 76.3305 78.1 73.2704L84.0494 74.048C83.6573 77.0484 83.286 80.2427 82.9374 83.6397L76.9687 83.0273ZM79.5458 63.5727C80.1525 60.0023 80.798 56.7549 81.4792 53.8118L87.3247 55.1648C86.6739 57.9763 86.0509 61.1063 85.461 64.5779L79.5458 63.5727ZM84.1922 44.1732C85.5577 40.2261 87.061 37.0628 88.7231 34.657L93.6596 38.0674C92.4095 39.8768 91.1212 42.4966 89.8625 46.1349L84.1922 44.1732ZM99.6289 28.8916C103.309 29.4742 106.564 32.1186 109.312 35.2915L104.776 39.2195C102.3 36.3603 100.23 35.0616 98.6908 34.8178L99.6289 28.8916ZM115.197 43.7529C116.802 46.505 118.346 49.5075 119.803 52.6276L114.368 55.1675C112.97 52.1755 111.509 49.3394 110.014 46.776L115.197 43.7529ZM123.72 61.7559C124.952 64.8741 126.092 68.0068 127.119 71.0441L121.435 72.9656C120.438 70.0178 119.332 66.9797 118.139 63.9608L123.72 61.7559ZM130.054 80.5301C130.524 82.212 130.941 83.816 131.302 85.3154L125.468 86.7177C125.126 85.2961 124.727 83.7627 124.275 82.1431L130.054 80.5301ZM131.302 85.3154C131.651 86.7685 132.059 88.2028 132.519 89.6071L126.818 91.4752C126.308 89.9203 125.856 88.3306 125.468 86.7177L131.302 85.3154ZM135.967 97.8089C137.425 100.593 139.056 103.065 140.765 105.11L136.161 108.957C134.141 106.54 132.28 103.701 130.652 100.592L135.967 97.8089ZM146.95 110.347C149.322 111.517 151.32 111.501 153.088 110.468L156.114 115.649C152.23 117.918 148.045 117.577 144.296 115.727L146.95 110.347ZM157.767 104.616C158.801 102.461 159.757 99.7169 160.573 96.289L166.41 97.6783C165.521 101.416 164.437 104.583 163.176 107.212L157.767 104.616ZM162.149 87.355C162.497 84.596 162.773 81.5713 162.967 78.2644L168.956 78.6144C168.756 82.0396 168.469 85.1993 168.102 88.1065L162.149 87.355ZM163.276 68.9667C163.307 66.0593 163.284 62.9821 163.203 59.7281L169.201 59.5787C169.283 62.8984 169.307 66.0469 169.275 69.0305L163.276 68.9667ZM162.835 50.435C162.753 48.8888 162.659 47.3087 162.553 45.6941L168.541 45.3019C168.648 46.9404 168.743 48.5451 168.827 50.1165L162.835 50.435ZM162.553 45.6941C162.442 43.9994 162.353 42.3622 162.285 40.7809L168.279 40.5218C168.345 42.0563 168.432 43.6491 168.541 45.3019L162.553 45.6941ZM162.131 31.2237C162.185 27.6373 162.379 24.4133 162.705 21.5279L168.667 22.2004C168.367 24.8596 168.182 27.8862 168.13 31.3144L162.131 31.2237ZM164.686 11.7291C166.041 7.56101 167.99 4.39196 170.652 2.40182L174.245 7.2073C172.922 8.1963 171.524 10.1012 170.392 13.5836L164.686 11.7291ZM182.32 0.862948C185.376 1.79465 188.48 3.53361 191.493 5.6801L188.011 10.5666C185.286 8.62481 182.777 7.27477 180.571 6.60212L182.32 0.862948ZM199.046 11.9512C201.358 14.1149 203.638 16.4513 205.831 18.8406L201.411 22.8984C199.297 20.5958 197.125 18.3712 194.946 16.3317L199.046 11.9512ZM212.128 26.0825C214.284 28.686 216.287 31.2292 218.07 33.5649L213.3 37.2054C211.557 34.9217 209.603 32.4415 207.507 29.9084L212.128 26.0825ZM223.718 41.2451C224.577 42.4585 225.254 43.4385 225.719 44.1174C225.951 44.4569 226.129 44.7212 226.251 44.9019C226.312 44.9923 226.358 45.0618 226.39 45.1093C226.406 45.1331 226.418 45.1514 226.427 45.164C226.431 45.1704 226.434 45.1753 226.437 45.1788C226.438 45.1806 226.439 45.182 226.439 45.183C226.44 45.1835 226.44 45.184 226.44 45.1843C226.44 45.1845 226.44 45.1846 226.44 45.1847C226.441 45.1848 226.441 45.1849 226.441 45.1849C226.441 45.185 226.441 45.1851 223.941 46.8439C221.441 48.5027 221.441 48.5027 221.441 48.5028C221.441 48.5028 221.441 48.5028 221.441 48.5029C221.442 48.5029 221.442 48.5029 221.442 48.5029C221.442 48.5029 221.441 48.5028 221.441 48.5026C221.441 48.5022 221.441 48.5015 221.44 48.5004C221.438 48.4982 221.436 48.4946 221.433 48.4896C221.426 48.4796 221.416 48.464 221.402 48.4429C221.373 48.4008 221.331 48.3369 221.274 48.2522C221.16 48.0828 220.989 47.8303 220.765 47.5032C220.318 46.8488 219.659 45.896 218.821 44.7118L223.718 41.2451Z" fill="#BBBBBB"/>
</svg>
